<?xml version="1.0" encoding="utf-8"?>
<!-- Generator: Adobe Illustrator 16.0.0, SVG Export Plug-In . SVG Version: 6.00 Build 0)  -->
<!DOCTYPE svg PUBLIC "-//W3C//DTD SVG 1.1//EN" "http://www.w3.org/Graphics/SVG/1.1/DTD/svg11.dtd">
<svg version="1.1" xmlns="http://www.w3.org/2000/svg" xmlns:xlink="http://www.w3.org/1999/xlink" x="0px" y="0px" width="500px"
	 height="500px" viewBox="0 0 500 500" enable-background="new 0 0 500 500" xml:space="preserve">
<g id="Calque_2" display="none">
</g>
<g id="Calque_1">
</g>
<g id="Calque_3">
</g>
<g id="Calque_4">
</g>
<g id="Calque_6">
	<g transform="translate(-289.47 -573.21)">
		<path fill="#030000" stroke="#090000" stroke-width="1.7" stroke-linecap="round" d="M642.315,839.162
			c-2.178-34.448,17.171-72.483,43.217-84.954c26.045-12.47,48.926,5.344,51.104,39.792c2.178,34.446-17.17,72.482-43.215,84.953
			c-25.863,12.382-48.644-5.092-51.063-39.17"/>
		<path fill="#060000" stroke="#090000" stroke-width="1.7" stroke-linecap="round" d="M556.623,736.194
			c-10.933-35.914,2.534-82.082,30.078-103.117c27.544-21.034,58.734-8.971,69.665,26.944
			c10.933,35.914-2.534,82.082-30.079,103.117c-27.35,20.887-58.337,9.154-69.463-26.298"/>
		<path fill="#030000" stroke="#090000" stroke-width="1.7" stroke-linecap="round" d="M526.555,676.181
			c12.932,37.131,3.787,79.536-20.43,94.717c-24.215,15.182-54.328-2.611-67.261-39.742c-12.933-37.13-3.788-79.535,20.429-94.717
			C483.508,621.258,513.621,639.05,526.555,676.181z"/>
		<path fill="#090000" stroke="#090000" stroke-width="1.7" stroke-linecap="round" d="M377.723,858.873
			c-25.863-20.576-40.369-63.604-32.4-96.109c7.968-32.503,35.395-42.173,61.26-21.598c25.863,20.576,40.369,63.604,32.4,96.108
			c-7.912,32.275-35.033,42.074-60.791,21.966"/>
		<path stroke="#000000" stroke-width="0.897" d="M396.723,914.673c-10.68,14.622-10.436,45.603,2.022,62.184
			c28.466,37.886,87.856,41.705,135.19,43.987c50.612,2.439,116.59,6.519,148.41-32.917c9.777-12.116,6.319-32.367,0.249-46.701
			c-9.279-21.913-34.938-32.35-51.53-49.408c-14.691-15.106-23.307-38.057-42.466-46.829c-27.998-12.817-63.237-12.286-92.35-2.254
			c-15.097,5.203-24.112,21.002-37.001,30.425c-19.086,13.954-41.16,23.674-59.543,38.536c-1.092,0.884-2.978,2.979-2.978,2.979
			L396.723,914.673z"/>
	</g>
</g>
<g id="Calque_7">
</g>
<g id="Calque_5" display="none">
	<path display="inline" fill="#FD003A" d="M450.682,69.823L270.508,249.999L69.823,450.684c-5.566,5.859-14.939,5.859-20.507,0
		c-5.859-5.566-5.859-14.941,0-20.508l380.859-380.86c5.566-5.858,14.939-5.858,20.506,0
		C456.543,54.881,456.543,64.256,450.682,69.823z"/>
</g>
</svg>
