<?xml version="1.0" encoding="utf-8"?>
<!-- Generator: Adobe Illustrator 16.0.0, SVG Export Plug-In . SVG Version: 6.00 Build 0)  -->
<!DOCTYPE svg PUBLIC "-//W3C//DTD SVG 1.1//EN" "http://www.w3.org/Graphics/SVG/1.1/DTD/svg11.dtd">
<svg version="1.1" xmlns="http://www.w3.org/2000/svg" xmlns:xlink="http://www.w3.org/1999/xlink" x="0px" y="0px" width="500px"
	 height="500px" viewBox="0 0 500 500" enable-background="new 0 0 500 500" xml:space="preserve">
<g id="Calque_2" display="none">
</g>
<g id="Calque_1">
</g>
<g id="Calque_3">
	<g transform="scale(.24)">
		<path d="M1716.549,1744.324l-24.459-81.311c-16.089,6.258-36.308,9.379-60.539,9.379h-48.478
			c0,17.651,14.522,44.564,43.896,80.863c29.26,36.08,51.046,57.194,65.12,63.005h91.26
			C1783.349,1768.335,1760.998,1744.324,1716.549,1744.324"/>
		<path d="M1716.549,1744.324l-24.459-81.311c-16.089,6.258-36.308,9.379-60.539,9.379h-48.478
			c0,17.651,14.522,44.564,43.896,80.863c29.26,36.08,51.046,57.194,65.12,63.005h91.26
			C1783.349,1768.335,1760.998,1744.324,1716.549,1744.324L1716.549,1744.324z"/>
		<path d="M311.711,1066.418V365.004c0-31.608,5.021-55.288,15.291-71.045c10.164-15.688,25.529-23.68,45.854-23.68
			c28.593,0,57.182,18.654,85.779,55.79c-15.861,15.358-23.682,30.66-23.682,46.136c0,15.409,3.914,29.708,11.792,43.223
			l128.784-109.456c-13.464-13.515-27.096-20.278-40.609-20.278c-15.413,0-27.865,2.905-37.638,8.716
			c-32.113-50.319-74.227-75.511-126.375-75.511c-34.188,0-60.262,10.899-78.308,32.623c-18.205,21.726-27.144,54.336-27.144,97.78
			v717.57l46.257-0.452"/>
		<path d="M311.711,1066.418V365.004c0-31.608,5.021-55.288,15.291-71.045c10.164-15.688,25.529-23.68,45.854-23.68
			c28.593,0,57.182,18.654,85.779,55.79c-15.861,15.358-23.682,30.66-23.682,46.136c0,15.409,3.914,29.708,11.792,43.223
			l128.784-109.456c-13.464-13.515-27.096-20.278-40.609-20.278c-15.413,0-27.865,2.905-37.638,8.716
			c-32.113-50.319-74.227-75.511-126.375-75.511c-34.188,0-60.262,10.899-78.308,32.623c-18.205,21.726-27.144,54.336-27.144,97.78
			v717.57l46.257-0.452V1066.418z"/>
		<path d="M1898.804,1049.878H188.281c-23.901,0-35.681,8.708-35.681,25.797s13.619,25.57,40.938,25.57
			c0,363,100.627,544.613,302.067,544.613h1095.577c201.278,0,301.912-181.62,301.912-544.613c27.486,0,41.215-8.48,41.215-25.57
			s-11.841-25.797-35.514-25.797"/>
		<path d="M1898.804,1049.878H188.281c-23.901,0-35.681,8.708-35.681,25.797s13.619,25.57,40.938,25.57
			c0,363,100.627,544.613,302.067,544.613h1095.577c201.278,0,301.912-181.62,301.912-544.613c27.486,0,41.215-8.48,41.215-25.57
			s-11.841-25.797-35.514-25.797H1898.804z"/>
		<path d="M396.794,1671.842l-24.748,81.307c-45.744,0-68.571,24.007-68.571,71.932h93.319c13.729-5.811,35.01-26.925,63.822-63
			c28.715-36.296,43.115-63.212,43.115-80.868h-47.579C432.357,1681.213,412.541,1678.092,396.794,1671.842"/>
		<path d="M396.794,1663.009l-24.748,81.311c-45.744,0-68.571,24.011-68.571,71.936h93.319c13.729-5.815,35.01-26.925,63.822-63
			c28.715-36.304,43.115-63.216,43.115-80.868h-47.579C432.357,1672.388,412.541,1669.267,396.794,1663.009z"/>
		
			<rect x="607.48" y="396.383" transform="matrix(0.6882 0.7255 -0.7255 0.6882 482.6909 -322.2391)" fill-rule="evenodd" clip-rule="evenodd" width="17.511" height="8.111"/>
		<polygon fill-rule="evenodd" clip-rule="evenodd" points="713.18,524.268 662.899,470.451 685.551,448.968 736.503,502.692 		"/>
		
			<rect x="552.365" y="448.732" transform="matrix(0.6882 0.7255 -0.7255 0.6882 503.4316 -265.951)" fill-rule="evenodd" clip-rule="evenodd" width="17.511" height="7.96"/>
		<polygon fill-rule="evenodd" clip-rule="evenodd" points="657.422,577.144 606.742,523.712 630.208,501.459 681.156,555.182 		"/>
		
			<rect x="719.897" y="621.385" transform="matrix(0.6882 0.7256 -0.7256 0.6882 679.7819 -330.9233)" fill-rule="evenodd" clip-rule="evenodd" width="9.949" height="7.959"/>
	</g>
</g>
<g id="Calque_4">
</g>
<g id="Calque_6">
</g>
<g id="Calque_7">
</g>
<g id="Calque_5" display="none">
	<path display="inline" fill="#FD003A" d="M450.682,69.823L270.508,249.999L69.823,450.684c-5.566,5.859-14.939,5.859-20.507,0
		c-5.859-5.566-5.859-14.941,0-20.508l380.859-380.86c5.566-5.858,14.939-5.858,20.506,0
		C456.543,54.881,456.543,64.256,450.682,69.823z"/>
</g>
</svg>
