<?xml version="1.0" encoding="utf-8"?>
<!-- Generator: Adobe Illustrator 16.0.0, SVG Export Plug-In . SVG Version: 6.00 Build 0)  -->
<!DOCTYPE svg PUBLIC "-//W3C//DTD SVG 1.1//EN" "http://www.w3.org/Graphics/SVG/1.1/DTD/svg11.dtd">
<svg version="1.1" xmlns="http://www.w3.org/2000/svg" xmlns:xlink="http://www.w3.org/1999/xlink" x="0px" y="0px" width="500px"
	 height="500px" viewBox="0 0 500 500" enable-background="new 0 0 500 500" xml:space="preserve">
<g id="Calque_2" display="none">
	
		<image display="inline" overflow="visible" width="500" height="500" xlink:href="1eb29ce8418f87b43ba6dde52771dc47--silhouette-icons.jpg"  transform="matrix(2.7621 -2.7621 2.7621 2.7621 -3110.2617 767.5557)">
	</image>
</g>
<g id="Calque_1">
	<g>
		<path fill-rule="evenodd" clip-rule="evenodd" d="M-451.143,237h346.312c0,0,23.796,114.733-125.548,114.733
			c0,0-67.031,9.173-25.903,56.798C-215.159,456.156-227,439.373-227,439.373V464h-168V325.742
			C-395,325.742-451.143,317-451.143,237z"/>
		<path fill-rule="evenodd" clip-rule="evenodd" d="M-454,228h106.752c0,0,53.029-75,0-178H-454V228z"/>
		<rect x="-311" y="203" fill-rule="evenodd" clip-rule="evenodd" width="207" height="25"/>
		<rect x="-444" y="36" fill-rule="evenodd" clip-rule="evenodd" width="84" height="9"/>
	</g>
</g>
<g id="Calque_3">
	<g>
		<path fill-rule="evenodd" clip-rule="evenodd" d="M-673.083,101.157c0,0-84.91-82.417-152.792-14.535l197.748,197.749
			c0,0,58.717-78.739-20.299-157.753L-595.6,73.79l5.587,0.036l0.14-34.967l-21.553-0.128L-673.083,101.157z"/>
		
			<rect x="-880.727" y="191.712" transform="matrix(-0.7071 -0.7071 0.7071 -0.7071 -1406.8416 -182.5449)" fill-rule="evenodd" clip-rule="evenodd" width="279" height="16.762"/>
		
			<rect x="-779.981" y="266.951" transform="matrix(-0.7071 0.7071 -0.7071 -0.7071 -1098.108 1008.7637)" fill-rule="evenodd" clip-rule="evenodd" width="44" height="20"/>
		
			<rect x="-718.504" y="328.372" transform="matrix(-0.7071 0.7071 -0.7071 -0.7071 -949.5046 1070.0417)" fill-rule="evenodd" clip-rule="evenodd" width="44.277" height="20.001"/>
		<polygon fill-rule="evenodd" clip-rule="evenodd" points="-831.088,337.373 -799.308,306.334 -786.265,319.377 -817.848,350.961 
					"/>
		
			<rect x="-769.856" y="380.629" transform="matrix(-0.7071 0.7072 -0.7072 -0.7071 -999.9084 1194.4316)" fill-rule="evenodd" clip-rule="evenodd" width="45" height="18.954"/>
		
			<rect x="-871.95" y="368.421" transform="matrix(-0.7071 0.7071 -0.7071 -0.7071 -1199.5892 1253.7279)" fill-rule="evenodd" clip-rule="evenodd" width="25" height="20.001"/>
		
			<rect x="-810.432" y="429.939" transform="matrix(-0.7071 0.7071 -0.7071 -0.7071 -1051.0707 1315.2456)" fill-rule="evenodd" clip-rule="evenodd" width="25" height="20"/>
		
			<rect x="-840.791" y="206.14" transform="matrix(-0.7071 0.7071 -0.7071 -0.7071 -1244.925 947.9498)" fill-rule="evenodd" clip-rule="evenodd" width="44" height="20"/>
		<polygon fill-rule="evenodd" clip-rule="evenodd" points="-892.139,276.322 -860.598,245.045 -847.076,258.566 -878.659,290.149 
					"/>
		
			<rect x="-932.761" y="307.609" transform="matrix(-0.7071 0.7071 -0.7071 -0.7071 -1346.4255 1192.9047)" fill-rule="evenodd" clip-rule="evenodd" width="24.999" height="20"/>
		
			<rect x="-902.31" y="144.622" transform="matrix(-0.7071 0.7071 -0.7071 -0.7071 -1393.4551 886.4247)" fill-rule="evenodd" clip-rule="evenodd" width="44" height="20"/>
		<polygon fill-rule="evenodd" clip-rule="evenodd" points="-953.562,214.899 -921.925,183.717 -908.594,197.048 -940.178,228.632 
					"/>
		
			<rect x="-994.279" y="246.091" transform="matrix(-0.7071 0.7071 -0.7071 -0.7071 -1494.9182 1131.3979)" fill-rule="evenodd" clip-rule="evenodd" width="25" height="20"/>
		<polygon fill-rule="evenodd" clip-rule="evenodd" points="-932.088,438.373 -900.308,407.334 -887.265,420.377 -918.848,451.961 
					"/>
		<polygon fill-rule="evenodd" clip-rule="evenodd" points="-993.139,377.322 -961.598,346.045 -948.076,359.566 -979.659,391.149 
					"/>
	</g>
	<g>
		<path fill-rule="evenodd" clip-rule="evenodd" d="M-1503.154,396.943c6.364-17.957,20.323-27.947,37.012-34.84
			c35.567-14.693,71.306-28.981,106.742-43.983c6.58-2.784,16.585-7.587,17.19-12.435c1.646-13.188,0.914-27.348-2.28-40.281
			c-3.338-13.508-10.396-26.154-16.368-38.923c-1.796-3.841-4.796-7.738-8.277-10.063c-15.54-10.375-19.661-37.148-8.334-52.175
			c3.245-4.304,5.331-10.458,5.556-15.863c0.488-11.788-2.515-23.958-0.634-35.403c6.825-41.555,52.476-70.048,99.256-63.157
			c38.904,5.731,67.199,29.307,73.277,61.984c1.448,7.785,1.01,16.078,0.369,24.053c-0.933,11.601-2.5,21.664,6.47,32.722
			c11.594,14.291,4.004,37.516-11.68,48.448c-3.336,2.331-5.293,7.08-7.104,11.072c-5.453,12-12.236,23.766-15.265,36.398
			c-3.21,13.385-4.321,27.821-2.942,41.454c0.476,4.691,10.728,9.494,17.343,12.276c30.656,12.892,61.604,25.09,92.446,37.544
			c2.202,0.889,4.331,1.981,6.575,2.739c27.797,9.357,44.301,25.363,38.543,57.929c-2.509,14.199-0.421,29.207-0.421,45.477
			c-6.84,0-12.396,0-17.949,0c-130.816,0-261.635-0.008-392.453,0.031c-5.689,0-11.38,0.418-17.07,0.646
			C-1503.154,440.709-1503.154,418.824-1503.154,396.943z"/>
	</g>
	<g>
		<path fill-rule="evenodd" clip-rule="evenodd" d="M-1679.356,207.733c3.472,1.592,6.372,2.803,9.165,4.226
			c14.943,7.611,24.35,19.097,27.43,36.106c0.816,4.507,1.613,8.921,1.64,13.445c0.095,16.239,0.037,32.479,0.037,49.235
			c1.581,0.771,3.524,1.305,4.938,2.478c5.733,4.754,9.682,10.06,9.457,18.417c-0.536,19.948-0.173,39.92-0.173,60.28
			c-1.925,0.309-3.793,0.609-5.981,0.961c0,21.986,0,43.901,0,66.199c-3.943,0-7.578,0-12.098,0
			c-0.503-12.911-0.017-26.274-0.265-39.927c-127.874,0-255.44,0-383.724,0c0,13.06,0,26.424,0,40.042c-5.009,0-9.315,0-14.344,0
			c0-22.05,0-44.212,0-66.395c-2.305-0.263-3.905-0.446-5.858-0.67c0-23.953,0-47.898,0-72.685
			c3.208-2.559,7.046-5.621,11.832-9.439c0-6.036,0-13.045,0-20.053c0-11.174,0.048-22.35-0.013-33.523
			c-0.073-13.303,4.977-24.259,14.185-33.798c6.458-6.689,13.573-11.854,22.578-14.298c0.593-0.162,1.108-0.736,1.691-0.792
			c7.503-0.722,15.013-1.962,22.521-1.973c90.753-0.136,181.507-0.15,272.26,0.013
			C-1695.577,205.599-1687.076,207.03-1679.356,207.733z M-2037.122,392.086c132.495,0,264.088,0,396.037,0
			c0-20.59,0.001-40.853-0.014-61.114c-0.001-0.292-0.168-0.616-0.344-0.864c-0.188-0.265-0.479-0.456-0.363-0.352
			c-131.954,0-263.546,0-395.316,0C-2037.122,350.638-2037.122,371.19-2037.122,392.086z M-2004.791,310.787
			c54.084,0,107.147,0,160.518,0c0-8.432-0.075-16.518,0.032-24.602c0.055-4.107-0.863-7.758-4.042-10.516
			c-2.937-2.549-6.004-4.946-8.758-7.199c-45.137,0-89.831,0-133.458,0c-11.719,4.461-13.707,13.816-14.233,23.798
			C-2005.05,298.307-2004.791,304.375-2004.791,310.787z M-1672.958,281.16c-5.909-8.934-13.146-10.94-22.128-10.814
			c-29.726,0.416-59.462,0.156-89.194,0.156c-11.149,0-22.301-0.136-33.447,0.049c-7.338,0.121-14.146,6.945-14.309,14.27
			c-0.191,8.685-0.044,17.377-0.044,25.87c53.963,0,107.184,0,161.084,0C-1671.706,300.022-1672.381,289.846-1672.958,281.16z"/>
		<path fill-rule="evenodd" clip-rule="evenodd" d="M-2037.122,392.086c0-20.896,0-41.448,0-62.33c131.77,0,263.362,0,395.316,0
			c-0.116-0.104,0.175,0.087,0.363,0.352c0.176,0.248,0.343,0.572,0.344,0.864c0.015,20.262,0.014,40.524,0.014,61.114
			C-1773.034,392.086-1904.626,392.086-2037.122,392.086z"/>
		<path fill-rule="evenodd" clip-rule="evenodd" fill="#FFFFFF" d="M-2004.791,310.787c0-6.412-0.26-12.48,0.059-18.519
			c0.527-9.981,2.514-19.337,14.233-23.798c43.627,0,88.322,0,133.458,0c2.753,2.253,5.821,4.65,8.758,7.199
			c3.179,2.758,4.096,6.408,4.042,10.516c-0.107,8.084-0.032,16.17-0.032,24.602
			C-1897.644,310.787-1950.707,310.787-2004.791,310.787z"/>
		<path fill-rule="evenodd" clip-rule="evenodd" fill="#FFFFFF" d="M-1672.958,281.16c0.577,8.686,1.253,18.862,1.962,29.53
			c-53.9,0-107.121,0-161.084,0c0-8.493-0.147-17.186,0.044-25.87c0.162-7.324,6.971-14.148,14.309-14.27
			c11.146-0.185,22.298-0.049,33.447-0.049c29.732,0,59.469,0.26,89.194-0.156C-1686.105,270.22-1678.868,272.227-1672.958,281.16z"
			/>
	</g>
	<path d="M-2149.269,366.048c0-0.25-0.03-0.492-0.05-0.739v-21.001v-2.329h-0.117c-0.875-18.706-12.127-34.702-28.147-42.382
		l-34.951-79.629c-0.163-0.371-0.359-0.716-0.563-1.057v-60.609c0-27.051-22.011-49.062-49.062-49.062h-202.266
		c-27.052,0-49.062,22.011-49.062,49.062v60.611c-0.199,0.335-0.393,0.676-0.554,1.039l-35.146,79.733
		c-15.92,7.714-27.086,23.658-27.958,42.29h-0.118v2.329v49.646v68.398h19.614v-58.588h388.715v58.59h19.614v-68.397v-27.43
		C-2149.311,366.362-2149.269,366.21-2149.269,366.048z M-2493.868,158.302c0-16.236,13.21-29.447,29.447-29.447h202.265
		c16.236,0,29.447,13.211,29.447,29.447V214.1h-52.979c0.068-0.831,0.127-1.665,0.127-2.511v-37.744
		c0-16.428-13.365-29.791-29.794-29.791h-91.4c-16.427,0-29.79,13.363-29.79,29.791v37.744c0,0.848,0.056,1.682,0.127,2.511h-57.45
		V158.302z M-2557.647,384.146v-39.838c0-16.536,13.454-29.989,29.989-29.989h328.734c16.535,0,29.988,13.453,29.988,29.989v39.838
		H-2557.647z"/>
	<g>
		<path d="M1442.583,46.364c-0.119-0.119-0.172-0.25-0.225-0.33c-0.105-0.171-0.265-0.278-0.304-0.422
			c-3.076-4.198-7.92-6.944-13.491-6.944h-0.026h-283.235h-0.04c-9.233,0-16.666,7.472-16.666,16.686v0.014v14.534v54.651v30.731
			v54.651v30.705v54.625v30.718v54.651v14.547l0,0c0,3.326,0.996,6.441,2.687,9.056c0.079,0.08,0.112,0.185,0.165,0.291
			c0.132,0.158,0.271,0.29,0.337,0.396c3.043,4.225,7.92,6.97,13.478,6.97h0.026h20.739c-3.492,22.64-22.918,40.078-46.52,40.078
			c-23.841,0-43.418-17.794-46.566-40.843h20.91l0,0c9.234,0,16.68-7.472,16.68-16.659v-0.014v-14.534V325.27v-30.705v-54.637
			v-30.719v-54.664v-30.732V69.188V54.641v-0.026c0-3.3-0.971-6.416-2.66-8.977c-0.066-0.105-0.133-0.25-0.219-0.33
			c-0.065-0.171-0.184-0.277-0.31-0.409c-3.043-4.185-7.921-6.943-13.505-6.943l0,0h-57.054h-0.032
			c-9.215,0-16.653,7.471-16.653,16.659v0.026v14.547v54.624v30.718v54.651v30.719v54.638v30.704v54.65v14.548v0.014
			c0,3.34,0.978,6.455,2.667,9.043c0.078,0.078,0.132,0.211,0.186,0.289c0.111,0.172,0.23,0.278,0.315,0.423
			c3.063,4.198,7.921,6.943,13.485,6.943h0.032h24.845c3.228,29.227,27.807,52.104,57.865,52.104
			c29.834,0,54.262-22.534,57.819-51.391h251.211h0.026c9.227,0,16.659-7.497,16.659-16.659v-0.026v-14.547v-54.651v-30.705v-54.624
			v-30.719v-54.651v-30.731V69.927V55.38v-0.013C1445.236,52.027,1444.232,48.938,1442.583,46.364z M1235.885,290.13
			c0,3.934-3.194,7.102-7.128,7.102h-39.226c-3.935,0-7.109-3.168-7.109-7.102v-16.607c0-3.906,3.175-7.102,7.109-7.102h39.226
			c3.934,0,7.128,3.195,7.128,7.102V290.13z M1235.885,233.591c0,3.934-3.194,7.128-7.128,7.128h-39.226
			c-3.935,0-7.109-3.195-7.109-7.128v-16.607c0-3.934,3.175-7.128,7.109-7.128h39.226c3.934,0,7.128,3.195,7.128,7.128V233.591z
			 M1235.885,177.052c0,3.907-3.194,7.115-7.128,7.115h-39.226c-3.935,0-7.109-3.208-7.109-7.115v-16.62
			c0-3.934,3.175-7.116,7.109-7.116h39.226c3.934,0,7.128,3.182,7.128,7.116V177.052z M1313.664,290.13
			c0,3.934-3.155,7.102-7.128,7.102h-39.22c-3.96,0-7.103-3.168-7.103-7.102v-16.607c0-3.906,3.143-7.102,7.103-7.102h39.22
			c3.973,0,7.128,3.195,7.128,7.102V290.13z M1313.664,233.591c0,3.934-3.155,7.128-7.128,7.128h-39.22
			c-3.96,0-7.103-3.195-7.103-7.128v-16.607c0-3.934,3.143-7.128,7.103-7.128h39.22c3.973,0,7.128,3.195,7.128,7.128V233.591z
			 M1313.664,177.052c0,3.907-3.155,7.115-7.128,7.115h-39.22c-3.96,0-7.103-3.208-7.103-7.115v-16.62
			c0-3.934,3.143-7.116,7.103-7.116h39.22c3.973,0,7.128,3.182,7.128,7.116V177.052z M1391.443,290.13
			c0,3.934-3.182,7.102-7.142,7.102h-39.206c-3.961,0-7.13-3.168-7.13-7.102v-16.607c0-3.906,3.169-7.102,7.13-7.102h39.206
			c3.96,0,7.142,3.195,7.142,7.102V290.13z M1391.443,233.591c0,3.934-3.182,7.128-7.142,7.128h-39.206
			c-3.961,0-7.13-3.195-7.13-7.128v-16.607c0-3.934,3.169-7.128,7.13-7.128h39.206c3.96,0,7.142,3.195,7.142,7.128V233.591z
			 M1391.443,177.052c0,3.907-3.182,7.115-7.142,7.115h-39.206c-3.961,0-7.13-3.208-7.13-7.115v-16.62
			c0-3.934,3.169-7.116,7.13-7.116h39.206c3.96,0,7.142,3.182,7.142,7.116V177.052z"/>
	</g>
	<g>
		<g>
			<path d="M1819.074,85.652l-15.878-20.665l-74.579,57.31l-74.578-57.311l-15.879,20.665l52.402,40.266l1.693,1.302h-46.158
				v300.975h30.402v1.302v30.62h52.117v-30.62v-1.302h252.768v1.302v30.62h52.115v-30.62v-1.302h26.926V127.22h-295.449l1.693-1.302
				L1819.074,85.652z M2006.572,253.387c13.434,0,24.32,10.889,24.32,24.32c0,13.43-10.892,24.32-24.32,24.32
				c-13.431,0-24.319-10.888-24.319-24.32C1982.253,264.272,1993.141,253.387,2006.572,253.387z M1982.253,196.926
				c0-13.434,10.889-24.32,24.319-24.32c13.429,0,24.319,10.891,24.319,24.32c0,13.43-10.891,24.321-24.319,24.321
				C1993.141,221.247,1982.253,210.359,1982.253,196.926z M1941.426,390.432h-255.372V164.986h255.372V390.432z"/>
		</g>
	</g>
	<g>
		<g>
			<g>
				<path d="M2251.5,256.392V93.056c0-15.038,12.234-27.271,27.271-27.271c14.564,0,26.499,11.477,27.234,25.862h-14.84v24.794
					h54.547V91.646h-14.912c-0.751-28.058-23.793-50.656-52.029-50.656c-28.709,0-52.065,23.356-52.065,52.065v163.336h-38.491
					v51.538h423.15v-51.538H2251.5z"/>
			</g>
		</g>
		<g>
			<g>
				<path d="M2204.551,315v59.774c0,37.815,26.328,68.775,59.262,70.522v18.843h24.793v-18.758h222.674v18.758h24.795v-18.853
					c32.799-1.934,58.955-32.818,58.955-70.513V315H2204.551z"/>
			</g>
		</g>
		<g>
			<g>
				<rect x="2306.045" y="141.819" width="24.793" height="28.926"/>
			</g>
		</g>
		<g>
			<g>
				<rect x="2306.045" y="188.101" width="24.793" height="28.926"/>
			</g>
		</g>
		<g>
			<g>
				<rect x="2268.027" y="141.819" width="24.793" height="28.926"/>
			</g>
		</g>
		<g>
			<g>
				<rect x="2268.027" y="188.101" width="24.793" height="28.926"/>
			</g>
		</g>
		<g>
			<g>
				<rect x="2344.145" y="141.819" width="24.793" height="28.926"/>
			</g>
		</g>
		<g>
			<g>
				<rect x="2344.145" y="188.101" width="24.793" height="28.926"/>
			</g>
		</g>
	</g>
	<g>
		<path d="M964.139,170.62c-53.941-53.94-125.863-86.633-207.592-86.633S601.262,116.68,548.955,170.62
			c-3.27,3.27-4.904,6.539-4.904,11.442c0,4.904,1.635,8.173,4.904,11.443l22.885,22.883c6.538,6.539,16.346,6.539,22.883,0
			c40.865-40.864,98.076-67.018,161.824-67.018c63.75,0,120.959,26.154,161.824,67.018c6.537,6.539,16.346,6.539,22.885,0
			l22.883-22.883c3.27-3.27,4.904-6.539,4.904-11.443C969.043,177.159,967.408,172.255,964.139,170.62z"/>
		<path d="M756.547,214.755c-45.769,0-84.998,17.979-114.42,47.402c-6.539,6.538-6.539,16.347,0,22.885l22.884,22.884
			c6.538,6.539,16.345,6.539,22.884,0c17.98-17.98,42.499-27.788,68.652-27.788c26.152,0,50.672,11.442,68.652,27.788
			c6.539,6.539,16.346,6.539,22.885,0l22.885-22.884c6.537-6.538,6.537-16.347,0-22.885
			C841.545,232.734,802.314,214.755,756.547,214.755z"/>
		<circle cx="756.547" cy="378.213" r="32.692"/>
	</g>
	<g>
		<g>
			<path d="M3018.892,244.293c-31.915-55.274-29.643-120.774,0.072-172.367c-29.341-0.043-59.071,7.236-86.327,22.985
				c-58.711,33.915-89.751,97.071-85.752,160.428c13.923,0.461,27.098,5.408,37.697,14.283c10.025-5.595,21.129-8.458,32.708-8.458
				c30.822,0,57.489,20.755,65.802,49.767c21.747,6.702,37.08,26.694,37.08,50.283c0,24.624-17.044,45.205-39.913,51.059
				c41.021,9.436,85.552,4.142,124.889-18.555c27.256-15.734,48.414-37.841,63.056-63.285
				C3108.67,330.317,3050.809,299.552,3018.892,244.293z"/>
			<path d="M3005.717,361.184c0-19.99-15.332-36.216-34.822-38.028c-3.364-26.781-25.945-47.564-53.604-47.564
				c-13.218,0-25.157,4.876-34.577,12.7c-8.859-11.305-22.48-18.727-37.942-18.727c-23.114,0-42.344,16.224-47.163,37.855
				c-25.126,1.755-45.004,22.467-45.004,48.04c0,26.696,21.646,48.327,48.356,48.327c5.666,0,11.06-1.15,16.108-2.947
				c8.803,12.082,22.956,20.021,39.035,20.021c9.838,0,18.972-2.979,26.623-8.026c8.717,8.457,20.555,13.722,33.687,13.722
				c19.301,0,35.827-11.404,43.579-27.788c2.373,0.461,4.805,0.763,7.322,0.763C2988.516,399.545,3005.717,382.355,3005.717,361.184
				z"/>
		</g>
	</g>
</g>
<g id="Calque_4">
	<g>
		<path d="M3693.137,127.257h-289.115c-37.872,0-68.682,30.811-68.682,68.68v78.382c0,37.87,30.81,68.682,68.682,68.682h14.708
			c7.21,0,13.056-5.845,13.056-13.056V310.86h33.164V368.1c0,7.21,5.846,13.057,13.055,13.057c7.211,0,13.057-5.847,13.057-13.057
			V310.86h44.463V368.1c0,7.21,5.846,13.057,13.056,13.057s13.056-5.847,13.056-13.057V310.86h44.463V368.1
			c0,7.21,5.845,13.057,13.055,13.057c7.211,0,13.057-5.847,13.057-13.057V310.86h33.164v19.085c0,7.211,5.845,13.056,13.056,13.056
			h14.708c37.871,0,68.682-30.81,68.682-68.682v-78.382C3761.818,158.067,3731.008,127.257,3693.137,127.257z M3404.021,153.367
			h289.115c19.733,0,36.368,13.499,41.17,31.744h-371.456C3367.652,166.865,3384.289,153.367,3404.021,153.367z M3693.137,316.892
			h-1.653v-19.088c0-7.209-5.845-13.055-13.055-13.055h-259.699c-7.209,0-13.055,5.846-13.055,13.055v19.088h-1.653
			c-23.475,0-42.57-19.098-42.57-42.572v-63.098h374.256v63.098C3735.707,297.794,3716.609,316.892,3693.137,316.892z"/>
		<path d="M3705.836,248.133c-0.087-0.418-0.19-0.836-0.313-1.244c-0.122-0.4-0.27-0.811-0.436-1.201
			c-0.156-0.392-0.339-0.775-0.539-1.148c-0.2-0.384-0.427-0.75-0.662-1.106c-0.235-0.348-0.488-0.696-0.758-1.026
			c-0.27-0.332-0.558-0.652-0.86-0.958c-0.306-0.296-0.628-0.592-0.959-0.861c-0.33-0.271-0.669-0.522-1.027-0.757
			c-0.356-0.235-0.722-0.453-1.095-0.654c-0.376-0.199-0.767-0.383-1.158-0.547c-0.392-0.166-0.801-0.305-1.202-0.436
			c-0.409-0.122-0.826-0.227-1.245-0.314c-0.417-0.078-0.844-0.147-1.261-0.191c-0.854-0.078-1.716-0.078-2.567,0
			c-0.428,0.044-0.854,0.113-1.271,0.191c-0.418,0.088-0.836,0.192-1.237,0.314c-0.408,0.131-0.81,0.27-1.2,0.436
			c-0.4,0.164-0.783,0.348-1.158,0.547c-0.374,0.201-0.748,0.419-1.097,0.654c-0.356,0.234-0.705,0.486-1.035,0.757
			c-0.33,0.27-0.652,0.565-0.948,0.861c-0.306,0.306-0.593,0.626-0.861,0.958c-0.271,0.33-0.531,0.679-0.767,1.026
			c-0.236,0.356-0.453,0.723-0.652,1.106c-0.201,0.373-0.384,0.757-0.549,1.148c-0.158,0.391-0.306,0.801-0.427,1.201
			c-0.13,0.408-0.236,0.826-0.313,1.244c-0.087,0.418-0.148,0.844-0.192,1.262c-0.043,0.427-0.069,0.862-0.069,1.289
			c0,0.426,0.026,0.861,0.069,1.287c0.044,0.418,0.105,0.845,0.192,1.262c0.077,0.418,0.183,0.836,0.313,1.245
			c0.122,0.4,0.27,0.81,0.427,1.201c0.164,0.392,0.347,0.783,0.549,1.157c0.199,0.375,0.416,0.74,0.652,1.098
			c0.234,0.355,0.496,0.695,0.767,1.025c0.27,0.332,0.557,0.653,0.861,0.959c0.296,0.295,0.617,0.591,0.948,0.861
			c0.331,0.27,0.679,0.521,1.035,0.757c0.349,0.235,0.723,0.453,1.097,0.653c0.375,0.199,0.758,0.383,1.158,0.547
			c0.391,0.166,0.792,0.306,1.2,0.437c0.401,0.122,0.818,0.226,1.237,0.313c0.416,0.078,0.843,0.148,1.271,0.191
			c0.426,0.043,0.852,0.061,1.279,0.061c0.427,0,0.862-0.018,1.288-0.061c0.417-0.043,0.844-0.113,1.261-0.191
			c0.418-0.088,0.836-0.191,1.245-0.313c0.401-0.131,0.811-0.271,1.202-0.437c0.392-0.164,0.782-0.348,1.158-0.547
			c0.373-0.2,0.738-0.418,1.095-0.653c0.358-0.235,0.697-0.487,1.027-0.757c0.331-0.271,0.653-0.566,0.959-0.861
			c0.304-0.306,0.592-0.627,0.86-0.959c0.271-0.33,0.523-0.67,0.758-1.025c0.235-0.357,0.461-0.723,0.662-1.098
			c0.2-0.374,0.383-0.766,0.539-1.157c0.166-0.392,0.313-0.801,0.436-1.201c0.122-0.409,0.226-0.827,0.313-1.245
			c0.088-0.417,0.147-0.844,0.192-1.262c0.044-0.426,0.061-0.861,0.061-1.287c0-0.427-0.018-0.862-0.061-1.289
			C3705.983,248.977,3705.923,248.551,3705.836,248.133z"/>
		<path d="M3658.768,248.133c-0.088-0.418-0.191-0.836-0.314-1.244c-0.122-0.4-0.27-0.811-0.434-1.201
			c-0.158-0.392-0.349-0.775-0.54-1.148c-0.2-0.384-0.427-0.75-0.663-1.106c-0.234-0.348-0.486-0.696-0.756-1.026
			c-0.271-0.332-0.565-0.652-0.861-0.958c-0.305-0.296-0.627-0.592-0.958-0.861c-0.331-0.271-0.67-0.522-1.027-0.757
			c-0.356-0.235-0.723-0.453-1.097-0.654c-0.383-0.199-0.766-0.383-1.158-0.547c-0.391-0.166-0.8-0.305-1.2-0.436
			c-0.409-0.122-0.828-0.227-1.246-0.314c-0.417-0.078-0.844-0.147-1.261-0.191c-0.853-0.078-1.716-0.078-2.567,0
			c-0.427,0.044-0.854,0.113-1.271,0.191c-0.418,0.088-0.836,0.192-1.236,0.314c-0.409,0.131-0.817,0.27-1.211,0.436
			c-0.392,0.164-0.774,0.348-1.148,0.547c-0.375,0.201-0.747,0.419-1.105,0.654c-0.348,0.234-0.697,0.486-1.027,0.757
			c-0.331,0.27-0.653,0.565-0.949,0.861c-0.306,0.306-0.592,0.626-0.87,0.958c-0.261,0.33-0.522,0.679-0.757,1.026
			c-0.235,0.356-0.454,0.723-0.652,1.106c-0.201,0.373-0.383,0.757-0.549,1.148c-0.165,0.391-0.305,0.801-0.427,1.201
			c-0.129,0.408-0.234,0.826-0.313,1.244c-0.086,0.418-0.148,0.844-0.191,1.262c-0.043,0.427-0.068,0.862-0.068,1.289
			c0,0.426,0.025,0.861,0.068,1.287c0.043,0.418,0.105,0.845,0.191,1.262c0.079,0.418,0.185,0.836,0.313,1.245
			c0.122,0.4,0.262,0.81,0.427,1.201s0.348,0.774,0.549,1.148c0.198,0.384,0.417,0.749,0.652,1.106
			c0.235,0.348,0.496,0.695,0.757,1.025c0.278,0.332,0.564,0.653,0.87,0.959c0.296,0.295,0.618,0.591,0.949,0.861
			c0.33,0.27,0.679,0.521,1.027,0.757c0.357,0.235,0.73,0.462,1.105,0.662c0.375,0.19,0.757,0.382,1.148,0.538
			c0.393,0.166,0.802,0.314,1.211,0.437c0.4,0.122,0.817,0.226,1.236,0.313c0.416,0.078,0.844,0.148,1.271,0.191
			c0.426,0.043,0.852,0.061,1.279,0.061c0.427,0,0.862-0.018,1.288-0.061c0.417-0.043,0.844-0.113,1.261-0.191
			c0.418-0.088,0.837-0.191,1.246-0.313c0.4-0.122,0.81-0.271,1.2-0.437c0.393-0.156,0.775-0.348,1.158-0.538
			c0.374-0.2,0.74-0.427,1.097-0.662c0.357-0.235,0.696-0.487,1.027-0.757c0.331-0.271,0.653-0.566,0.958-0.861
			c0.296-0.306,0.592-0.627,0.861-0.959c0.271-0.33,0.523-0.678,0.756-1.025c0.236-0.357,0.462-0.723,0.663-1.106
			c0.191-0.374,0.382-0.757,0.54-1.148c0.164-0.392,0.312-0.801,0.434-1.201c0.124-0.409,0.228-0.827,0.314-1.245
			c0.078-0.417,0.147-0.844,0.19-1.262c0.045-0.426,0.062-0.861,0.062-1.287c0-0.427-0.018-0.862-0.062-1.289
			C3658.915,248.977,3658.845,248.551,3658.768,248.133z"/>
	</g>
</g>
<g id="Calque_6">
	<g>
		<g>
			<g>
				<path d="M-2916.039,270.754l-156.808-75.166c-2.517-1.207-5.543-0.146-6.751,2.376l-18.817,39.257
					c-1.208,2.52-0.143,5.545,2.375,6.751l156.808,75.166c2.516,1.205,5.543,0.144,6.75-2.377l18.82-39.257
					C-2912.457,274.982-2913.523,271.96-2916.039,270.754z"/>
				<path d="M-2855.375,299.833l-34.645-16.606c-2.523-1.211-5.549-0.148-6.758,2.373l-18.816,39.258
					c-1.209,2.52-0.143,5.544,2.381,6.753l34.645,16.607c2.516,1.207,5.543,0.144,6.752-2.377l18.816-39.257
					C-2851.791,304.063-2852.857,301.039-2855.375,299.833z"/>
				<path d="M-2894.875,262.916c1.287,0.781,2.705,1.154,4.109,1.154c2.682,0,5.295-1.359,6.789-3.819l19.289-31.781
					c1.988-3.274,1.352-7.501-1.512-10.046l-22.844-20.31l15.857-26.131c2.273-3.745,1.082-8.625-2.664-10.898
					c-3.746-2.274-8.623-1.08-10.896,2.666l-19.291,31.783c-1.986,3.275-1.35,7.501,1.514,10.046l22.842,20.31l-15.859,26.129
					C-2899.816,255.763-2898.621,260.643-2894.875,262.916z"/>
				<path d="M-2822.84,218.422l-22.842-20.31l15.861-26.131c2.27-3.745,1.076-8.625-2.67-10.899
					c-3.744-2.274-8.623-1.08-10.898,2.666l-19.289,31.784c-1.986,3.275-1.352,7.501,1.514,10.046l22.84,20.31l-15.859,26.129
					c-2.273,3.745-1.078,8.625,2.668,10.898c1.285,0.781,2.705,1.152,4.107,1.152c2.684,0,5.297-1.357,6.789-3.818l19.291-31.781
					C-2819.342,225.195-2819.977,220.969-2822.84,218.422z"/>
			</g>
		</g>
	</g>
	<g>
		<g>
			<path d="M-3710.078,227.841c31.162,0,56.508-34.014,56.508-75.834c0-41.817-25.348-75.841-56.508-75.841
				c-31.153,0-56.502,34.023-56.502,75.841C-3766.58,193.828-3741.231,227.841-3710.078,227.841z"/>
			<path d="M-3542.473,301.61c-1.158-1.579-2.27-3.067-2.864-4.349c-12.635-27.045-47.27-58.93-103.382-59.723l-2.159-0.012
				c-55.25,0-89.627,30.197-103.381,58.47c-0.475,0.967-1.52,2.221-2.627,3.549c-1.31,1.555-2.605,3.146-3.714,4.875
				c-11.619,18.074-17.543,38.426-16.669,57.299c0.916,20.037,9.305,36.131,23.581,45.312c5.768,3.705,11.992,5.572,18.522,5.572
				c13.465,0,25.793-7.584,40.078-16.368c9.083-5.598,18.466-11.374,28.887-15.697c1.168-0.385,5.954-0.973,13.78-0.973
				c9.308,0,15.991,0.828,17.419,1.32c10.174,4.492,19.107,10.383,27.748,16.068c13.247,8.731,25.756,16.971,39.326,16.971
				c5.824,0,11.47-1.537,16.795-4.563c29.383-16.692,34.979-62.491,12.484-102.088
				C-3539.776,305.285-3541.121,303.43-3542.473,301.61z"/>
			<path d="M-3589.923,227.841c31.147,0,56.5-34.014,56.5-75.834c0-41.817-25.353-75.841-56.5-75.841
				c-31.165,0-56.511,34.023-56.511,75.841C-3646.434,193.828-3621.088,227.841-3589.923,227.841z"/>
			<path d="M-3497.123,188.9c-24.976,0-44.521,25.901-44.521,58.967c0,33.051,19.559,58.955,44.521,58.955
				c24.961,0,44.531-25.904,44.531-58.955C-3452.592,214.802-3472.15,188.9-3497.123,188.9z"/>
			<path d="M-3753.671,247.867c0-33.065-19.558-58.967-44.521-58.967c-24.965,0-44.526,25.902-44.526,58.967
				c0,33.051,19.562,58.955,44.526,58.955S-3753.671,280.918-3753.671,247.867z"/>
		</g>
	</g>
	<g>
		<path fill-rule="evenodd" clip-rule="evenodd" d="M-4035.471,392.35c-54.269,0-108.348,0-163.256,0c0,1.975,0,3.885,0,5.795
			c0,7.832,0.005,15.664-0.003,23.496c-0.009,7.791-3.391,14.02-10.656,16.482c-6.117,2.072-13.08,3.697-19.326,2.885
			c-10.534-1.367-17.697-7.525-17.875-19.816c-0.138-9.467-0.027-18.936-0.027-28.92c-6.75,0-13.508,0-21.319,0
			c0-8.244-0.014-15.996,0.002-23.748c0.046-21.658-0.063-43.318,0.217-64.975c0.193-14.949,6.429-21.771,21.422-22.34
			c6.346-0.24,9.054-2.527,11.584-7.977c10.449-22.5,21.497-44.722,32.148-67.129c1.444-3.038,3.128-3.951,6.448-3.928
			c53.317,0.356,106.637,0.615,159.955,0.685c3.994,0.005,5.842,1.369,7.548,4.741c11.876,23.476,23.997,46.828,35.896,70.292
			c1.501,2.961,3.168,4.512,6.665,4.832c9.779,0.896,16.193,7.197,16.434,16.889c0.736,29.646,1.08,59.303,1.556,88.955
			c0.01,0.627-0.243,1.256-0.408,2.051c-7.243,0.328-14.346,0.648-22,0.996c0,9.789,0,19.246,0,28.705
			c-0.001,12.195-7.547,20.154-19.947,20.5c-3.932,0.109-8.016-0.449-11.82-1.479c-10.745-2.908-13.499-7.135-13.275-18.309
			C-4035.32,411.578-4035.471,402.113-4035.471,392.35z M-4018.8,283.799c-0.727-1.959-1.215-3.506-1.862-4.982
			c-7.545-17.221-15.216-34.388-22.589-51.682c-1.415-3.319-3.198-4.299-6.681-4.318c-43.625-0.237-87.249-0.583-130.871-1.079
			c-3.374-0.039-4.909,0.804-6.169,3.994c-7.154,18.104-14.582,36.099-21.893,54.142c-0.464,1.146-0.732,2.371-1.203,3.926
			C-4146.154,283.799-4082.761,283.799-4018.8,283.799z M-3992.178,322.262c-0.03-9.43-7.547-17.246-16.539-17.195
			c-8.975,0.049-16.55,7.998-16.498,17.313c0.052,9.344,7.667,17.225,16.622,17.199
			C-3999.593,339.553-3992.146,331.699-3992.178,322.262z M-4211.341,321.514c-0.048-9.498-7.441-17.061-16.62-17
			c-9.057,0.059-16.554,7.92-16.467,17.264c0.087,9.396,7.642,17.092,16.72,17.029
			C-4218.617,338.744-4211.292,331.006-4211.341,321.514z"/>
		<path fill-rule="evenodd" clip-rule="evenodd" d="M-3979.595,114.67c-9.59,10.51-18.771,20.57-28.302,31.016
			c-2.927-3.385-5.615-6.474-8.28-9.582c-5.722-6.676-12.412-6.229-17.072,0.992c-1.29,1.999-2.815,4.461-4.81,5.248
			c-3.061,1.207-6.394,1.061-8.595-2.648c-1.762-2.97-4.216-5.531-6.757-8.776c-2.314,2.77-4.424,5.272-6.511,7.793
			c-4.682,5.657-9.785,5.438-14.012-0.444c-2.229-3.101-3.5-7.619-8.61-7.137c-1.453,0.137-2.832,1.089-4.237,1.687
			c-0.134,0.057-0.239,0.24-0.304,0.389c-5.378,12.395-15.677,15.312-27.926,14.574c-1.818-0.11-3.66,0.236-5.49,0.227
			c-3.757-0.018-6.156,1.516-8.461,4.766c-14.568,20.55-43.821,30.282-70.178,23.737c-23.612-5.863-41.515-26.439-45.146-51.889
			c-4.42-30.971,16.935-62.586,46.442-67.169c21.123-3.28,41.366,0.249,58.423,14.234c4.894,4.013,8.673,9.566,12.291,14.872
			c1.688,2.474,2.931,3.75,6.059,3.76c35.49,0.118,70.979,0.483,106.469,0.533c5.142,0.007,9.109,1.261,12.929,4.821
			C-3994.739,102.136-3987.319,108.078-3979.595,114.67z M-4183.527,113.543c-0.063-9.313-7.614-16.771-16.925-16.716
			c-9.219,0.055-16.862,7.764-16.784,16.929c0.079,9.228,7.79,16.839,16.985,16.768
			C-4191.002,130.452-4183.465,122.798-4183.527,113.543z"/>
	</g>
	<g id="XMLID_67_">
		<path id="XMLID_118_" fill="#D5B89A" d="M438.299,409.944H59.624C46.574,409.944,36,399.369,36,386.32v-261.18
			c0-13.049,10.574-23.624,23.624-23.624h378.675c13.05,0,23.625,10.575,23.625,23.624v261.18
			C461.924,399.369,451.349,409.944,438.299,409.944"/>
		<path id="XMLID_117_" fill="#E74C3D" d="M373.801,189.639c0,24.337-19.724,44.062-44.061,44.062
			c-24.344,0-44.061-19.725-44.061-44.062c0-24.336,19.717-44.062,44.061-44.062C354.077,145.577,373.801,165.302,373.801,189.639"
			/>
		<path id="XMLID_116_" fill="#F0C41B" d="M425.206,189.639c0,24.337-19.725,44.062-44.062,44.062s-44.061-19.725-44.061-44.062
			c0-24.336,19.724-44.062,44.061-44.062S425.206,165.302,425.206,189.639"/>
		<path id="XMLID_115_" fill="#E4D6B6" d="M138.809,152.921H72.718c-4.062,0-7.344,3.291-7.344,7.344
			c0,4.053,3.283,7.343,7.344,7.343h66.091c4.061,0,7.344-3.29,7.344-7.343C146.153,156.211,142.87,152.921,138.809,152.921"/>
		<path id="XMLID_114_" fill="#E4D6B6" d="M241.618,160.265c0-4.054-3.283-7.344-7.343-7.344h-66.092
			c-4.06,0-7.343,3.291-7.343,7.344c0,4.053,3.283,7.343,7.343,7.343h66.092C238.335,167.608,241.618,164.318,241.618,160.265"/>
		<path id="XMLID_113_" fill="#E4D6B6" d="M80.061,189.639h-7.343c-4.062,0-7.344,3.29-7.344,7.344c0,4.053,3.283,7.343,7.344,7.343
			h7.343c4.062,0,7.344-3.29,7.344-7.343C87.404,192.929,84.122,189.639,80.061,189.639"/>
		<path id="XMLID_112_" fill="#E4D6B6" d="M124.122,189.639h-14.687c-4.061,0-7.344,3.29-7.344,7.344
			c0,4.053,3.283,7.343,7.344,7.343h14.687c4.061,0,7.343-3.29,7.343-7.343C131.465,192.929,128.183,189.639,124.122,189.639"/>
		<path id="XMLID_111_" fill="#E4D6B6" d="M160.84,189.639h-7.344c-4.062,0-7.343,3.29-7.343,7.344c0,4.053,3.282,7.343,7.343,7.343
			h7.344c4.061,0,7.343-3.29,7.343-7.343C168.183,192.929,164.9,189.639,160.84,189.639"/>
		<path id="XMLID_110_" fill="#E4D6B6" d="M204.9,189.639h-14.687c-4.061,0-7.344,3.29-7.344,7.344c0,4.053,3.283,7.343,7.344,7.343
			H204.9c4.062,0,7.344-3.29,7.344-7.343C212.244,192.929,208.962,189.639,204.9,189.639"/>
		<path id="XMLID_109_" fill="#E4D6B6" d="M229.134,191.769c-1.402,1.395-2.203,3.231-2.203,5.214c0,1.982,0.8,3.818,2.129,5.213
			c1.388,1.322,3.305,2.13,5.214,2.13c1.909,0,3.811-0.808,5.213-2.13c1.322-1.395,2.13-3.304,2.13-5.213
			c0-1.91-0.808-3.819-2.13-5.141C236.771,189.051,231.778,189.051,229.134,191.769"/>
		<rect id="XMLID_108_" x="72.718" y="314.479" fill="#665248" width="66.091" height="44.061"/>
		<rect id="XMLID_107_" x="168.183" y="314.479" fill="#665248" width="66.092" height="44.061"/>
		<rect id="XMLID_106_" x="263.648" y="314.479" fill="#665248" width="66.092" height="44.061"/>
		<rect id="XMLID_105_" x="359.114" y="314.479" fill="#665248" width="66.092" height="44.061"/>
	</g>
</g>
<g id="Calque_5" display="none">
	<path display="inline" fill="#FD003A" d="M450.682,69.823L270.508,249.999L69.823,450.684c-5.566,5.859-14.939,5.859-20.507,0
		c-5.859-5.566-5.859-14.941,0-20.508l380.859-380.86c5.566-5.858,14.939-5.858,20.506,0
		C456.543,54.881,456.543,64.256,450.682,69.823z"/>
</g>
</svg>
