<?xml version="1.0" encoding="utf-8"?>
<!-- Generator: Adobe Illustrator 16.0.0, SVG Export Plug-In . SVG Version: 6.00 Build 0)  -->
<!DOCTYPE svg PUBLIC "-//W3C//DTD SVG 1.1//EN" "http://www.w3.org/Graphics/SVG/1.1/DTD/svg11.dtd">
<svg version="1.1" xmlns="http://www.w3.org/2000/svg" xmlns:xlink="http://www.w3.org/1999/xlink" x="0px" y="0px" width="500px"
	 height="500px" viewBox="0 0 500 500" enable-background="new 0 0 500 500" xml:space="preserve">
<g id="Calque_2" display="none">
</g>
<g id="Calque_1">
</g>
<g id="Calque_3">
</g>
<g id="Calque_4">
</g>
<g id="Calque_6">
	<g>
		<path fill="#FFFFFF" d="M447,373.584c0,6.305-5.111,11.416-11.417,11.416H64.417C58.111,385,53,379.889,53,373.584V154.416
			C53,148.111,58.111,143,64.417,143h371.166c6.306,0,11.417,5.111,11.417,11.416V373.584z"/>
		<path d="M273.334,310.772c0.346,0.028,1.045,0.081,1.391,0.109c0.013,0.764-0.679,1-1.248,1.284
			C273.44,311.816,273.37,311.122,273.334,310.772z M104.045,357.373c0.248-0.664,0.54-1.306,0.829-1.944
			c0.329,1.073,0.634,2.155,0.927,3.241c0.244,0.923,0.484,1.846,0.728,2.769c-1.179-0.012-2.358-0.024-3.541-0.036
			C103.332,360.056,103.638,358.702,104.045,357.373L104.045,357.373z M184.68,354.509c1.525,0.131,3.127,0.05,4.566,0.651
			c3.533,1.818,3.672,7.661,0.265,9.683c-1.479,0.691-3.176,0.598-4.767,0.76C184.736,361.907,184.643,358.206,184.68,354.509
			L184.68,354.509z M211.773,354.44c1.229,0.099,2.533,0.021,3.672,0.578c1.559,0.715,1.501,3.269,0.024,4.05
			c-1.139,0.577-2.439,0.621-3.675,0.826C211.773,358.076,211.786,356.258,211.773,354.44L211.773,354.44z M158.603,355.925
			c1.386-2.155,4.985-2.289,6.44-0.143c1.465,2.128,0.98,4.847,0.96,7.274c-1.235,1.184-2.524,2.814-4.429,2.676
			c-2.049-0.023-3-2.122-4.029-3.558C157.623,360.076,157.398,357.767,158.603,355.925L158.603,355.925z M129.044,354.339
			c1.936,0.324,4.173,0.231,5.733,1.614c1.518,1.557,1.428,3.884,1.932,5.868c-1.76,2.261-4.399,3.644-7.222,4.025
			c-0.113-0.627-0.228-1.248-0.31-1.879C128.89,360.768,128.975,357.548,129.044,354.339L129.044,354.339z M115.523,354.302
			c1.695,0.293,3.383,0.644,5.066,1.005c-0.264,1.391-0.582,2.774-0.984,4.136c-0.561,0.02-1.121,0.045-1.682,0.073
			c-0.762,0.003-1.526-0.004-2.286-0.008C115.609,357.771,115.568,356.038,115.523,354.302L115.523,354.302z M193.35,327.627
			c0.508-0.017,1.021-0.024,1.532-0.032c0.005,0.524,0.009,1.049,0.013,1.578c-0.529,0.007-1.061,0.017-1.586,0.023
			C193.316,328.673,193.332,328.146,193.35,327.627L193.35,327.627z M276.478,320.548c2.269-0.009,4.534-0.009,6.803,0
			c-0.098,1.24-0.163,2.479-0.211,3.725c-2.135,0.021-4.271,0.004-6.404,0.004C276.596,323.032,276.53,321.788,276.478,320.548
			L276.478,320.548z M262.929,320.531c2.27-0.013,4.538-0.049,6.807-0.033c-0.061,1.257-0.138,2.515-0.212,3.771
			c-2.155,0.049-4.31,0.016-6.464,0.024C263.029,323.037,262.989,321.784,262.929,320.531L262.929,320.531z M199.205,319.734
			c1.508,0.09,2.956,1.317,2.736,2.932c-0.061,1.436-1.443,2.245-2.753,2.285C199.156,323.211,199.16,321.471,199.205,319.734
			L199.205,319.734z M234.436,310.609c0.955-0.021,1.911,0,2.867,0.081c-0.086,1.562,0.174,3.754-1.777,4.266
			C234.261,313.85,234.484,312.11,234.436,310.609z M110.547,309.65c1.086-1.367,2.24-2.676,3.424-3.962
			c0.027,1.323,0.064,2.645,0.102,3.962C112.896,309.654,111.721,309.654,110.547,309.65z M190.701,288.729
			c2.696-0.017,5.396,0,8.097-0.017c0.073,1.464,0.118,2.928,0.09,4.393c-2.676,0.101-5.351,0.06-8.022,0.097
			C190.75,291.713,190.723,290.221,190.701,288.729L190.701,288.729z M310.639,288.395c2.553-0.146,5.124,0.126,7.674-0.183
			c0.036,1.585,0.097,3.172,0.183,4.757c-2.712,0.144-5.429,0.277-8.149,0.216c-0.036-1.553-0.041-3.11,0-4.664L310.639,288.395z
			 M276.294,286.541c0.257,0.004,0.765,0.012,1.021,0.02c2.134,0.346,4.298,0.277,6.452,0.252c0.037,2.152,0.065,4.312-0.117,6.457
			c-2.42-0.036-4.835-0.007-7.25-0.031c-0.171-0.772-0.346-1.537-0.473-2.31C275.937,289.456,276.111,287.996,276.294,286.541
			L276.294,286.541z M224.835,286.569c2.692-0.037,5.388,0.024,8.079,0.028c0,2.24,0.167,4.478,0.203,6.718
			c-2.78,0.021-5.559,0.024-8.336,0.016C224.803,291.075,224.814,288.821,224.835,286.569z M278.296,277.974
			c1.143-0.065,2.28-0.139,3.423-0.204c0.017,2.249-0.004,4.498-0.194,6.737c-0.879,0.07-1.761,0.122-2.64,0.176
			C278.686,282.446,278.584,280.201,278.296,277.974z M258.752,277.839c2.852-0.045,5.702-0.033,8.552,0.012
			c-0.021,1.447-0.126,2.892-0.272,4.335c-2.712,0.415-5.465,0.171-8.194,0.195C258.793,280.864,258.765,279.352,258.752,277.839z
			 M227.234,277.745c1.143,0.049,2.285,0.117,3.432,0.204c-0.171,2.184-0.167,4.374-0.305,6.558
			c-0.973,0.065-1.948,0.126-2.92,0.184C227.323,282.377,227.234,280.063,227.234,277.745L227.234,277.745z M361.541,179.433
			c1.432-0.63,3.021-0.703,4.551-0.948c-0.013,1.456-0.017,2.916,0.028,4.372c-1.383,0.602-2.933,1.199-4.452,0.821
			C359.846,183.146,359.817,180.133,361.541,179.433z M267.45,179.762c1.513-0.89,3.31-0.967,4.993-1.28
			c0.041,1.423,0.061,2.842,0.081,4.265c-1.646,0.695-3.907,1.802-5.437,0.317C266.783,182.023,266.445,180.531,267.45,179.762
			L267.45,179.762z M246.565,176.615c1.948,0.069,4.042-0.224,5.852,0.675c1.915,0.979,1.61,4.164-0.317,4.964
			c-1.744,0.749-3.7,0.436-5.543,0.603C246.557,180.775,246.557,178.697,246.565,176.615z M410.419,175.66
			c0.512-1.48,1.276-3.12,2.858-3.685c1.24-0.354,2.911-0.174,3.652,1.029c0.523,0.842,0.788,1.81,1.093,2.745
			C415.485,175.818,412.952,175.708,410.419,175.66z M246.549,172.496c0.025-1.834-0.028-3.672,0.127-5.502
			c1.342,0.208,2.744,0.204,4.033,0.667c1.76,0.516,1.744,3.045,0.639,4.196C249.852,172.52,248.143,172.346,246.549,172.496z
			 M46.892,152.668c0.098-8.71,7.942-16.477,16.644-16.542c123.896-0.012,247.791,0.167,371.688-0.07
			c4.855-0.097,9.889,1.408,13.402,4.88c3.359,3.245,5.307,7.905,5.307,12.573c0,73.462-0.082,146.929,0,220.391
			c0.082,6.275-3.831,12.172-9.251,15.148c-1.684,1.049-3.688,1.365-5.403,2.341H62.088c-0.801-0.377-1.631-0.69-2.488-0.914
			c-6.648-1.916-12.041-7.99-12.703-14.939C46.884,301.253,46.912,226.957,46.892,152.668 M302.262,161.712
			c0.065,8.511-0.224,17.03,0.164,25.537c1.85,0.04,3.699,0.012,5.55,0.008c-0.005-2.68-0.167-5.392,0.468-8.023
			c2.305,2.342,3.672,5.375,5.521,8.052c2.273-0.041,4.546,0,6.819-0.062c-2.347-3.472-4.688-6.949-6.965-10.467
			c2.143-2.603,4.325-5.18,6.318-7.905c-2.269-0.008-4.538,0.004-6.803,0.102c-1.699,2.371-3.444,4.709-5.308,6.95
			c-0.085-4.729-0.027-9.458-0.027-14.188C306.085,161.716,304.173,161.716,302.262,161.712 M240.4,162.863
			c-0.016,8.133-0.028,16.265-0.04,24.398c4.514-0.118,9.063,0.342,13.549-0.357c4.127-0.578,7.201-5.188,5.819-9.202
			c-0.5-2.017-2.505-2.985-4.193-3.855c2.428-1.838,3.745-5.481,2.087-8.23c-1.163-2.017-3.668-2.363-5.759-2.675
			C248.05,162.583,244.219,162.997,240.4,162.863 M331.072,162.863c0,8.133-0.005,16.265-0.021,24.398
			c1.875,0,3.754,0.008,5.636-0.012c-0.008-5.559-0.081-11.114,0.024-16.672c3.453,5.375,6.206,11.159,9.446,16.655
			c1.911,0.037,3.822,0.033,5.733,0.041c0.228-8.137,0.09-16.273,0.086-24.41c-1.817-0.007-3.632-0.016-5.444-0.024
			c-0.078,4.506,0.048,9.012-0.188,13.513c-2.817-4.314-5.135-8.942-7.632-13.448C336.168,162.818,333.617,162.879,331.072,162.863
			 M262.64,169.113c-0.199,1.513-0.293,3.034-0.354,4.554c2.537-0.732,5.213-1.891,7.885-1.183c1.301,0.292,2.155,1.399,2.691,2.55
			c-3.314,0.471-6.986,0.26-9.841,2.289c-2.09,1.452-2.492,4.424-1.777,6.713c0.692,2.407,3.205,4.095,5.689,3.916
			c1.96-0.114,3.636-1.265,5.262-2.252c0.285,0.529,0.573,1.057,0.866,1.589c1.699-0.003,3.4-0.016,5.1-0.04
			c-0.069-4.596,0.162-9.194-0.093-13.785c-0.106-2.281-2.07-4.05-4.169-4.627C270.215,167.848,266.304,168.198,262.64,169.113
			 M380.767,170.719c0.021-0.61,0.045-1.22,0.073-1.83c-1.899,0.004-3.793,0-5.692,0.041c0.012,6.104-0.073,12.203,0.094,18.307
			c1.862,0.052,3.729,0.008,5.595-0.013c0.033-4.448,0.009-8.896-0.028-13.346c1.045-0.341,2.09-0.727,3.199-0.829
			c0.899-0.081,1.818,0.594,1.889,1.521c0.584,4.192,0.141,8.429,0.275,12.638c1.928-0.012,3.858,0.004,5.79-0.089
			c-0.105-4.417-0.044-8.828-0.085-13.244c1.155-0.386,2.326-0.87,3.566-0.821c0.996,0.069,1.582,1.078,1.578,2
			c0.398,4.03,0.064,8.092,0.159,12.134c1.914-0.012,3.829-0.044,5.749-0.065c-0.069-3.887,0.016-7.775-0.036-11.662
			c-0.077-1.659-0.065-3.453-1.037-4.884c-0.847-1.407-2.432-2.273-4.071-2.253c-2.479-0.183-4.461,1.549-6.355,2.892
			c-1.235-1.314-2.61-2.928-4.587-2.892C384.536,168.084,382.617,169.576,380.767,170.719 M287.444,170.637
			c-0.057-0.601-0.118-1.203-0.175-1.805c-1.858-0.003-3.716,0.017-5.575-0.024c-0.097,6.144,0.005,12.292-0.041,18.441
			c1.92,0.028,3.839,0.016,5.763,0.016c0.021-4.518-0.061-9.04,0.028-13.558c1.731-0.414,3.55-0.687,5.29-0.138
			c0.618,4.538,0.443,9.129,0.452,13.695c1.886,0,3.772,0.028,5.66-0.033c0.179-4.656,0.383-9.336-0.094-13.983
			c-0.208-2.566-2.342-4.998-5.034-4.928C291.355,168.015,289.307,169.394,287.444,170.637 M356.072,169.154
			c-0.013,1.431-0.028,2.862-0.049,4.293c2.5-0.581,5.075-1.618,7.664-1.016c1.347,0.28,2.232,1.407,2.803,2.578
			c-3.412,0.578-7.259,0.289-10.122,2.562c-3.207,2.619-2.188,8.58,1.75,9.926c2.816,1.219,5.676-0.517,7.97-2.053
			c0,0.589,0.008,1.179,0.016,1.768c1.875-0.004,3.749,0,5.624-0.004c-0.113-4.473,0.105-8.945-0.102-13.419
			c-0.032-2.236-1.757-4.25-3.875-4.839C363.932,167.868,359.895,168.356,356.072,169.154 M408.71,170.056
			c-4.813,3.672-5.118,12.146-0.101,15.773c4.285,2.761,9.792,2.143,14.375,0.48c0.072-1.606,0.04-3.217,0.044-4.827
			c-2.911,1.581-6.445,3.094-9.718,1.691c-1.729-0.585-2.278-2.485-2.778-4.038c4.299-0.003,8.597,0.004,12.896-0.008
			c-0.204-2.606,0.016-5.493-1.595-7.729c-1.497-2.257-4.331-3.164-6.933-3.078C412.753,168.393,410.467,168.71,408.71,170.056
			 M89.813,212.452c0.149,7.494-0.252,14.993,0.195,22.479c6.196-0.089,12.394-0.089,18.586-0.098
			c0.77-1.276,1.749-2.416,2.498-3.696c0.43-1.241,0.528-2.57,1.037-3.782c0.031,1.265,0.113,2.538,0.035,3.806
			c-0.666,1.464-1.972,2.558-2.626,4.038c0.122,3.054,0.983,6.018,2.175,8.816c3.758,4.058,10.406,4.745,15.135,2.033
			c5.055-3.07,6.348-10.926,2.188-15.261c0.028-1.02,0.016-2.045-0.081-3.061c1.264-1.412,1.923-3.225,2.818-4.872
			c1.113,0.102,2.231,0.175,3.354,0.232c5.359,0.163,10.723,0,16.082-0.098c-0.036-4.168,0.448-8.414-0.475-12.521
			c-1.062-3.237-4.018-6.021-7.56-6.018c-14.884-0.13-29.771,0-44.652-0.037C94.122,204.25,89.902,207.995,89.813,212.452
			 M131.906,223.675c-0.825,2.054-2.269,3.994-2.179,6.299c0.724,1.773,2.028,3.225,3.069,4.815
			c6.12-0.082,12.24-0.147,18.364-0.188c0.012-3.586,0.017-7.177-0.04-10.763C144.716,223.817,138.312,223.7,131.906,223.675
			 M89.813,235.679c-0.017,3.64-0.021,7.279-0.029,10.922c7.828,0.224,15.811-0.919,23.488,1.102
			c-3.363-2.936-5.051-7.474-4.762-11.895C102.275,235.875,96.042,235.663,89.813,235.679 M131.875,242.559
			c-0.798,2.11-2.587,3.574-4.047,5.213c3.123-0.366,6.156-1.391,9.32-1.407c4.684-0.037,9.373,0.069,14.053-0.138
			c-0.036-3.326-0.053-6.648-0.012-9.975c-6.051-0.008-12.105,0.077-18.148-0.333C132.766,238.144,132.659,240.433,131.875,242.559
			 M89.657,248.061c1.103,2.794,2.956,5.717,6.051,6.514c3.147,0.685,6.429,0.478,9.608,0.131c4.514,0.813,9.117,0.171,13.672,0.22
			c-0.004-1.973,0.057-3.944,0.076-5.913c-3.37-0.134-6.749-0.065-10.107-0.374l0.451-0.31
			C102.832,247.915,96.241,248.037,89.657,248.061 M122.33,249.024c0.004,1.924,0.053,3.851,0.257,5.77
			c6.884,0.338,13.784,0.167,20.673,0.11c3.822-0.094,6.803-3.302,7.889-6.766c-5.867,0.191-11.768-0.395-17.611,0.325
			C129.861,249.309,126.071,249.118,122.33,249.024 M205.507,275.643c0.208,1.362,0.542,2.725,1.286,3.904
			c2.199-2.737,5.965-1.306,8.941-1.563c0.158,1.461,0.334,2.92,0.508,4.384c-1.748,1.469-3.525,2.911-5.168,4.494
			c-0.252,1.468-0.069,3.005-0.187,4.497c-0.033,1.484,0.134,3.534,1.744,4.155c0.265-2.398,0.351-4.81,0.333-7.217
			c2.289-1.834,5.686-3.822,5.014-7.279c0.07-1.782,0.118-3.562,0.041-5.343C213.848,275.757,209.68,275.724,205.507,275.643
			 M257.117,275.753c0.013,2.854-0.072,5.708,0.175,8.555c3.237,0.185,6.482,0.127,9.719-0.027c0.053,1.915,0.077,3.839,0.248,5.749
			c-0.883,1.582-0.979,3.445-1.439,5.173c1.122,0.151,2.253,0.22,3.383,0.216c0.614-6.535,0.301-13.105,0.249-19.657
			C265.344,275.444,261.225,275.582,257.117,275.753 M345.04,275.757c-0.024,2.599-0.154,5.204,0.044,7.799
			c0.005,1.001,0,1.997-0.031,2.997c2.415,0.122,4.854-0.045,7.246,0.399c-0.135,2.004,0.537,4.236-0.443,6.082
			c-3.384,0.875-6.746-0.438-10.027-1.098c0.594,1.392,1.752,2.51,3.212,2.957c2.879,0.931,5.945,0.324,8.91,0.426
			c0.532-2.943,0.728-5.965,0.491-8.945c-0.016-0.524-0.029-1.045-0.032-1.562c-2.42-0.3-4.852-0.451-7.283-0.562
			c0.013-2.106,0.028-4.209,0.061-6.312c2.25-0.044,4.502,0.037,6.755-0.007c0.423,0.052,0.703-0.123,0.842-0.517l-0.297,0.081
			c-0.085-0.362-0.248-1.081-0.329-1.443C351.119,275.879,348.069,276.001,345.04,275.757 M361.009,275.398
			c-0.276,3.131-0.293,6.295,0.024,9.426c-0.064,1.204-0.078,2.407-0.085,3.615c2.285-0.064,4.578-0.171,6.863,0.032
			c1.883,2.021-0.256,5.274,1.81,7.173c0.139-2.109,0.062-4.225,0-6.334c0.284-0.31,0.564-0.623,0.842-0.936
			c0.98-0.956-0.716-2.014-0.866-3.055c0.553-2.009,0.724-4.14,0.606-6.217c-0.029-0.989-1.29-1.054-1.936-1.424
			c0.007,2.847,0.305,5.681,0.341,8.527l-0.269-0.032c-1.532,1.391-3.717,0.988-5.607,1.118c0.122-3.749,0.221-7.502,0.257-11.252
			c-0.188,0.064-0.558,0.191-0.744,0.256C361.83,275.988,361.424,275.691,361.009,275.398 M138.9,288.684
			c2.477,0.024,4.957,0.057,7.438,0.024c0.277,1.813-0.346,3.681,0.184,5.465c0.191,0.801,0.984,1.155,1.662,1.472
			c0.111-2.109,0.119-4.225,0.05-6.339c0.517-0.549,1.041-1.09,1.565-1.631c-0.613-0.503-1.232-1.003-1.854-1.492
			c-0.118-2.898,0.338-5.978-0.72-8.734c-1.105,2.976-0.459,6.188-0.919,9.264c-1.87-0.02-3.741,0.049-5.611-0.054
			c0.024-3.411,0.036-6.827,0.086-10.242c-0.594-0.265-1.188-0.537-1.778-0.802C138.966,279.974,139.056,284.328,138.9,288.684
			 M174.588,276.082c-0.058,3.485,0.031,6.97-0.143,10.454c2.46,0.013,4.924-0.028,7.384-0.008c0.028,2.167,0.041,4.335,0.054,6.502
			c-3.566,0.436-7.234,0.123-10.585-1.22c0.638,1.57,1.952,2.867,3.655,3.196c2.766,0.554,5.607,0.131,8.396-0.033
			c0.598-3.354,0.646-6.835-0.085-10.173c-2.339-0.049-4.673-0.179-7.01-0.11c-0.334-2.261-0.477-4.551-0.472-6.836
			c2.565-0.061,5.135-0.113,7.697,0.058c0-0.605,0-1.208,0.004-1.811C180.52,276.115,177.552,276.122,174.588,276.082
			 M188.975,275.985c0.247,6.343-0.607,12.702,0.174,19.025c3.848,0.317,7.702,0.024,11.553,0.073c0.18-2.684,0.139-5.38,0.24-8.067
			c-3.388-0.488-6.812-0.317-10.219-0.342c-0.004-2.757-0.069-5.506-0.073-8.259c0.521-0.69,1.036-1.378,1.55-2.069
			C191.125,276.204,190.051,276.085,188.975,275.985 M225.53,276.078c0.032,2.676,0.017,5.355-0.122,8.027
			c-0.748,0.325-1.492,0.646-2.24,0.963c-0.517,2.843-0.244,5.737-0.163,8.604c0.456,0.407,0.911,0.818,1.362,1.232
			c3.262,0.041,6.519-0.005,9.779,0.082c0.956-3.254,0.947-6.674,0.717-10.028c-0.834-0.085-1.664-0.166-2.494-0.244
			c-0.076-2.826-0.146-5.652-0.023-8.474C230.076,276.091,227.803,276.111,225.53,276.078 M276.811,275.907
			c0.025,2.672,0.045,5.348-0.028,8.023c-0.797,0.377-1.586,0.776-2.366,1.187c-0.248,2.229-0.199,4.469-0.268,6.709
			c0.202,1.225,0.202,3.237,1.825,3.404c3.265,0.109,6.62,0.553,9.828-0.277c0.719-3.175,1.041-6.498,0.269-9.697l0.008-0.244
			c-0.711-0.158-1.419-0.313-2.131-0.468c-0.739-2.757-0.484-5.619-0.512-8.438C281.223,276.126,279.015,276.062,276.811,275.907
			 M291.234,275.78c0.114,1.086,0.239,2.168,0.37,3.25c2.973-1.721,6.489-1.232,9.764-1.163c-0.073,1.521,0.121,3.103-0.273,4.582
			c-1.269,1.733-3.123,2.896-4.673,4.353c0.055,1.244,0.095,2.484,0.159,3.728c-0.305,1.611-0.292,3.286-0.094,4.913
			c0.659-0.144,1.322-0.28,1.981-0.432c-0.049-2.338,0.126-4.668,0.081-7.006c1.464-1.534,3.781-2.318,4.599-4.416
			c0.403-2.497,0-5.039-0.207-7.539C299.038,276.099,295.122,276.225,291.234,275.78 M308.357,275.65
			c0.033,4.579-0.13,9.158,0.143,13.729c-0.19,1.456-0.492,2.939-0.248,4.411c0.158,0.644,0.549,1.509,1.346,1.469
			c3.525,0.236,7.063,0.04,10.598,0.102c0.227-2.477,0.162-4.973,0.028-7.453c-0.236,0.036-0.708,0.109-0.944,0.146
			c0.549-0.15,1.074-0.375,1.611-0.577c-3.444-1.074-7.08-0.749-10.63-0.805c0.032-2.515,0.037-5.03,0.032-7.545
			c-0.065-1.133,0.947-1.89,1.488-2.784C310.644,276.085,309.5,275.858,308.357,275.65 M376.343,275.773
			c0.272,0.581,0.558,1.167,0.834,1.757c3.143,0.72,6.371,0.268,9.556,0.252c-0.009,0.756-0.113,1.525,0.005,2.276
			c-0.396,1.558-0.537,3.164-0.92,4.725c-2.24-0.044-4.481-0.161-6.718-0.256c0.184,0.643,0.37,1.286,0.565,1.933
			c1.857,0.027,3.823,0.232,5.6-0.46c1.586,1.955,1.582,4.594,1.105,6.945c-3.224,0.54-6.493,0.191-9.734,0.023
			c0.105,0.802,0.231,1.603,0.391,2.396c3.675-0.021,7.352-0.004,11.028,0.005c0.78-3.44,0.951-7.104-0.082-10.516l0.329-0.139
			c0.082-0.78,0.155-1.562,0.224-2.342c-0.045-2.038-0.041-4.071-0.064-6.107C384.446,275.684,380.381,275.797,376.343,275.773
			 M393.364,275.769c0.26,0.602,0.533,1.212,0.797,1.818c3.148,0.589,6.348,0.239,9.527,0.235c0.106,1.903,0.196,3.811,0.253,5.713
			c-2.997,2.114-6.775,0.484-10.113,0.822c-0.045,3.663-0.105,7.331-0.016,10.996c4.013-0.01,8.026,0.023,12.04-0.018
			c-0.269-0.728-0.537-1.455-0.81-2.183c-3.136,0.036-6.274,0.023-9.409,0c-0.184-2.063-0.049-4.137-0.135-6.201
			c3.196-0.155,6.401-0.01,9.601-0.082c0.228-1.493,0.371-2.997,0.468-4.506c0-2.061-0.072-4.127-0.247-6.181
			C401.348,275.744,397.354,275.794,393.364,275.769 M85.921,276.229c1.171,2.005,3.745,1.577,5.7,1.74
			c-0.053,5.066,0.037,10.134-0.195,15.195c-1.825,0.01-3.654,0.017-5.48,0.037c0.365,0.639,0.748,1.265,1.146,1.883
			c3.717,0.276,7.449,0.098,11.174,0.139c0.123-2.606,0.058-5.214,0.09-7.82c-0.561-0.305-1.122-0.605-1.684-0.906
			c-0.122,2.229-0.139,4.461-0.365,6.685c-0.992,0.013-1.989,0.028-2.98,0.045c-0.066-5.705-0.078-11.409-0.046-17.114
			C90.824,276.119,88.368,276.041,85.921,276.229 M102.987,276.225c0.46,0.483,0.833,1.089,1.419,1.443
			c3.094,0.256,6.214,0.021,9.316,0.203c-0.029,2.216-0.135,4.428-0.212,6.645c-3.269,0.438-6.571,0.207-9.856,0.216
			c-0.184,3.501-0.346,7.01-0.229,10.516c3.985-0.069,7.975,0.062,11.959-0.109c0.013-0.626,0.021-1.254,0.025-1.875
			c-3.363-0.164-6.734,0-10.097-0.106c-0.013-2.228-0.074-4.452-0.099-6.681c3.111,0.021,6.223-0.016,9.333,0.057
			c0.995-3.342,1.036-6.937,0.208-10.315C110.836,276.159,106.907,275.992,102.987,276.225 M119.854,276.452
			c3.139,2.447,7.274,0.972,10.89,1.338c-0.231,2.309,0.561,4.978-1.15,6.876c-2.388,0.028-4.774,0.041-7.158,0.167
			c1.807,2.749,5.43,1.382,8.129,1.724c0.025,2.203,0.029,4.407-0.085,6.607c-3.485,0.017-6.97,0-10.454,0.025
			c0.32,0.581,0.598,1.203,1.053,1.695c0.541,0.35,1.252,0.253,1.875,0.333c3.01,0.074,6.021,0.029,9.031-0.097
			c0.793-3.119,0.521-6.344,0.068-9.486c0.127-3.087,0.473-6.182,0.266-9.28C128.166,276.119,123.985,275.866,119.854,276.452
			 M93.277,305.445c1.207-0.171,2.398-0.541,3.627-0.521c0.914,0.017,1.622,0.983,1.395,1.865c-0.533,2.665-2.875,4.336-4.607,6.227
			c-0.023,0.477-0.049,0.952-0.073,1.432c2.347,0.041,4.696,0.024,7.039-0.134c-1.265-1.611-3.583-0.879-5.348-1.127
			c1.31-1.602,3.021-2.903,3.965-4.777c0.536-1.078,0.785-2.493-0.009-3.51C97.811,302.953,94.379,303.253,93.277,305.445
			 M101.23,305.205c1.703,0.158,4.18-1.154,5.273,0.712c-0.049,1.716-1.968,2.269-3.037,3.269c0.923,0.082,1.847,0.16,2.773,0.229
			c0.121,1.229,0.765,2.968-0.524,3.781c-1.513,0.606-3.11-0.232-4.652-0.321c1.358,2.839,6.222,2.379,6.966-0.694
			c0.473-1.392-0.667-2.543-1.33-3.636c0.627-1.094,1.851-2.565,0.777-3.773C105.846,302.843,102.768,303.48,101.23,305.205
			 M108.888,310.69c1.704,0.102,3.407,0.15,5.11,0.199c0.009,1.18,0.017,2.367,0.021,3.551c0.292,0.004,0.874,0.012,1.166,0.015
			c0.102-1.54-0.076-3.472,1.529-4.329c-0.451-0.249-0.902-0.492-1.35-0.74c-0.057-1.98-0.041-3.965-0.143-5.941
			C112.482,305.214,110.331,307.779,108.888,310.69 M86.218,305.767c0.626,0.305,1.265,0.589,1.911,0.862
			c0.113,1.895,0.581,3.85,0.064,5.722c-0.248,0.918-1.146,1.333-1.92,1.728c1.839,0.594,3.803,0.541,5.689,0.22
			c-0.565-0.667-1.297-1.135-2.135-1.379c-0.094-3.05-0.041-6.099-0.036-9.149C88.609,304.449,87.422,305.116,86.218,305.767
			 M233.109,311.032c-0.35-0.451-0.695-0.902-1.036-1.354c-0.931,0.289-1.387,1.146-1.956,1.858
			c-0.663,0.18-0.915-0.614-1.322-0.967c0.22-0.713-1-1.131-1.24-0.416c-0.682,1.896-0.869,4.237,0.537,5.864
			c0.143-1.203,0.229-2.415,0.362-3.623c0.476,0.517,0.874,1.094,1.24,1.699c0.468-0.594,0.979-1.146,1.55-1.638
			c0.117,1.15,0.211,2.302,0.332,3.451c0.452-0.613,0.896-1.24,1.338-1.866c1.156,0.717,2.281,2.269,3.803,1.623
			c2.672-1.028,2.558-5.713-0.317-6.364C234.98,308.836,234.058,310.26,233.109,311.032 M239.588,309.175
			c0.113,1.947,0.305,3.891,0.284,5.847c0.321-1.139,0.521-2.302,0.699-3.469c0.892,1.436,1.599,3.009,2.802,4.225
			c0.208-2.021,0.135-4.054,0.171-6.079c-0.194,0.077-0.585,0.24-0.78,0.321c-0.045,0.85-0.086,1.7-0.139,2.55
			C241.396,311.65,240.657,310.256,239.588,309.175 M244.031,309.678c0.729,0.264,1.623,0.53,1.859,1.379
			c0.419,1.399,0.154,2.887,0.175,4.326c0.208,0,0.63-0.004,0.838-0.004c0.056-1.605-0.423-3.411,0.472-4.859
			c0.48-0.788,1.476-0.479,2.236-0.553c-0.402,1.952-0.346,4.059,0.406,5.921c0.146-1.062,0.24-2.131,0.342-3.196
			c0.85-0.036,1.7-0.073,2.558-0.105c0.017,0.764-0.068,1.549,0.105,2.306c0.55,0.765,1.249,1.411,1.903,2.09
			c0.847-2.321,1.138-4.867,2.518-6.975c1.687,1.461,1.862,3.778,2.347,5.804c0.471-1.428,0.41-3.018,1.117-4.367
			c0.289-0.451,1.009-1.139,1.541-0.663c0.598,1.456,0.302,3.082,0.362,4.619c1.252-0.062,2.509-0.093,3.762,0.033
			c-0.041-0.143-0.118-0.427-0.159-0.565c-1.293-0.036-3.054-0.252-3.176-1.871c1.114-0.305,2.24-0.545,3.376-0.789
			c-1.201-0.313-2.636-0.257-3.4-1.403c1.163-0.394,2.358-0.688,3.546-0.995c-1.725-0.346-3.496-0.671-5.249-0.329
			c-0.55,0.698-1.099,1.39-1.635,2.098c-0.911-1.062-1.937-2.05-3.274-2.533c-0.735,2.082-1.081,4.282-1.829,6.355
			c-0.248,0.024-0.744,0.068-0.997,0.093c-0.036-2.094,0.18-4.257-0.523-6.266c-0.184,0.879-0.334,1.766-0.484,2.651
			c-0.744-0.012-1.483-0.021-2.224-0.024c-0.15-0.674-0.302-1.341-0.451-2.013C248.155,309.182,246.021,309.386,244.031,309.678
			 M269.15,309.117c-0.403,0.92-0.801,1.842-1.354,2.684c0.833-0.146,1.668-0.021,2.489,0.149
			C269.926,311.004,269.813,309.922,269.15,309.117 M272.033,315.192c0.261,0.004,0.784,0.008,1.045,0.012
			c-0.017-0.789-0.028-1.573-0.037-2.357c1.144,0.91,2.241,1.878,3.437,2.728c-0.406-0.78-0.85-1.541-1.297-2.297
			c0.305-1.192,0.492-2.408,0.472-3.636c-1.105-0.09-2.208-0.179-3.31-0.28C272.103,311.297,272.196,313.253,272.033,315.192
			 M266.779,314.506c0.154,0.215,0.317,0.435,0.479,0.649c0.61-0.614,1.289-1.162,1.997-1.662c0.813,0.687,1.488,1.783,2.692,1.728
			c-0.457-1.036-0.96-2.046-1.46-3.059c-0.651,0.403-1.302,0.806-1.957,1.201c0.013-0.383,0.029-1.152,0.037-1.534
			C267.662,312.492,267.341,313.586,266.779,314.506 M181.269,318.958c0.183,1.943,0.724,3.839,1.594,5.587
			c0.228,0.337,0.289,0.968,0.821,0.936c0.854-2.091,1.626-4.221,2.176-6.413c-1.123,1.358-1.77,3.005-2.587,4.546
			C182.695,322.024,182.139,320.418,181.269,318.958 M198.343,319.234c-0.049,2.103-0.021,4.205-0.008,6.311
			c1.272-0.058,2.64-0.219,3.671-1.036c1.025-0.814,1.086-2.358,0.655-3.489C201.783,319.526,199.876,319.429,198.343,319.234
			 M221.285,319.006c0.029,0.477,0.064,0.956,0.102,1.436c1.338,0.004,2.672,0.045,4.01,0.11c-0.065,4.094-0.082,8.193-0.313,12.28
			c-1.473-0.004-2.949,0.009-4.413,0.122c2.83,2.334,6.604,0.749,9.882,0.988c-0.004-2.07,0.048-4.144,0.064-6.214
			c-0.476,0.017-0.947,0.036-1.419,0.062c-0.032,1.496,0.358,3.118-0.337,4.518c-0.44,0.797-1.412,0.902-2.217,1.004
			c-0.004-4.766-0.256-9.523-0.199-14.288C224.725,318.962,223.001,319.011,221.285,319.006 M253.218,324.472
			c-1.757,3.249-4.358,6.185-4.912,9.954c3.814-4.672,7.03-9.901,9.117-15.577C255.336,320.113,254.418,322.471,253.218,324.472
			 M187.701,319.449c-0.83,1.965-1.484,3.998-2.103,6.038c0.736-0.65,1.456-1.317,2.159-2c1.058,0.468,2.094,0.984,3.131,1.497
			c-0.771-1.086-1.154-2.351-1.289-3.665c-0.496,0.571-0.972,1.155-1.436,1.753c-0.324-0.577-0.654-1.15-0.979-1.719
			c0.635-0.314,1.294-0.591,1.899-0.965C189.313,319.701,188.104,319.775,187.701,319.449 M190.954,325.065
			c1.96,0.216,3.929,0.313,5.9,0.35c-0.265-1.996-0.276-4.018-0.024-6.015c-0.398,0-1.191,0.005-1.586,0.005
			c0.301,1.765,0.557,3.537,0.707,5.326c-1.357-0.041-2.711-0.13-4.063-0.264c-0.004-1.798,0.143-3.645-0.479-5.368
			C190.881,321.044,191.084,323.076,190.954,325.065 M234.191,319.482c2.473,1.923,5.693,0.776,8.535,0.943
			c-0.036,1.883-0.02,3.769-0.142,5.652c-2.562-0.106-5.132-0.313-7.682,0.024c-0.398,2.635-0.163,5.302-0.135,7.953
			c3.151,0.004,6.304-0.057,9.45-0.253c-2.492-1.495-5.505-0.553-8.234-0.78c0.025-1.854,0.065-3.709,0.135-5.563
			c2.529,0.013,5.055-0.094,7.584-0.084c0.414-2.575,0.483-5.201,0.35-7.805C240.771,319.352,237.473,319.226,234.191,319.482
			 M261.807,325.695c2.558,0.058,5.115,0.045,7.673,0.049c-0.028,2.688-0.338,5.363-0.744,8.015
			c0.716,0.464,1.509,0.776,2.351,0.947c0.626-5.021,0.597-10.097,0.496-15.147c-0.212-0.064-0.635-0.198-0.846-0.264
			c-2.977,0.069-5.949,0.024-8.922-0.021C261.778,321.414,261.794,323.557,261.807,325.695 M275.354,319.263
			c-0.048,2.139-0.016,4.281-0.003,6.42c2.586,0.065,5.176,0.013,7.75,0.305l0.065,0.232c-0.396,2.591-0.566,5.214-0.851,7.819
			c0.728,0.224,1.456,0.432,2.196,0.63c0.598-5.05,0.646-10.157,0.509-15.231c-0.204-0.049-0.606-0.146-0.811-0.195
			C281.26,319.344,278.308,319.263,275.354,319.263 M204.637,323.833c-0.012,1.964-0.016,3.925-0.008,5.889
			c2.298-0.874,4.611-1.741,6.824-2.814c0.016-0.089,0.053-0.269,0.072-0.357C209.257,325.578,206.947,324.707,204.637,323.833
			 M188.611,329.111c1.021,0.842,1.497,2.057,1.533,3.367c0.265,0.017,0.797,0.048,1.066,0.064
			c-0.005-2.094-0.049-4.188-0.131-6.282C190.234,327.191,189.693,328.412,188.611,329.111 M181.061,327.037
			c0.646,0.175,1.294,0.339,1.948,0.517c0.081,1.811,0.118,3.623,0.345,5.429c0.77-2.086-0.137-4.811,1.896-6.323
			C183.855,326.813,182.456,326.923,181.061,327.037 M186.42,332.56c0.285-0.017,0.854-0.044,1.139-0.061
			c0.122-0.77,0.248-1.533,0.383-2.294l0.435,0.085c0.293-1.504-0.605-2.777-1.257-4.042
			C186.16,328.217,186.424,330.445,186.42,332.56 M192.178,326.647c0.033,2.106,0.033,4.225,0.301,6.323
			c0.488-0.777,0.92-1.582,1.322-2.403c1.008,0.837,2.021,1.667,3.099,2.415c-0.439-0.988-0.907-1.964-1.366-2.937
			c0.342-0.557,0.683-1.109,1.021-1.663c-0.306-0.572-0.61-1.143-0.907-1.715C194.492,326.623,193.332,326.623,192.178,326.647
			 M201.177,326.887c-0.017,1.668-0.105,3.33-0.345,4.985c-0.713,0.086-1.668,0.317-2.021-0.52
			c-0.488-1.392-0.109-2.912-0.264-4.353c-0.245-0.048-0.725-0.146-0.969-0.195c0.073,1.749,0.09,3.515,0.436,5.242
			c1.041,0.432,2.207,0.562,3.307,0.231c1.057-1.59,0.625-3.602,0.73-5.396C201.836,326.883,201.396,326.887,201.177,326.887
			 M87.266,354.64c-1.361,3.014-1.788,6.71-0.373,9.783c1.732,3.933,7.734,5.129,10.63,1.806c0.374,0.479,0.747,0.964,1.126,1.444
			c0.634,0.085,1.273,0.171,1.906,0.264c0.563-1.41,1.146-2.806,1.68-4.225c1.7-0.024,3.396,0.077,5.096,0.154
			c0.451,1.179,0.801,2.411,1.455,3.502c0.729,0.491,1.713,0.402,2.546,0.621c-1-3.338-2.081-6.66-3.313-9.922
			c-0.688-1.825-1.326-3.663-1.969-5.506c-0.861-0.037-1.72-0.077-2.578-0.118c-0.398,1.176-0.873,2.331-1.11,3.555
			c-1.431,3.082-2.487,6.34-3.151,9.678c-0.443,0.036-0.886,0.077-1.329,0.122c-0.044-0.569-0.09-1.143-0.138-1.708
			c-1.514,0.158-2.68,1.265-4.132,1.599c-1.688,0.349-3.497-0.569-4.245-2.115c-1.248-2.252-0.375-4.858-0.281-7.263
			c1.11-0.902,2.245-2.077,3.773-2.109c1.867,0.012,3.375,1.228,4.953,2.062c-0.203-1.244-0.113-3.151-1.688-3.506
			C93.094,351.423,89.621,352.489,87.266,354.64 M113.186,352.524c-0.18,2.592,0.586,5.304-0.094,7.8
			c0.057,0.005,0.176,0.005,0.232,0.005l-0.143,0.102c-0.261,2.338-0.053,4.684,0.028,7.026c0.699,0.37,1.492,0.357,2.261,0.309
			c0.22-1.776,0.199-3.563,0.191-5.347l0.646-0.411c-0.094-0.057-0.285-0.175-0.378-0.231c0.325-0.064,0.976-0.191,1.301-0.256
			c1.415,2.257,3.294,4.168,4.953,6.241c1.021,0.009,2.041,0.013,3.062,0.013c-1.432-2.164-3.154-4.104-4.944-5.974
			c1.009-1.554,2.183-3.119,2.415-5.014c0.176-1.725-1.078-3.298-2.654-3.847C117.85,352.159,115.471,352.623,113.186,352.524
			 M126.649,352.524c0.187,3.148,0.058,6.304,0.187,9.451c-0.085,1.911-0.223,3.826-0.244,5.742
			c2.896,0.121,5.975,0.321,8.649-1.013c1.594-0.81,3.221-2.266,3.042-4.229c0.557-2.777,0.402-6.132-1.936-8.088
			C133.721,351.988,129.91,352.562,126.649,352.524 M141.426,352.477c0.248,5.156-0.635,10.459,0.883,15.484
			c0.167-1.585,0.068-3.191,0.362-4.762c0.187,1.514,0.212,3.042,0.406,4.559c0.134-0.095,0.411-0.276,0.545-0.37
			c0.11-2.35-0.044-4.709,0.093-7.063c2.115,0.054,4.234,0.036,6.353,0.016c0.134,2.299,0,4.6,0.109,6.902
			c0.797-0.078,1.599-0.144,2.399-0.2c-0.26-4.854-0.073-9.719-0.175-14.578c-0.806,0.021-1.606,0.04-2.403,0.07
			c0.017,1.931,0.008,3.858,0.008,5.79c-2.098,0.004-4.2-0.058-6.299-0.037c-0.053-1.927,0.018-3.851-0.072-5.773
			C142.898,352.5,142.162,352.488,141.426,352.477 M156.756,354.473c-2.049,2.741-1.691,6.413-1.105,9.58l-0.11,0.11
			c1.469,2.318,3.985,4.314,6.881,3.997c2.248,0,3.911-1.688,5.433-3.122l-0.126-0.139c0.802-3.172,1.378-6.808-0.399-9.764
			C165.211,351.488,159.311,351.114,156.756,354.473 M171.266,352.213c0.016,0.234,0.045,0.715,0.057,0.951
			c-0.436,4.798-0.265,9.629-0.277,14.44c3.092,0.134,6.189,0.165,9.289,0.174c0.008-0.797,0.02-1.59,0.035-2.384
			c-2.224-0.021-4.448,0.021-6.668,0c-0.09-4.179,0.081-8.363-0.11-12.544C172.818,352.623,172.042,352.407,171.266,352.213
			 M182.293,352.464c-0.032,5.019,0.016,10.032,0.008,15.05c2.936,0.04,6.156,0.537,8.813-1.037
			c4.298-2.781,4.27-10.036-0.013-12.816C188.453,352.065,185.232,352.541,182.293,352.464 M196.973,352.509
			c0.244,5.03,0.094,10.065,0.162,15.099c3.127-0.009,6.259-0.003,9.39,0.004c-0.017-0.688-0.032-1.375-0.041-2.057
			c-2.383-0.155-4.77-0.062-7.152-0.099c0.052-1.708,0.065-3.415,0.098-5.119c2.232,0.017,4.469,0.058,6.705,0.037
			c-0.028-0.68-0.053-1.354-0.077-2.029c-2.221-0.005-4.432-0.089-6.648-0.078c-0.033-1.229-0.028-2.447-0.008-3.672
			c2.428,0,4.855-0.028,7.282,0.021c-0.062-0.712-0.126-1.424-0.19-2.131C203.32,352.477,200.145,352.493,196.973,352.509
			 M209.31,352.46c0.028,5.019-0.053,10.04,0.058,15.063c0.764,0.041,1.533,0.089,2.301,0.134c0.062-2.18,0.073-4.363,0.236-6.535
			c2.956,1.033,3.98,4.331,6.425,6.019c0.857,0.646,1.952,0.694,2.989,0.691c-1.606-2.232-3.376-4.336-5.174-6.409
			c1.456-1.264,2.937-2.923,2.811-4.993c-0.012-1.85-1.574-3.338-3.303-3.72C213.571,352.257,211.42,352.529,209.31,352.46
			L209.31,352.46z"/>
	</g>
</g>
<g id="Calque_7">
</g>
<g id="Calque_5" display="none">
	<path display="inline" fill="#FD003A" d="M450.682,69.823L270.508,249.999L69.823,450.684c-5.566,5.859-14.939,5.859-20.507,0
		c-5.859-5.566-5.859-14.941,0-20.508l380.859-380.86c5.566-5.858,14.939-5.858,20.506,0
		C456.543,54.881,456.543,64.256,450.682,69.823z"/>
</g>
</svg>
