<?xml version="1.0" encoding="utf-8"?>
<!-- Generator: Adobe Illustrator 16.0.0, SVG Export Plug-In . SVG Version: 6.00 Build 0)  -->
<!DOCTYPE svg PUBLIC "-//W3C//DTD SVG 1.1//EN" "http://www.w3.org/Graphics/SVG/1.1/DTD/svg11.dtd">
<svg version="1.1" xmlns="http://www.w3.org/2000/svg" xmlns:xlink="http://www.w3.org/1999/xlink" x="0px" y="0px" width="500px"
	 height="500px" viewBox="0 0 500 500" enable-background="new 0 0 500 500" xml:space="preserve">
<g id="Calque_2" display="none">
</g>
<g id="Calque_1">
</g>
<g id="Calque_3">
	<g>
		<g>
			<path fill-rule="evenodd" clip-rule="evenodd" d="M243.14,309.927c2.662,2.091,5.608,3.36,6.677,5.547
				c0.988,2.028,0.03,5.04-0.213,7.605c-0.052,0.535-0.729,1.011-1.117,1.512c-11.428,14.804-10.212,26.742,4.025,38.965
				c2.774,2.38,5.791,4.484,8.5,6.935c14.764,13.35,18.157,30.399,8.563,47.812c-3.772,6.847-9.217,12.873-14.471,18.766
				c-3.306,3.709-8.484,3.246-11.453-0.001c-3.106-3.396-2.644-7.552,0.817-11.521c3.64-4.174,7.554-8.277,10.314-13.015
				c7.423-12.738,5.093-23.087-6.464-32.252c-3.608-2.86-7.311-5.671-10.548-8.924c-16.414-16.503-17.147-38.582-1.854-56.129
				C237.663,313.221,240.287,311.98,243.14,309.927z"/>
			<path fill-rule="evenodd" clip-rule="evenodd" d="M356.009,399.328c-0.785,16.194-9.148,28.399-20.815,38.717
				c-3.022,2.673-7.725,1.875-10.396-1.012c-2.849-3.078-2.68-7.226,0.287-10.793c3.651-4.386,7.724-8.53,10.699-13.345
				c7.587-12.273,5.48-22.57-5.584-32.082c-5.402-4.646-11.118-9.161-15.549-14.657c-12.69-15.738-10.964-37.788,3.449-52.1
				c3.587-3.562,8.169-3.919,11.447-0.89c3.308,3.056,2.963,7.11,0.222,11.542c-2.95,4.773-6.219,9.824-7.318,15.172
				c-2.148,10.465,4.302,17.683,11.623,24.065c4.066,3.547,8.446,6.8,12.14,10.699C352.685,381.475,356.175,389.699,356.009,399.328
				z"/>
			<path fill-rule="evenodd" clip-rule="evenodd" d="M170.711,318.118c-1.548,2.87-2.321,4.956-3.628,6.62
				c-11.035,14.052-9.855,26.643,3.696,38.372c4.322,3.742,8.986,7.179,12.846,11.354c10.982,11.878,13.206,25.863,6.4,40.206
				c-3.798,8.004-9.925,15.016-15.622,21.965c-3.414,4.165-8.557,3.908-11.758,0.577c-3.401-3.538-2.944-7.499,0.815-11.794
				c3.647-4.17,7.425-8.362,10.268-13.074c7.053-11.693,5.064-22.088-5.35-30.987c-3.748-3.203-7.759-6.12-11.315-9.518
				c-17.103-16.347-17.698-40.666-1.602-57.612c2.71-2.854,5.996-4.22,9.385-2.335C167.167,313.184,168.699,315.897,170.711,318.118
				z"/>
		</g>
		<g>
			<g>
				<path fill-rule="evenodd" clip-rule="evenodd" d="M445,210v-88.706C445,96.132,424.602,76,399.439,76H100.561
					C75.398,76,55,96.132,55,121.294V210H445z"/>
				<path fill-rule="evenodd" clip-rule="evenodd" d="M55,232v0.462C55,257.625,75.398,278,100.561,278h298.879
					C424.602,278,445,257.625,445,232.462V232H55z"/>
			</g>
			<circle fill-rule="evenodd" clip-rule="evenodd" fill="#FFFFFF" cx="371.495" cy="139.215" r="16.706"/>
			<circle fill-rule="evenodd" clip-rule="evenodd" fill="#FFFFFF" cx="325.934" cy="139.215" r="16.706"/>
		</g>
	</g>
</g>
<g id="Calque_4">
</g>
<g id="Calque_6">
</g>
<g id="Calque_7">
</g>
<g id="Calque_5" display="none">
	<path display="inline" fill="#FD003A" d="M450.682,69.823L270.508,249.999L69.823,450.684c-5.566,5.859-14.939,5.859-20.507,0
		c-5.859-5.566-5.859-14.941,0-20.508l380.859-380.86c5.566-5.858,14.939-5.858,20.506,0
		C456.543,54.881,456.543,64.256,450.682,69.823z"/>
</g>
</svg>
