<?xml version="1.0" encoding="utf-8"?>
<!-- Generator: Adobe Illustrator 16.0.0, SVG Export Plug-In . SVG Version: 6.00 Build 0)  -->
<!DOCTYPE svg PUBLIC "-//W3C//DTD SVG 1.1//EN" "http://www.w3.org/Graphics/SVG/1.1/DTD/svg11.dtd">
<svg version="1.1" id="Calque_1" xmlns="http://www.w3.org/2000/svg" xmlns:xlink="http://www.w3.org/1999/xlink" x="0px" y="0px"
	 width="500px" height="500px" viewBox="0 0 500 500" enable-background="new 0 0 500 500" xml:space="preserve">
<g id="Calque_2" display="none">
</g>
<g id="Calque_6">
	<g>
		<path fill="#322B80" d="M124.481,131.871c1.32,31.469,15.058,56.142,52.625,57.914c33.584,1.586,33.853,8.722,33.853,14.81
			c0,6.084-10.316,19.833-33.853,15.338c3.438,13.222,21.949,38.878,48.66,44.429c-7.671-21.42-1.586-73.251,64.787-76.163
			c-1.854-4.76-7.931-10.313-20.891-10.578c-12.958-0.262-16.396-2.645-8.198-8.991c8.198-5.551,34.949-14.301,38.08-45.217
			c2.114-20.894-14.015-38.876-14.015-38.876c-1.854,15.071-14.018,27.502-22.479,33.057c-8.463,5.553-32.527,20.098-33.849,56.854
			c-24.329-17.718-38.08-25.651-56.592-28.824C154.1,142.449,137.966,144.829,124.481,131.871L124.481,131.871z"/>
		<polygon fill="#DB8F1B" points="306.96,185.768 309.712,177.749 312.469,185.768 320.944,185.911 314.172,191.009 
			316.658,199.114 309.717,194.249 302.774,199.119 305.257,191.009 298.479,185.913 		"/>
		<polygon fill="#C10E1A" points="332.354,183.471 331.829,175.009 337.445,181.36 345.332,178.242 341.028,185.549 
			346.429,192.084 338.15,190.247 333.607,197.403 332.795,188.965 324.579,186.85 		"/>
		<polygon fill="#289448" points="354.905,170.697 352.456,162.58 359.377,167.476 366.341,162.637 363.818,170.735 
			370.573,175.859 362.098,175.967 359.309,183.974 356.585,175.943 348.108,175.767 		"/>
		<path fill="#322B80" d="M260.439,257.685c-2.563,1.066-7.588,1.496-11.538,0.963c-3.951-0.534-9.58-1.393-9.079-10.792
			c0.43-8.013,3.831-11.023,6.305-12.604c2.668-1.708,6.299-3.522,8.01-3.522c1.708,0,2.885,0.854,3.633,0.854
			s0.748-2.459,0.748-2.459c-0.429-2.563-2.352-2.563-4.169-2.454c-1.813,0.105-8.65,2.351-12.817,7.051
			c-4.167,4.697-5.872,15.062-3.737,20.401c2.135,5.342,4.698,7.586,9.827,8.016c5.127,0.424,12.819,0.424,13.779-0.538
			c0.963-0.958,2.353-2.563,1.926-3.847C262.896,257.471,261.828,256.403,260.439,257.685L260.439,257.685z"/>
		<path fill="#322B80" d="M342.907,258.009c-0.751-0.214-1.282,0.425-1.817,0.529c-0.531,0.109-4.166,0.748-5.658-1.066
			c2.138-0.854,4.162-2.454,4.271-5.767c0.107-3.312-0.96-5.346-3.204-5.556c-2.243-0.215-5.127,2.349-5.127,4.593
			s0.322,3.207,0.322,3.207c-1.39,1.601-2.886,3.098-5.023,3.202c-2.136,0.104-2.136-1.177-2.244-1.815
			c-0.104-0.639,0.322-4.379,0.217-5.665c-0.107-1.276-0.539-2.669-1.606-2.669c-1.066,0-1.275,1.393-1.386,2.568
			c-0.109,1.172-0.854,5.766-1.814,6.833c-0.966,1.067-2.245,1.496-2.563-0.215c-0.319-1.71,0.854-5.875,0.854-5.875
			c0.318-0.962-0.323-2.35-0.644-2.883c-0.319-0.533-1.177-0.748-1.496,0.215c-0.321,0.958-1.278,4.487-2.347,6.514
			c-1.074,2.029-3.638,3.74-4.808,3.954c-0.319-2.139-0.319-4.912-0.319-4.912c0.957-2.14,1.387-3.955,1.066-5.771
			c-0.326-1.815-1.495-1.392-3.1-0.104c-0.96-0.967-2.992-0.967-2.992-0.967c-0.748,0-5.665,0.967-5.875,9.829
			c-2.026,2.777-5.662,3.315-7.158,1.925c1.496-3.525,2.14-5.875,2.14-8.229c0-2.349-0.644-4.803-3.1-4.911
			c-2.454-0.105-6.305,5.021-4.698,12.498c-1.817,1.495-3.631,1.604-4.809,1.391c-1.177-0.214-2.243-1.496-2.673-4.273
			c-0.427-2.777,0.109-5.766-2.241-6.304c-2.353-0.534-6.838,7.052-7.801,8.333c0.107-5.875,0.748-26.813,0.748-26.813
			c0.109-2.136,0-4.164-0.96-4.164c-1.066,0-1.175,1.92-1.389,3.951c-0.215,2.027-1.175,22.219-1.282,31.515
			c0,1.066,0.107,2.135,0.963,2.988c0.854,0.856,1.172,1.391,2.239-0.426c1.072-1.814,3.312-5.879,4.169-7.266
			c0.855-1.387,2.671-3.846,2.563-0.958c-0.107,2.883,1.604,7.795,5.554,8.114c3.954,0.323,5.665-2.029,6.623-2.563
			c1.389,0.753,4.169,2.673,6.193,2.563c2.031-0.104,5.024-2.35,5.984-3.202c1.284,1.706,4.06,4.165,6.623,1.602
			c0.318,2.136,0.536,9.721,0.429,12.069c-0.109,2.354,0.107,3.525,0.958,3.525c0.857,0,1.822-0.104,1.822-3.525
			c0-3.417-0.109-11.002-0.109-11.002c3.421-1.277,4.917-2.669,5.875-4.488c0.96,1.715,2.244,3.959,3.74,3.851
			c1.387-0.109,3.414-1.393,4.162-2.884c0.854,1.491,3.421,2.884,4.705,2.884c1.278,0,4.379-1.815,5.229-2.884
			c1.178,1.92,3.313,3.735,5.132,3.842c1.815,0.108,4.809-0.854,5.661-2.454C343.764,259.286,343.653,258.219,342.907,258.009
			L342.907,258.009z M289.066,252.134c-0.318,0.64-0.851,1.815-1.604,2.669c0-0.748,0.108-2.458,0.324-2.992
			c0.212-0.533,0.641-2.029,1.496-2.029C290.031,249.78,289.386,251.49,289.066,252.134L289.066,252.134z M303.008,257.737
			c-1.122,0-2.618,0.271-2.512-2.511c0.109-2.773,2.992-4.165,3.422-4.165c0.427,0,1.705,0.639,1.705,2.777
			C305.623,256.513,304.128,257.737,303.008,257.737L303.008,257.737z M336.393,250.1c0.854,1.071-0.642,2.244-2.138,2.781
			C334.147,251.596,335.854,249.994,336.393,250.1L336.393,250.1z"/>
		<path fill="#322B80" d="M347.82,251.915c-1.175,0-2.774,0.43-2.454,1.496c0.319,1.067,0.855,3.53,1.708,3.53
			c0.855,0,4.81,0.743,4.062-2.354C350.384,251.49,347.82,251.915,347.82,251.915L347.82,251.915z"/>
		<path fill="#322B80" d="M376.663,228.736c-0.745-1.067-1.602-1.177-2.241,0.427c-3.313,7.8-13.354,29.271-13.354,29.271
			c-3.421-8.01-10.895-24.678-10.895-24.678c-0.535-1.066-1.284-2.026-1.926-1.708c-1.066,0-1.303,1.291-0.429,3.204
			c2.885,6.303,10.471,24.678,12.069,28.203c0.646,1.387,1.604,1.92,2.673-0.215s8.548-17.948,14.211-30.658
			C377.841,230.338,377.413,229.804,376.663,228.736L376.663,228.736z"/>
		<path fill="#322B80" d="M385.742,258.433c-0.748,0.318-2.563-0.319-2.774-2.244c0.53-3.525,0.641-5.127-0.536-6.729
			c-0.639-1.496-1.175-2.135-2.244-1.925c-1.067,0.214-5.875,1.605-7.69,6.842c-0.641,2.025-1.708,3.632-0.747,5.656
			c0.965,2.029,2.563,3.103,3.951,3.103c1.393,0,3.849-2.459,4.807-3.955c0.646,2.243,2.461,3.739,4.062,3.739
			c1.604,0,3.212-1.048,3.526-3.102C388.307,258.433,386.49,258.113,385.742,258.433L385.742,258.433z M377.841,256.617
			c-0.536,0.43-1.923,2.135-2.778,1.603c-1.417-0.888,0.746-2.773,1.39-3.417c0.642-0.644,2.241-1.496,2.241-1.496
			C379.761,254.159,378.371,256.188,377.841,256.617L377.841,256.617z"/>
		<path fill="#322B80" d="M397.71,258.219c-1.176,0.747-6.093,0.643-6.093-1.815c0-1.496,1.284-2.35,1.926-2.992
			c0.639-0.639,1.814-0.854,2.241-0.854c0.43,0,0.538,0.854,1.284,0.963c0.743,0.108,1.496,0.214,1.496-1.711
			c0-2.239-1.175-3.313-1.175-3.313c-0.75-0.748-1.713-0.533-2.461-0.424c-0.748,0.104-3.202-0.748-5.658,4.164
			c-2.137,4.274,1.17,10.896,5.234,10.896c1.92,0,5.339-0.963,5.23-3.739C399.633,256.617,398.457,257.685,397.71,258.219
			L397.71,258.219z"/>
		<path fill="#322B80" d="M464.582,257.685c-1.351-4.394-1.922-6.623-2.031-8.862c-0.109-2.244-1.708-2.034-1.708-2.034
			s-0.428,0.538-1.178,1.925c-0.745,1.388-5.554,10.469-9.506,9.721c2.027-2.029,2.775-3.95,2.992-7.053
			c0.212-3.097-0.856-3.845-3.418-3.845c-2.563,0-5.021,5.346-4.271,9.188c-1.605,1.814-3.636,1.604-4.914,1.604
			c-1.287,0-3.849-0.748-3.849-3.207c0-2.458,2.241-2.458,2.989-2.458s2.674-0.104,2.674-2.239c0-2.14-1.709-2.674-3.741-2.567
			c-2.028,0.108-5.017,2.458-4.696,8.657c-1.815,1.281-4.812,2.883-4.918-0.538c-0.106-3.417,0.642-5.551,0-7.152
			c-0.639-1.604-3.313-1.286-4.27-0.967c-0.965,0.323-3.103,2.673-3.636,3.312c-0.531-1.814-1.389-3.093-2.563-2.883
			c-1.172,0.214-1.389,2.354-1.816,3.631c-0.422,1.286-2.135,5.88-3.202,5.984c-1.067,0.109-1.067-1.177-1.067-1.177
			c1.067-2.454,0.748-6.623-2.026-8.119c-1.713-0.529-5.024,0.748-7.27,2.992s-3.202,5.659-1.814,8.977
			c1.387,3.313,5.232,2.773,9.506,0.21c1.066,1.496,2.244,1.925,3.312,1.605c1.066-0.324,3.313-3.421,4.169-5.236
			c0.958,3.313,1.388,5.127,2.032,5.127c0.64,0,1.174-1.921,1.388-5.661c1.386-1.71,2.455-2.883,4.379-3.845
			c-0.216,2.777,0.429,9.72,4.059,9.72c1.709,0,3.741-1.391,4.701-2.883c2.032,2.14,3.848,3.207,6.193,3.207
			c2.352,0,4.276-0.538,5.45-2.034c1.921,1.925,4.698,3.845,8.65,0.214c1.604,1.711,2.883,2.244,4.596,2.244
			C462.869,263.24,465.434,260.463,464.582,257.685L464.582,257.685z M408.282,256.941c-0.958,0.854-3.521,1.491-4.058,0.854
			c-0.538-0.644,0.639-2.14,2.135-3.315c1.493-1.173,2.563-1.598,2.99-0.958C410.207,254.802,409.247,256.084,408.282,256.941
			L408.282,256.941z M448.238,254.378c-0.213-0.538-0.109-1.286,0.212-1.819c0.319-0.533,0.962-1.496,1.493-1.067
			C449.943,252.663,449.093,253.63,448.238,254.378L448.238,254.378z M461.373,258.009c-0.747,0.743-2.347,0-3.413-0.108
			c0.639-0.854,2.665-3.74,2.665-3.74C461.164,255.655,462.121,257.256,461.373,258.009L461.373,258.009z"/>
		<path fill="#322B80" d="M291.236,241.845c1.686,0.398,2.275-0.986,2.275-2.078s-0.198-2.178-1.882-2.277s-4.953-1.486-6.735-5.251
			c-0.197-0.695-0.894-1.188-1.289-0.4c-0.593,1.093-0.493,2.88,0.099,4.562C284.299,238.083,286.879,240.825,291.236,241.845
			L291.236,241.845z"/>
		<path fill="#322B80" d="M77.182,334.25c-9.934,0-21.794,4.007-26.921,9.777v7.689c6.251-5.607,14.904-8.814,25.639-8.814
			c10.735,0,17.625,3.851,17.625,7.689c0,3.852-5.607,5.613-10.895,6.253c-5.289,0.643-25.479,3.044-32.852,4.97
			C42.409,363.739,36,368.223,36,374.95c0,6.733,9.293,17.787,30.125,17.787c4.005,0,13.139-0.801,13.139-0.801l11.216-8.973
			c-5.928,1.92-13.62,1.759-15.383,1.759c-6.249,0-19.228-1.435-19.228-10.249c0-3.525,3.044-6.251,12.179-8.171
			c9.134-1.927,25.639-4.488,25.639-4.488v12.659c0,6.247-0.324,11.217,5.608,14.419c5.928,3.2,19.869,3.524,19.869,3.524
			l8.49-7.533c-7.049-0.956-16.183,0.162-16.183-13.454v-16.507C111.472,344.509,103.941,334.25,77.182,334.25L77.182,334.25z"/>
		<path fill="#322B80" d="M172.682,334.093c-4.965,1.921-23.874,1.764-23.874,1.764l-0.322,0.801c2.245,0.801,6.73,2.401,6.73,9.615
			v31.886c0,3.364,0.48,10.259-6.89,12.341h24.354l0.321-34.135c0-7.209,4.167-13.618,19.391-13.618
			c15.221,0,23.874,3.364,23.874,17.949v18.744c0,5.771-1.922,9.454-7.049,11.06h24.674v-34.135c0-7.528-1.923-22.271-35.09-22.271
			c-7.69,0-18.268,2.401-25.958,9.291L172.682,334.093L172.682,334.093z"/>
		<path fill="#322B80" d="M341.573,335.531c-4.968-1.281-16.983-1.763-16.983-1.763c-21.474,0-58.006,6.569-58.006,31.247
			c0,16.348,24.834,27.078,51.595,27.078c15.702,0,25.958-2.401,25.958-2.401l9.936-11.535c-6.09,2.726-17.304,6.089-27.725,6.089
			c-17.784,0-40.217-6.731-40.217-24.356c0-12.976,22.914-17.307,30.602-17.307c7.697,0,16.029,1.444,16.029,1.444L341.573,335.531
			L341.573,335.531z"/>
		<path fill="#322B80" d="M386.279,334.093c-2.885,1.602-25.64,1.602-25.64,1.602l-0.159,0.644
			c7.211,2.722,11.057,4.966,15.226,10.896c4.162,5.928,33.007,45.027,33.007,45.027h11.858l44.063-56.888h-26.919l0.158,0.801
			c4.329,1.921,8.337,3.846,3.688,9.772l-24.518,32.372l-29.16-40.539C387.239,336.656,386.279,334.093,386.279,334.093
			L386.279,334.093z"/>
		<path fill="#C10E1A" d="M260.173,292.911c70.183,0,121.139,8.014,170.491,28.521c-46.147-29.165-105.114-38.138-170.491-38.138
			s-124.666,8.973-170.813,38.138C138.711,300.925,189.988,292.911,260.173,292.911L260.173,292.911z"/>
	</g>
</g>
<g id="Calque_5" display="none">
	<path display="inline" fill="#FD003A" d="M450.682,69.823L270.508,249.999L69.823,450.684c-5.565,5.859-14.938,5.859-20.507,0
		c-5.858-5.566-5.858-14.941,0-20.508l380.859-380.86c5.565-5.858,14.938-5.858,20.506,0
		C456.543,54.881,456.543,64.256,450.682,69.823z"/>
</g>
</svg>
