<?xml version="1.0" encoding="utf-8"?>
<!-- Generator: Adobe Illustrator 16.0.0, SVG Export Plug-In . SVG Version: 6.00 Build 0)  -->
<!DOCTYPE svg PUBLIC "-//W3C//DTD SVG 1.1//EN" "http://www.w3.org/Graphics/SVG/1.1/DTD/svg11.dtd">
<svg version="1.1" id="Calque_1" xmlns="http://www.w3.org/2000/svg" xmlns:xlink="http://www.w3.org/1999/xlink" x="0px" y="0px"
	 width="500px" height="500px" viewBox="0 0 500 500" enable-background="new 0 0 500 500" xml:space="preserve">
<g id="Calque_2" display="none">
</g>
<g id="Calque_5">
	<path fill="#FD003A" d="M404.39,111.385L265.778,249.999L111.385,404.392c-4.282,4.508-11.493,4.508-15.776,0
		c-4.507-4.282-4.507-11.495,0-15.777L388.614,95.609c4.281-4.507,11.492-4.507,15.775,0C408.9,99.889,408.9,107.102,404.39,111.385
		z"/>
</g>
<g id="Calque_5_1_">
	<path fill="#FD003A" d="M388.615,404.391L250.001,265.779L95.609,111.385c-4.508-4.282-4.508-11.493,0-15.776
		c4.282-4.507,11.495-4.507,15.777,0l293.006,293.006c4.508,4.281,4.508,11.492,0,15.775
		C400.112,408.9,392.899,408.9,388.615,404.391z"/>
</g>
</svg>
