<?xml version="1.0" encoding="utf-8"?>
<!-- Generator: Adobe Illustrator 16.0.0, SVG Export Plug-In . SVG Version: 6.00 Build 0)  -->
<!DOCTYPE svg PUBLIC "-//W3C//DTD SVG 1.1//EN" "http://www.w3.org/Graphics/SVG/1.1/DTD/svg11.dtd">
<svg version="1.1" xmlns="http://www.w3.org/2000/svg" xmlns:xlink="http://www.w3.org/1999/xlink" x="0px" y="0px" width="500px"
	 height="500px" viewBox="0 0 500 500" enable-background="new 0 0 500 500" xml:space="preserve">
<g id="Calque_2" display="none">
</g>
<g id="Calque_1">
</g>
<g id="Calque_3">
	<g>
		<path fill-rule="evenodd" clip-rule="evenodd" d="M370.917,101.157c0,0-84.91-82.417-152.792-14.535l197.748,197.749
			c0,0,58.717-78.739-20.299-157.753L448.4,73.79l5.587,0.036l0.14-34.967l-21.553-0.128L370.917,101.157z"/>
		
			<rect x="163.273" y="191.712" transform="matrix(-0.7071 -0.7071 0.7071 -0.7071 375.3787 555.6737)" fill-rule="evenodd" clip-rule="evenodd" width="279" height="16.762"/>
		
			<rect x="264.019" y="266.951" transform="matrix(-0.7071 0.7071 -0.7071 -0.7071 684.0999 270.5326)" fill-rule="evenodd" clip-rule="evenodd" width="44" height="20"/>
		
			<rect x="325.496" y="328.372" transform="matrix(-0.7071 0.7071 -0.7071 -0.7071 832.7148 331.8224)" fill-rule="evenodd" clip-rule="evenodd" width="44.277" height="20.001"/>
		<polygon fill-rule="evenodd" clip-rule="evenodd" points="212.912,337.373 244.692,306.334 257.735,319.377 226.152,350.961 		"/>
		
			<rect x="274.144" y="380.629" transform="matrix(-0.7071 0.7072 -0.7072 -0.7071 782.2544 456.1554)" fill-rule="evenodd" clip-rule="evenodd" width="45" height="18.954"/>
		
			<rect x="172.05" y="368.421" transform="matrix(-0.7071 0.7071 -0.7071 -0.7071 582.6302 515.5085)" fill-rule="evenodd" clip-rule="evenodd" width="25" height="20.001"/>
		
			<rect x="233.568" y="429.939" transform="matrix(-0.7071 0.7071 -0.7071 -0.7071 731.1488 577.0262)" fill-rule="evenodd" clip-rule="evenodd" width="25" height="20"/>
		
			<rect x="203.209" y="206.14" transform="matrix(-0.7071 0.7071 -0.7071 -0.7071 537.2887 209.7246)" fill-rule="evenodd" clip-rule="evenodd" width="44" height="20"/>
		<polygon fill-rule="evenodd" clip-rule="evenodd" points="151.861,276.322 183.402,245.045 196.924,258.566 165.341,290.149 		"/>
		
			<rect x="111.239" y="307.609" transform="matrix(-0.7071 0.7071 -0.7071 -0.7071 435.8144 454.7056)" fill-rule="evenodd" clip-rule="evenodd" width="24.999" height="20"/>
		
			<rect x="141.69" y="144.622" transform="matrix(-0.7071 0.7071 -0.7071 -0.7071 388.7702 148.2111)" fill-rule="evenodd" clip-rule="evenodd" width="44" height="20"/>
		<polygon fill-rule="evenodd" clip-rule="evenodd" points="90.438,214.899 122.075,183.717 135.406,197.048 103.822,228.632 		"/>
		
			<rect x="49.721" y="246.091" transform="matrix(-0.7071 0.7071 -0.7071 -0.7071 287.3013 393.1785)" fill-rule="evenodd" clip-rule="evenodd" width="25" height="20"/>
		<polygon fill-rule="evenodd" clip-rule="evenodd" points="111.912,438.373 143.692,407.334 156.735,420.377 125.152,451.961 		"/>
		<polygon fill-rule="evenodd" clip-rule="evenodd" points="50.861,377.322 82.402,346.045 95.924,359.566 64.341,391.149 		"/>
	</g>
</g>
<g id="Calque_4">
</g>
<g id="Calque_6">
</g>
<g id="Calque_7">
</g>
<g id="Calque_5" display="none">
	<path display="inline" fill="#FD003A" d="M450.682,69.823L270.508,249.999L69.823,450.684c-5.566,5.859-14.939,5.859-20.507,0
		c-5.859-5.566-5.859-14.941,0-20.508l380.859-380.86c5.566-5.858,14.939-5.858,20.506,0
		C456.543,54.881,456.543,64.256,450.682,69.823z"/>
</g>
</svg>
