<?xml version="1.0" encoding="utf-8"?>
<!-- Generator: Adobe Illustrator 16.0.0, SVG Export Plug-In . SVG Version: 6.00 Build 0)  -->
<!DOCTYPE svg PUBLIC "-//W3C//DTD SVG 1.1//EN" "http://www.w3.org/Graphics/SVG/1.1/DTD/svg11.dtd">
<svg version="1.1" xmlns="http://www.w3.org/2000/svg" xmlns:xlink="http://www.w3.org/1999/xlink" x="0px" y="0px" width="500px"
	 height="500px" viewBox="0 0 500 500" enable-background="new 0 0 500 500" xml:space="preserve">
<g id="Calque_2" display="none">
	
		<image display="inline" overflow="visible" width="500" height="500" xlink:href="1eb29ce8418f87b43ba6dde52771dc47--silhouette-icons.jpg"  transform="matrix(2.7621 -2.7621 2.7621 2.7621 -3110.2188 767.5557)">
	</image>
</g>
<g id="Calque_1">
	<g>
		<path fill-rule="evenodd" clip-rule="evenodd" d="M-451.143,237h346.312c0,0,23.796,114.733-125.548,114.733
			c0,0-67.031,9.173-25.903,56.798C-215.159,456.156-227,439.373-227,439.373V464h-168V325.742
			C-395,325.742-451.143,317-451.143,237z"/>
		<path fill-rule="evenodd" clip-rule="evenodd" d="M-454,228h106.752c0,0,53.029-75,0-178H-454V228z"/>
		<rect x="-311" y="203" fill-rule="evenodd" clip-rule="evenodd" width="207" height="25"/>
		<rect x="-444" y="36" fill-rule="evenodd" clip-rule="evenodd" width="84" height="9"/>
	</g>
</g>
<g id="Calque_3">
	<g>
		<path fill-rule="evenodd" clip-rule="evenodd" d="M-445.612-365.772c0,0-84.866-82.461-152.855-14.472l197.748,197.749
			c0,0,58.779-78.802-20.235-157.816l52.857-52.859l5.602,0.02l0.148-34.975l-21.58-0.101L-445.612-365.772z"/>
		
			<rect x="-653.312" y="-275.373" transform="matrix(-0.7071 -0.7071 0.7071 -0.7071 -688.0819 -818.8663)" fill-rule="evenodd" clip-rule="evenodd" width="279.359" height="16.891"/>
		
			<rect x="-699.265" y="-280.932" transform="matrix(-0.7071 0.7071 -0.7071 -0.7071 -1351.8994 5.9201)" fill-rule="evenodd" clip-rule="evenodd" width="44.179" height="7.796"/>
		
			<rect x="-644.138" y="-225.807" transform="matrix(-0.7071 0.7071 -0.7071 -0.7071 -1218.8259 61.0151)" fill-rule="evenodd" clip-rule="evenodd" width="44.177" height="7.796"/>
		
			<rect x="-589.93" y="-171.598" transform="matrix(-0.7071 0.7071 -0.7071 -0.7071 -1087.9473 115.2431)" fill-rule="evenodd" clip-rule="evenodd" width="44.178" height="7.796"/>
		
			<rect x="-534.804" y="-116.471" transform="matrix(-0.7071 0.7071 -0.7071 -0.7071 -954.8552 170.3782)" fill-rule="evenodd" clip-rule="evenodd" width="44.178" height="7.797"/>
		
			<rect x="-750.715" y="-229.481" transform="matrix(-0.7071 0.7071 -0.7071 -0.7071 -1403.3606 130.113)" fill-rule="evenodd" clip-rule="evenodd" width="44.177" height="7.796"/>
		
			<rect x="-695.59" y="-174.354" transform="matrix(-0.7071 0.7071 -0.7071 -0.7071 -1270.2644 185.2554)" fill-rule="evenodd" clip-rule="evenodd" width="44.179" height="7.797"/>
		
			<rect x="-641.381" y="-120.147" transform="matrix(-0.7071 0.7071 -0.7071 -0.7071 -1139.4104 239.4404)" fill-rule="evenodd" clip-rule="evenodd" width="44.176" height="7.795"/>
		
			<rect x="-586.255" y="-65.019" transform="matrix(-0.7071 0.7071 -0.7071 -0.7071 -1006.2997 294.5992)" fill-rule="evenodd" clip-rule="evenodd" width="44.178" height="7.796"/>
		
			<rect x="-791.045" y="-179.408" transform="matrix(-0.7071 0.7071 -0.7071 -0.7071 -1453.4167 251.0301)" fill-rule="evenodd" clip-rule="evenodd" width="24.689" height="7.796"/>
		
			<rect x="-735.917" y="-124.281" transform="matrix(-0.7071 0.7071 -0.7071 -0.7071 -1320.3411 306.1366)" fill-rule="evenodd" clip-rule="evenodd" width="24.687" height="7.796"/>
		
			<rect x="-681.71" y="-70.073" transform="matrix(-0.7071 0.7071 -0.7071 -0.7071 -1189.4658 360.3531)" fill-rule="evenodd" clip-rule="evenodd" width="24.688" height="7.795"/>
		
			<rect x="-626.583" y="-14.946" transform="matrix(-0.7071 0.7071 -0.7071 -0.7071 -1056.3844 415.4731)" fill-rule="evenodd" clip-rule="evenodd" width="24.688" height="7.796"/>
		
			<rect x="-639.446" y="-331.006" transform="matrix(-0.7071 0.7071 -0.7071 -0.7071 -1301.8269 -114.9693)" fill-rule="evenodd" clip-rule="evenodd" width="24.688" height="7.797"/>
		
			<rect x="-584.32" y="-275.879" transform="matrix(-0.7071 0.7071 -0.7071 -0.7071 -1168.7375 -59.8349)" fill-rule="evenodd" clip-rule="evenodd" width="24.689" height="7.796"/>
		
			<rect x="-530.111" y="-221.671" transform="matrix(-0.7071 0.7071 -0.7071 -0.7071 -1037.8762 -5.652)" fill-rule="evenodd" clip-rule="evenodd" width="24.688" height="7.795"/>
		
			<rect x="-474.985" y="-166.545" transform="matrix(-0.7071 0.7071 -0.7071 -0.7071 -904.7744 49.5065)" fill-rule="evenodd" clip-rule="evenodd" width="24.688" height="7.797"/>
	</g>
	<g>
		<path fill-rule="evenodd" clip-rule="evenodd" d="M-787.083,101.157c0,0-84.91-82.417-152.792-14.535l197.748,197.749
			c0,0,58.716-78.739-20.298-157.753l52.826-52.828l5.586,0.036l0.14-34.967l-21.553-0.128L-787.083,101.157z"/>
		
			<rect x="-994.727" y="191.712" transform="matrix(-0.7071 -0.7071 0.7071 -0.7071 -1601.4519 -263.155)" fill-rule="evenodd" clip-rule="evenodd" width="279" height="16.762"/>
		
			<rect x="-923.981" y="296.951" transform="matrix(-0.7071 0.7071 -0.7071 -0.7071 -1322.723 1161.7982)" fill-rule="evenodd" clip-rule="evenodd" width="44" height="20"/>
		
			<rect x="-862.504" y="358.372" transform="matrix(-0.7071 0.7071 -0.7071 -0.7071 -1174.1144 1223.0782)" fill-rule="evenodd" clip-rule="evenodd" width="44.277" height="20"/>
		<polygon fill-rule="evenodd" clip-rule="evenodd" points="-975.088,367.373 -943.308,336.334 -930.265,349.377 -961.848,380.961 
					"/>
		
			<rect x="-913.856" y="410.628" transform="matrix(-0.707 0.7072 -0.7072 -0.707 -1224.5022 1347.4768)" fill-rule="evenodd" clip-rule="evenodd" width="45" height="18.954"/>
		
			<rect x="-1015.95" y="398.421" transform="matrix(-0.7071 0.7071 -0.7071 -0.7071 -1424.1995 1406.7645)" fill-rule="evenodd" clip-rule="evenodd" width="25" height="20.001"/>
		
			<rect x="-954.432" y="459.939" transform="matrix(-0.7071 0.7071 -0.7071 -0.7071 -1275.6813 1468.2823)" fill-rule="evenodd" clip-rule="evenodd" width="25" height="20"/>
		
			<rect x="-863.069" y="247.454" transform="matrix(-0.7071 0.7071 -0.7071 -0.7071 -1270.8066 1041.3032)" fill-rule="evenodd" clip-rule="evenodd" width="24.001" height="20"/>
		
			<rect x="-801.886" y="309.158" transform="matrix(-0.707 0.7072 -0.7072 -0.707 -1122.9991 1102.5266)" fill-rule="evenodd" clip-rule="evenodd" width="24" height="18.955"/>
		
			<rect x="-984.792" y="236.14" transform="matrix(-0.7071 0.7071 -0.7071 -0.7071 -1469.5409 1100.983)" fill-rule="evenodd" clip-rule="evenodd" width="44" height="20"/>
		<polygon fill-rule="evenodd" clip-rule="evenodd" points="-1036.139,306.322 -1004.597,275.045 -991.076,288.566 
			-1022.659,320.149 		"/>
		
			<rect x="-1076.761" y="337.61" transform="matrix(-0.7071 0.7071 -0.7071 -0.7071 -1571.0386 1345.9388)" fill-rule="evenodd" clip-rule="evenodd" width="24.999" height="20"/>
		
			<rect x="-924.587" y="185.935" transform="matrix(-0.7071 0.7071 -0.7071 -0.7071 -1419.3365 979.7791)" fill-rule="evenodd" clip-rule="evenodd" width="24" height="20"/>
		
			<rect x="-1046.31" y="174.622" transform="matrix(-0.7071 0.7071 -0.7071 -0.7071 -1618.0594 1039.4653)" fill-rule="evenodd" clip-rule="evenodd" width="44" height="20"/>
		<polygon fill-rule="evenodd" clip-rule="evenodd" points="-1097.562,244.899 -1065.925,213.717 -1052.594,227.048 
			-1084.178,258.632 		"/>
		
			<rect x="-1138.28" y="276.092" transform="matrix(-0.7071 0.7071 -0.7071 -0.7071 -1719.5288 1284.4348)" fill-rule="evenodd" clip-rule="evenodd" width="25" height="20"/>
		
			<rect x="-986.105" y="124.417" transform="matrix(-0.7071 0.7071 -0.7071 -0.7071 -1567.8545 918.2606)" fill-rule="evenodd" clip-rule="evenodd" width="24" height="20"/>
	</g>
	<g>
		<path fill-rule="evenodd" clip-rule="evenodd" d="M380.917,101.157c0,0-84.91-82.417-152.792-14.535l197.748,197.749
			c0,0,58.717-78.739-20.299-157.753L458.4,73.79l5.587,0.036l0.14-34.967l-21.553-0.128L380.917,101.157z"/>
		
			<rect x="173.273" y="191.712" transform="matrix(-0.7071 -0.7071 0.7071 -0.7071 392.4498 562.7448)" fill-rule="evenodd" clip-rule="evenodd" width="279" height="16.762"/>
		
			<rect x="274.019" y="266.951" transform="matrix(-0.7071 0.7071 -0.7071 -0.7071 701.1708 263.4614)" fill-rule="evenodd" clip-rule="evenodd" width="44" height="20"/>
		
			<rect x="335.496" y="328.372" transform="matrix(-0.7071 0.7071 -0.7071 -0.7071 849.7859 324.7513)" fill-rule="evenodd" clip-rule="evenodd" width="44.277" height="20.001"/>
		<polygon fill-rule="evenodd" clip-rule="evenodd" points="222.912,337.373 254.692,306.334 267.735,319.377 236.152,350.961 		"/>
		
			<rect x="284.144" y="380.629" transform="matrix(-0.7071 0.7072 -0.7072 -0.7071 799.3249 449.0838)" fill-rule="evenodd" clip-rule="evenodd" width="45" height="18.954"/>
		
			<rect x="182.05" y="368.421" transform="matrix(-0.7071 0.7071 -0.7071 -0.7071 599.7013 508.4374)" fill-rule="evenodd" clip-rule="evenodd" width="25" height="20.001"/>
		
			<rect x="243.568" y="429.939" transform="matrix(-0.7071 0.7071 -0.7071 -0.7071 748.2198 569.9551)" fill-rule="evenodd" clip-rule="evenodd" width="25" height="20"/>
		
			<rect x="213.209" y="206.14" transform="matrix(-0.7071 0.7071 -0.7071 -0.7071 554.3597 202.6534)" fill-rule="evenodd" clip-rule="evenodd" width="44" height="20"/>
		<polygon fill-rule="evenodd" clip-rule="evenodd" points="161.861,276.322 193.402,245.045 206.924,258.566 175.341,290.149 		"/>
		
			<rect x="121.239" y="307.609" transform="matrix(-0.7071 0.7071 -0.7071 -0.7071 452.8857 447.6347)" fill-rule="evenodd" clip-rule="evenodd" width="24.999" height="20"/>
		
			<rect x="151.69" y="144.622" transform="matrix(-0.7071 0.7071 -0.7071 -0.7071 405.8414 141.14)" fill-rule="evenodd" clip-rule="evenodd" width="44" height="20"/>
		<polygon fill-rule="evenodd" clip-rule="evenodd" points="100.438,214.899 132.075,183.717 145.406,197.048 113.822,228.632 		"/>
		
			<rect x="59.721" y="246.091" transform="matrix(-0.7071 0.7071 -0.7071 -0.7071 304.3723 386.1075)" fill-rule="evenodd" clip-rule="evenodd" width="25" height="20"/>
		<polygon fill-rule="evenodd" clip-rule="evenodd" points="121.912,438.373 153.692,407.334 166.735,420.377 135.152,451.961 		"/>
		<polygon fill-rule="evenodd" clip-rule="evenodd" points="60.861,377.322 92.402,346.045 105.924,359.566 74.341,391.149 		"/>
	</g>
</g>
</svg>
