<?xml version="1.0" encoding="utf-8"?>
<!-- Generator: Adobe Illustrator 16.0.0, SVG Export Plug-In . SVG Version: 6.00 Build 0)  -->
<!DOCTYPE svg PUBLIC "-//W3C//DTD SVG 1.1//EN" "http://www.w3.org/Graphics/SVG/1.1/DTD/svg11.dtd">
<svg version="1.1" xmlns="http://www.w3.org/2000/svg" xmlns:xlink="http://www.w3.org/1999/xlink" x="0px" y="0px" width="500px"
	 height="500px" viewBox="0 0 500 500" enable-background="new 0 0 500 500" xml:space="preserve">
<g id="Calque_2" display="none">
</g>
<g id="Calque_1">
</g>
<g id="Calque_3">
	<g>
		<path d="M66.682,272.9h307.539v54.426H66.682V272.9z"/>
		<path d="M404.268,273.096h-15.529v54.223h15.529V273.096z"/>
		<path d="M433.291,273.096h-15.529v54.223h15.529V273.096z"/>
		<g transform="matrix(25.898 0 0 -25.898 159.53 121.48)">
			<path d="M5.822-3.094c-0.904,0-1.641,0.732-1.641,1.637c0,0.172,0.027,0.336,0.076,0.492c-1.121,0.02-2.021,0.934-2.021,2.061
				s0.908,2.047,2.037,2.063V2.562C3.472,2.552,2.828,1.9,2.828,1.095s0.66-1.469,1.469-1.469c0.102,0,0.197,0.01,0.293,0.029
				c0.027,0.008,0.057,0.012,0.084,0.012c0.191,0,0.348-0.156,0.348-0.348c0-0.072-0.023-0.137-0.06-0.193
				c-0.111-0.168-0.18-0.367-0.18-0.584c0-0.572,0.465-1.041,1.041-1.041h2.152c0.816,0,1.471-0.66,1.471-1.473l0.004-1.176H8.851
				v1.176c0,0.484-0.393,0.877-0.877,0.877H5.822z"/>
		</g>
		<g transform="matrix(25.898 0 0 -25.898 165.85 91.282)">
			<path d="M6.054-1.983c0.221,0.285,0.352,0.641,0.352,1.029c0,0.939-0.76,1.697-1.697,1.697H4.574v0.6h0.135
				c1.266,0,2.295-1.029,2.295-2.297c0-0.338-0.076-0.662-0.209-0.953l0.42,0.004c1.721,0,3.113-1.396,3.113-3.113v-1.297h-0.6
				v1.297c0,1.389-1.125,2.514-2.514,2.514H6.338c-0.184,0-0.336,0.152-0.336,0.34C6.002-2.094,6.023-2.035,6.054-1.983"/>
		</g>
	</g>
</g>
<g id="Calque_4">
</g>
<g id="Calque_6">
</g>
<g id="Calque_7">
</g>
<g id="Calque_5" display="none">
	<path display="inline" fill="#FD003A" d="M450.682,69.823L270.508,249.999L69.823,450.684c-5.566,5.859-14.939,5.859-20.507,0
		c-5.859-5.566-5.859-14.941,0-20.508l380.859-380.86c5.566-5.858,14.939-5.858,20.506,0
		C456.543,54.881,456.543,64.256,450.682,69.823z"/>
</g>
</svg>
