<?xml version="1.0" encoding="utf-8"?>
<!-- Generator: Adobe Illustrator 16.0.0, SVG Export Plug-In . SVG Version: 6.00 Build 0)  -->
<!DOCTYPE svg PUBLIC "-//W3C//DTD SVG 1.1//EN" "http://www.w3.org/Graphics/SVG/1.1/DTD/svg11.dtd">
<svg version="1.1" id="Calque_1" xmlns="http://www.w3.org/2000/svg" xmlns:xlink="http://www.w3.org/1999/xlink" x="0px" y="0px"
	 width="500px" height="500px" viewBox="0 0 500 500" enable-background="new 0 0 500 500" xml:space="preserve">
<g id="Calque_2" display="none">
</g>
<g id="Calque_1_1_">
</g>
<g id="Calque_4">
</g>
<g id="Calque_6">
</g>
<g id="Calque_7">
</g>
<g id="Calque_5" display="none">
	<path display="inline" fill="#FD003A" d="M450.682,69.823L270.508,249.999L69.823,450.684c-5.564,5.859-14.938,5.859-20.507,0
		c-5.857-5.566-5.857-14.941,0-20.508l380.859-380.86c5.564-5.858,14.938-5.858,20.506,0
		C456.543,54.881,456.543,64.256,450.682,69.823z"/>
</g>
<g>
	<path d="M350.507,434.19c4.733-4.729,7.098-10.335,7.098-16.813V82.62c0-6.48-2.364-12.082-7.098-16.815
		c-4.738-4.733-10.34-7.098-16.816-7.098c-6.475,0-12.077,2.364-16.812,7.098L149.5,233.185c-4.733,4.739-7.104,10.34-7.104,16.815
		c0,6.476,2.371,12.083,7.104,16.812L316.881,434.19c4.732,4.729,10.335,7.102,16.812,7.102
		C340.167,441.292,345.769,438.919,350.507,434.19z"/>
</g>
</svg>
