<?xml version="1.0" encoding="utf-8"?>
<!-- Generator: Adobe Illustrator 16.0.0, SVG Export Plug-In . SVG Version: 6.00 Build 0)  -->
<!DOCTYPE svg PUBLIC "-//W3C//DTD SVG 1.1//EN" "http://www.w3.org/Graphics/SVG/1.1/DTD/svg11.dtd">
<svg version="1.1" xmlns="http://www.w3.org/2000/svg" xmlns:xlink="http://www.w3.org/1999/xlink" x="0px" y="0px" width="500px"
	 height="500px" viewBox="0 0 500 500" enable-background="new 0 0 500 500" xml:space="preserve">
<g id="Calque_2" display="none">
	
		<image display="inline" overflow="visible" width="500" height="500" xlink:href="1eb29ce8418f87b43ba6dde52771dc47--silhouette-icons.jpg"  transform="matrix(2.7621 -2.7621 2.7621 2.7621 -3110.2188 767.5557)">
	</image>
</g>
<g id="Calque_1">
	<g>
		<path fill-rule="evenodd" clip-rule="evenodd" d="M-451.143,237h346.312c0,0,23.796,114.733-125.548,114.733
			c0,0-67.031,9.173-25.903,56.798C-215.159,456.156-227,439.373-227,439.373V464h-168V325.742
			C-395,325.742-451.143,317-451.143,237z"/>
		<path fill-rule="evenodd" clip-rule="evenodd" d="M-454,228h106.752c0,0,53.029-75,0-178H-454V228z"/>
		<rect x="-311" y="203" fill-rule="evenodd" clip-rule="evenodd" width="207" height="25"/>
		<rect x="-444" y="36" fill-rule="evenodd" clip-rule="evenodd" width="84" height="9"/>
	</g>
</g>
<g id="Calque_3">
	<g>
		<path fill-rule="evenodd" clip-rule="evenodd" d="M-673.083,101.157c0,0-84.91-82.417-152.792-14.535l197.748,197.749
			c0,0,58.717-78.739-20.299-157.753L-595.6,73.79l5.587,0.036l0.14-34.967l-21.553-0.128L-673.083,101.157z"/>
		
			<rect x="-880.727" y="191.712" transform="matrix(-0.7071 -0.7071 0.7071 -0.7071 -1406.8416 -182.5449)" fill-rule="evenodd" clip-rule="evenodd" width="279" height="16.762"/>
		
			<rect x="-779.981" y="266.951" transform="matrix(-0.7071 0.7071 -0.7071 -0.7071 -1098.108 1008.7637)" fill-rule="evenodd" clip-rule="evenodd" width="44" height="20"/>
		
			<rect x="-718.504" y="328.372" transform="matrix(-0.7071 0.7071 -0.7071 -0.7071 -949.5046 1070.0417)" fill-rule="evenodd" clip-rule="evenodd" width="44.277" height="20.001"/>
		<polygon fill-rule="evenodd" clip-rule="evenodd" points="-831.088,337.373 -799.308,306.334 -786.265,319.377 -817.848,350.961 
					"/>
		
			<rect x="-769.856" y="380.629" transform="matrix(-0.7071 0.7072 -0.7072 -0.7071 -999.9084 1194.4316)" fill-rule="evenodd" clip-rule="evenodd" width="45" height="18.954"/>
		
			<rect x="-871.95" y="368.421" transform="matrix(-0.7071 0.7071 -0.7071 -0.7071 -1199.5892 1253.7279)" fill-rule="evenodd" clip-rule="evenodd" width="25" height="20.001"/>
		
			<rect x="-810.432" y="429.939" transform="matrix(-0.7071 0.7071 -0.7071 -0.7071 -1051.0707 1315.2456)" fill-rule="evenodd" clip-rule="evenodd" width="25" height="20"/>
		
			<rect x="-840.791" y="206.14" transform="matrix(-0.7071 0.7071 -0.7071 -0.7071 -1244.925 947.9498)" fill-rule="evenodd" clip-rule="evenodd" width="44" height="20"/>
		<polygon fill-rule="evenodd" clip-rule="evenodd" points="-892.139,276.322 -860.598,245.045 -847.076,258.566 -878.659,290.149 
					"/>
		
			<rect x="-932.761" y="307.609" transform="matrix(-0.7071 0.7071 -0.7071 -0.7071 -1346.4255 1192.9047)" fill-rule="evenodd" clip-rule="evenodd" width="24.999" height="20"/>
		
			<rect x="-902.31" y="144.622" transform="matrix(-0.7071 0.7071 -0.7071 -0.7071 -1393.4551 886.4247)" fill-rule="evenodd" clip-rule="evenodd" width="44" height="20"/>
		<polygon fill-rule="evenodd" clip-rule="evenodd" points="-953.562,214.899 -921.925,183.717 -908.594,197.048 -940.178,228.632 
					"/>
		
			<rect x="-994.279" y="246.091" transform="matrix(-0.7071 0.7071 -0.7071 -0.7071 -1494.9182 1131.3979)" fill-rule="evenodd" clip-rule="evenodd" width="25" height="20"/>
		<polygon fill-rule="evenodd" clip-rule="evenodd" points="-932.088,438.373 -900.308,407.334 -887.265,420.377 -918.848,451.961 
					"/>
		<polygon fill-rule="evenodd" clip-rule="evenodd" points="-993.139,377.322 -961.598,346.045 -948.076,359.566 -979.659,391.149 
					"/>
	</g>
	<g>
		<path fill-rule="evenodd" clip-rule="evenodd" d="M-1503.154,396.943c6.364-17.957,20.323-27.947,37.012-34.84
			c35.567-14.693,71.306-28.981,106.742-43.983c6.58-2.784,16.585-7.587,17.19-12.435c1.646-13.188,0.914-27.348-2.28-40.281
			c-3.338-13.508-10.396-26.154-16.368-38.923c-1.796-3.841-4.796-7.738-8.277-10.063c-15.54-10.375-19.661-37.148-8.334-52.175
			c3.245-4.304,5.331-10.458,5.556-15.863c0.488-11.788-2.515-23.958-0.634-35.403c6.825-41.555,52.476-70.048,99.256-63.157
			c38.904,5.731,67.199,29.307,73.277,61.984c1.448,7.785,1.01,16.078,0.369,24.053c-0.933,11.601-2.5,21.664,6.47,32.722
			c11.594,14.291,4.004,37.516-11.68,48.448c-3.336,2.331-5.293,7.08-7.104,11.072c-5.453,12-12.236,23.766-15.265,36.398
			c-3.21,13.385-4.321,27.821-2.942,41.454c0.476,4.691,10.728,9.494,17.343,12.276c30.656,12.892,61.604,25.09,92.446,37.544
			c2.202,0.889,4.331,1.981,6.575,2.739c27.797,9.357,44.301,25.363,38.543,57.929c-2.509,14.199-0.421,29.207-0.421,45.477
			c-6.84,0-12.396,0-17.949,0c-130.816,0-261.635-0.008-392.453,0.031c-5.689,0-11.38,0.418-17.07,0.646
			C-1503.154,440.709-1503.154,418.824-1503.154,396.943z"/>
	</g>
	<g>
		<path fill-rule="evenodd" clip-rule="evenodd" d="M-1679.356,207.733c3.472,1.592,6.372,2.803,9.165,4.226
			c14.943,7.611,24.35,19.097,27.43,36.106c0.816,4.507,1.613,8.921,1.64,13.445c0.095,16.239,0.037,32.479,0.037,49.235
			c1.581,0.771,3.524,1.305,4.938,2.478c5.733,4.754,9.682,10.06,9.457,18.417c-0.536,19.948-0.173,39.92-0.173,60.28
			c-1.925,0.309-3.793,0.609-5.981,0.961c0,21.986,0,43.901,0,66.199c-3.943,0-7.578,0-12.098,0
			c-0.503-12.911-0.017-26.274-0.265-39.927c-127.874,0-255.44,0-383.724,0c0,13.06,0,26.424,0,40.042c-5.009,0-9.315,0-14.344,0
			c0-22.05,0-44.212,0-66.395c-2.305-0.263-3.905-0.446-5.858-0.67c0-23.953,0-47.898,0-72.685
			c3.208-2.559,7.046-5.621,11.832-9.439c0-6.036,0-13.045,0-20.053c0-11.174,0.048-22.35-0.013-33.523
			c-0.073-13.303,4.977-24.259,14.185-33.798c6.458-6.689,13.573-11.854,22.578-14.298c0.593-0.162,1.108-0.736,1.691-0.792
			c7.503-0.722,15.013-1.962,22.521-1.973c90.753-0.136,181.507-0.15,272.26,0.013
			C-1695.577,205.599-1687.076,207.03-1679.356,207.733z M-2037.122,392.086c132.495,0,264.088,0,396.037,0
			c0-20.59,0.001-40.853-0.014-61.114c-0.001-0.292-0.168-0.616-0.344-0.864c-0.188-0.265-0.479-0.456-0.363-0.352
			c-131.954,0-263.546,0-395.316,0C-2037.122,350.638-2037.122,371.19-2037.122,392.086z M-2004.791,310.787
			c54.084,0,107.147,0,160.518,0c0-8.432-0.075-16.518,0.032-24.602c0.055-4.107-0.863-7.758-4.042-10.516
			c-2.937-2.549-6.004-4.946-8.758-7.199c-45.137,0-89.831,0-133.458,0c-11.719,4.461-13.707,13.816-14.233,23.798
			C-2005.05,298.307-2004.791,304.375-2004.791,310.787z M-1672.958,281.16c-5.909-8.934-13.146-10.94-22.128-10.814
			c-29.726,0.416-59.462,0.156-89.194,0.156c-11.149,0-22.301-0.136-33.447,0.049c-7.338,0.121-14.146,6.945-14.309,14.27
			c-0.191,8.685-0.044,17.377-0.044,25.87c53.963,0,107.184,0,161.084,0C-1671.706,300.022-1672.381,289.846-1672.958,281.16z"/>
		<path fill-rule="evenodd" clip-rule="evenodd" d="M-2037.122,392.086c0-20.896,0-41.448,0-62.33c131.77,0,263.362,0,395.316,0
			c-0.116-0.104,0.175,0.087,0.363,0.352c0.176,0.248,0.343,0.572,0.344,0.864c0.015,20.262,0.014,40.524,0.014,61.114
			C-1773.034,392.086-1904.626,392.086-2037.122,392.086z"/>
		<path fill-rule="evenodd" clip-rule="evenodd" fill="#FFFFFF" d="M-2004.791,310.787c0-6.412-0.26-12.48,0.059-18.519
			c0.527-9.981,2.514-19.337,14.233-23.798c43.627,0,88.322,0,133.458,0c2.753,2.253,5.821,4.65,8.758,7.199
			c3.179,2.758,4.096,6.408,4.042,10.516c-0.107,8.084-0.032,16.17-0.032,24.602
			C-1897.644,310.787-1950.707,310.787-2004.791,310.787z"/>
		<path fill-rule="evenodd" clip-rule="evenodd" fill="#FFFFFF" d="M-1672.958,281.16c0.577,8.686,1.253,18.862,1.962,29.53
			c-53.9,0-107.121,0-161.084,0c0-8.493-0.147-17.186,0.044-25.87c0.162-7.324,6.971-14.148,14.309-14.27
			c11.146-0.185,22.298-0.049,33.447-0.049c29.732,0,59.469,0.26,89.194-0.156C-1686.105,270.22-1678.868,272.227-1672.958,281.16z"
			/>
	</g>
	<path d="M463.993,366.048c0-0.25-0.03-0.492-0.05-0.739v-21.001v-2.329h-0.117c-0.875-18.706-12.127-34.702-28.147-42.382
		l-34.951-79.629c-0.163-0.371-0.359-0.716-0.563-1.057v-60.609c0-27.051-22.011-49.062-49.062-49.062H148.838
		c-27.052,0-49.062,22.011-49.062,49.062v60.611c-0.199,0.335-0.393,0.676-0.554,1.039l-35.146,79.733
		c-15.92,7.714-27.085,23.658-27.958,42.29H36v2.329v49.646v68.398h19.615v-58.588h388.714v58.59h19.614v-68.397v-27.43
		C463.951,366.362,463.993,366.21,463.993,366.048z M119.394,158.302c0-16.236,13.21-29.447,29.447-29.447h202.265
		c16.236,0,29.447,13.211,29.447,29.447V214.1h-52.979c0.068-0.831,0.127-1.665,0.127-2.511v-37.744
		c0-16.428-13.365-29.791-29.794-29.791h-91.4c-16.427,0-29.79,13.363-29.79,29.791v37.744c0,0.848,0.056,1.682,0.127,2.511h-57.45
		V158.302z M55.615,384.146v-39.838c0-16.536,13.454-29.989,29.989-29.989h328.734c16.535,0,29.988,13.453,29.988,29.989v39.838
		H55.615z"/>
</g>
<g id="Calque_4">
</g>
</svg>
