<?xml version="1.0" encoding="utf-8"?>
<!-- Generator: Adobe Illustrator 16.0.0, SVG Export Plug-In . SVG Version: 6.00 Build 0)  -->
<!DOCTYPE svg PUBLIC "-//W3C//DTD SVG 1.1//EN" "http://www.w3.org/Graphics/SVG/1.1/DTD/svg11.dtd">
<svg version="1.1" xmlns="http://www.w3.org/2000/svg" xmlns:xlink="http://www.w3.org/1999/xlink" x="0px" y="0px" width="500px"
	 height="500px" viewBox="0 0 500 500" enable-background="new 0 0 500 500" xml:space="preserve">
<g id="Calque_2" display="none">
</g>
<g id="Calque_1">
</g>
<g id="Calque_3">
	<g transform="matrix(.3492 0 0 .3492 284.57 419.79)">
		<g>
			<path d="M-97.546-447.683c181.12-0.017,246.3-181.356,263.359-330.338c21.022-183.519-65.759-321.639-263.359-321.639
				c-197.561,0-284.38,138.109-263.361,321.639C-343.826-629.053-278.677-447.661-97.546-447.683z"/>
			<path d="M392.413-15.843c-1.98-57.805-8.753-115.879-18.843-172.783c-12.221-68.941-27.776-170.004-87.966-214.922
				c-34.806-25.975-79.881-34.498-119.73-50.159c-19.394-7.623-36.767-15.191-53.073-23.804
				c-55.036,60.356-126.799,91.923-210.38,91.929c-83.548,0-155.302-31.573-210.338-91.929
				c-16.307,8.619-33.679,16.187-53.073,23.804c-39.848,15.661-84.923,24.185-119.727,50.159
				c-60.193,44.93-75.745,145.992-87.966,214.922c-10.09,56.905-16.866,114.978-18.843,172.783
				c-1.533,44.779,20.574,51.054,58.034,64.573c46.904,16.914,95.332,29.47,144.082,39.767
				c94.152,19.878,191.204,35.164,287.84,35.846c96.635-0.688,193.688-15.968,287.837-35.846
				c48.753-10.291,97.181-22.848,144.082-39.767c37.474-13.519,59.578-19.794,58.048-64.573H392.413z"/>
		</g>
	</g>
</g>
<g id="Calque_4">
</g>
<g id="Calque_6">
</g>
<g id="Calque_7">
</g>
<g id="Calque_5" display="none">
	<path display="inline" fill="#FD003A" d="M450.682,69.823L270.508,249.999L69.823,450.684c-5.566,5.859-14.939,5.859-20.507,0
		c-5.859-5.566-5.859-14.941,0-20.508l380.859-380.86c5.566-5.858,14.939-5.858,20.506,0
		C456.543,54.881,456.543,64.256,450.682,69.823z"/>
</g>
</svg>
