<?xml version="1.0" encoding="utf-8"?>
<!-- Generator: Adobe Illustrator 16.0.0, SVG Export Plug-In . SVG Version: 6.00 Build 0)  -->
<!DOCTYPE svg PUBLIC "-//W3C//DTD SVG 1.1//EN" "http://www.w3.org/Graphics/SVG/1.1/DTD/svg11.dtd">
<svg version="1.1" xmlns="http://www.w3.org/2000/svg" xmlns:xlink="http://www.w3.org/1999/xlink" x="0px" y="0px" width="500px"
	 height="500px" viewBox="0 0 500 500" enable-background="new 0 0 500 500" xml:space="preserve">
<g id="Calque_2" display="none">
	
		<image display="inline" overflow="visible" width="500" height="500" xlink:href="1eb29ce8418f87b43ba6dde52771dc47--silhouette-icons.jpg"  transform="matrix(2.7621 -2.7621 2.7621 2.7621 -3110.2188 767.5557)">
	</image>
</g>
<g id="Calque_1">
	<g>
		<path fill-rule="evenodd" clip-rule="evenodd" d="M-451.143,237h346.312c0,0,23.796,114.733-125.548,114.733
			c0,0-67.031,9.173-25.903,56.798C-215.159,456.156-227,439.373-227,439.373V464h-168V325.742
			C-395,325.742-451.143,317-451.143,237z"/>
		<path fill-rule="evenodd" clip-rule="evenodd" d="M-454,228h106.752c0,0,53.029-75,0-178H-454V228z"/>
		<rect x="-311" y="203" fill-rule="evenodd" clip-rule="evenodd" width="207" height="25"/>
		<rect x="-444" y="36" fill-rule="evenodd" clip-rule="evenodd" width="84" height="9"/>
	</g>
</g>
<g id="Calque_3">
	<g>
		<path fill-rule="evenodd" clip-rule="evenodd" d="M-673.083,101.157c0,0-84.91-82.417-152.792-14.535l197.748,197.749
			c0,0,58.717-78.739-20.299-157.753L-595.6,73.79l5.587,0.036l0.14-34.967l-21.553-0.128L-673.083,101.157z"/>
		
			<rect x="-880.727" y="191.712" transform="matrix(-0.7071 -0.7071 0.7071 -0.7071 -1406.8416 -182.5449)" fill-rule="evenodd" clip-rule="evenodd" width="279" height="16.762"/>
		
			<rect x="-779.981" y="266.951" transform="matrix(-0.7071 0.7071 -0.7071 -0.7071 -1098.108 1008.7637)" fill-rule="evenodd" clip-rule="evenodd" width="44" height="20"/>
		
			<rect x="-718.504" y="328.372" transform="matrix(-0.7071 0.7071 -0.7071 -0.7071 -949.5046 1070.0417)" fill-rule="evenodd" clip-rule="evenodd" width="44.277" height="20.001"/>
		<polygon fill-rule="evenodd" clip-rule="evenodd" points="-831.088,337.373 -799.308,306.334 -786.265,319.377 -817.848,350.961 
					"/>
		
			<rect x="-769.856" y="380.629" transform="matrix(-0.7071 0.7072 -0.7072 -0.7071 -999.9084 1194.4316)" fill-rule="evenodd" clip-rule="evenodd" width="45" height="18.954"/>
		
			<rect x="-871.95" y="368.421" transform="matrix(-0.7071 0.7071 -0.7071 -0.7071 -1199.5892 1253.7279)" fill-rule="evenodd" clip-rule="evenodd" width="25" height="20.001"/>
		
			<rect x="-810.432" y="429.939" transform="matrix(-0.7071 0.7071 -0.7071 -0.7071 -1051.0707 1315.2456)" fill-rule="evenodd" clip-rule="evenodd" width="25" height="20"/>
		
			<rect x="-840.791" y="206.14" transform="matrix(-0.7071 0.7071 -0.7071 -0.7071 -1244.925 947.9498)" fill-rule="evenodd" clip-rule="evenodd" width="44" height="20"/>
		<polygon fill-rule="evenodd" clip-rule="evenodd" points="-892.139,276.322 -860.598,245.045 -847.076,258.566 -878.659,290.149 
					"/>
		
			<rect x="-932.761" y="307.609" transform="matrix(-0.7071 0.7071 -0.7071 -0.7071 -1346.4255 1192.9047)" fill-rule="evenodd" clip-rule="evenodd" width="24.999" height="20"/>
		
			<rect x="-902.31" y="144.622" transform="matrix(-0.7071 0.7071 -0.7071 -0.7071 -1393.4551 886.4247)" fill-rule="evenodd" clip-rule="evenodd" width="44" height="20"/>
		<polygon fill-rule="evenodd" clip-rule="evenodd" points="-953.562,214.899 -921.925,183.717 -908.594,197.048 -940.178,228.632 
					"/>
		
			<rect x="-994.279" y="246.091" transform="matrix(-0.7071 0.7071 -0.7071 -0.7071 -1494.9182 1131.3979)" fill-rule="evenodd" clip-rule="evenodd" width="25" height="20"/>
		<polygon fill-rule="evenodd" clip-rule="evenodd" points="-932.088,438.373 -900.308,407.334 -887.265,420.377 -918.848,451.961 
					"/>
		<polygon fill-rule="evenodd" clip-rule="evenodd" points="-993.139,377.322 -961.598,346.045 -948.076,359.566 -979.659,391.149 
					"/>
	</g>
	<g>
		<path fill-rule="evenodd" clip-rule="evenodd" d="M36,396.943c6.364-17.957,20.323-27.947,37.012-34.84
			c35.567-14.693,71.306-28.981,106.742-43.983c6.58-2.784,16.585-7.587,17.19-12.435c1.646-13.188,0.914-27.348-2.28-40.281
			c-3.338-13.508-10.396-26.154-16.368-38.923c-1.796-3.841-4.796-7.738-8.277-10.063c-15.54-10.375-19.661-37.148-8.334-52.175
			c3.245-4.304,5.331-10.458,5.556-15.863c0.488-11.788-2.515-23.958-0.634-35.403c6.825-41.555,52.476-70.048,99.256-63.157
			c38.904,5.731,67.199,29.307,73.277,61.984c1.448,7.785,1.01,16.078,0.369,24.053c-0.933,11.601-2.5,21.664,6.47,32.722
			c11.594,14.291,4.004,37.516-11.68,48.448c-3.336,2.331-5.293,7.08-7.104,11.072c-5.453,12-12.236,23.766-15.265,36.398
			c-3.21,13.385-4.321,27.821-2.942,41.454c0.476,4.691,10.728,9.494,17.343,12.276c30.656,12.892,61.604,25.09,92.446,37.544
			c2.202,0.889,4.331,1.981,6.575,2.739c27.797,9.357,44.301,25.363,38.543,57.929c-2.509,14.199-0.421,29.207-0.421,45.477
			c-6.84,0-12.396,0-17.949,0c-130.816,0-261.635-0.008-392.453,0.031c-5.689,0-11.38,0.418-17.07,0.646
			C36,440.709,36,418.824,36,396.943z"/>
	</g>
</g>
</svg>
