<?xml version="1.0" encoding="utf-8"?>
<!-- Generator: Adobe Illustrator 16.0.0, SVG Export Plug-In . SVG Version: 6.00 Build 0)  -->
<!DOCTYPE svg PUBLIC "-//W3C//DTD SVG 1.1//EN" "http://www.w3.org/Graphics/SVG/1.1/DTD/svg11.dtd">
<svg version="1.1" xmlns="http://www.w3.org/2000/svg" xmlns:xlink="http://www.w3.org/1999/xlink" x="0px" y="0px" width="500px"
	 height="500px" viewBox="0 0 500 500" enable-background="new 0 0 500 500" xml:space="preserve">
<g id="Calque_2" display="none">
</g>
<g id="Calque_1">
</g>
<g id="Calque_3">
</g>
<g id="Calque_4">
</g>
<g id="Calque_6">
	<g>
		<path fill-rule="evenodd" clip-rule="evenodd" fill="#322B80" d="M124.607,131.871c1.319,31.469,15.057,56.141,52.624,57.914
			c33.585,1.586,33.852,8.722,33.852,14.809c0,6.084-10.315,19.833-33.852,15.338c3.438,13.222,21.949,38.878,48.66,44.429
			c-7.671-21.42-1.586-73.251,64.787-76.163c-1.854-4.76-7.931-10.313-20.891-10.578c-12.958-0.262-16.396-2.645-8.198-8.991
			c8.198-5.551,34.949-14.301,38.08-45.217c2.115-20.894-14.014-38.876-14.014-38.876c-1.854,15.071-14.018,27.502-22.479,33.056
			c-8.463,5.553-32.527,20.098-33.85,56.855c-24.328-17.718-38.08-25.651-56.591-28.824S138.092,144.829,124.607,131.871
			L124.607,131.871z"/>
		<polygon fill-rule="evenodd" clip-rule="evenodd" fill="#DB8F1B" points="307.086,185.768 309.837,177.749 312.595,185.768 
			321.07,185.911 314.298,191.009 316.785,199.114 309.843,194.249 302.9,199.119 305.383,191.009 298.604,185.913 307.086,185.768 
					"/>
		<polygon fill-rule="evenodd" clip-rule="evenodd" fill="#C10E1A" points="332.479,183.471 331.956,175.009 337.571,181.36 
			345.459,178.242 341.154,185.549 346.555,192.084 338.276,190.247 333.733,197.403 332.921,188.965 324.706,186.85 
			332.479,183.471 		"/>
		<polygon fill-rule="evenodd" clip-rule="evenodd" fill="#289448" points="355.031,170.697 352.583,162.58 359.503,167.476 
			366.467,162.637 363.944,170.735 370.7,175.859 362.224,175.967 359.435,183.974 356.711,175.943 348.234,175.767 
			355.031,170.697 		"/>
		<path fill-rule="evenodd" clip-rule="evenodd" fill="#322B80" d="M260.565,257.685c-2.563,1.067-7.588,1.496-11.538,0.963
			c-3.952-0.534-9.579-1.392-9.079-10.792c0.429-8.013,3.831-11.023,6.304-12.604c2.669-1.708,6.299-3.523,8.01-3.523
			c1.708,0,2.885,0.854,3.633,0.854s0.748-2.459,0.748-2.459c-0.429-2.563-2.352-2.563-4.169-2.454
			c-1.813,0.105-8.65,2.35-12.817,7.05c-4.167,4.698-5.872,15.062-3.737,20.402c2.135,5.342,4.697,7.586,9.826,8.015
			c5.128,0.424,12.82,0.424,13.78-0.538c0.963-0.958,2.352-2.563,1.925-3.846C263.021,257.471,261.954,256.403,260.565,257.685
			L260.565,257.685z"/>
		<path fill-rule="evenodd" clip-rule="evenodd" fill="#322B80" d="M343.034,258.009c-0.751-0.214-1.282,0.424-1.818,0.529
			c-0.531,0.109-4.166,0.748-5.658-1.067c2.138-0.854,4.162-2.454,4.271-5.766c0.107-3.312-0.96-5.346-3.204-5.556
			c-2.245-0.215-5.127,2.349-5.127,4.593s0.322,3.207,0.322,3.207c-1.39,1.601-2.886,3.098-5.024,3.202
			c-2.135,0.104-2.135-1.177-2.244-1.815c-0.103-0.639,0.323-4.379,0.217-5.665c-0.107-1.277-0.539-2.669-1.606-2.669
			s-1.276,1.392-1.386,2.568c-0.11,1.172-0.855,5.766-1.815,6.833c-0.965,1.067-2.245,1.496-2.563-0.215
			c-0.319-1.71,0.854-5.875,0.854-5.875c0.319-0.962-0.323-2.349-0.643-2.883c-0.319-0.533-1.177-0.748-1.496,0.215
			c-0.322,0.958-1.279,4.488-2.347,6.514c-1.074,2.029-3.638,3.74-4.808,3.954c-0.319-2.139-0.319-4.912-0.319-4.912
			c0.957-2.14,1.387-3.955,1.067-5.771c-0.327-1.815-1.496-1.391-3.1-0.104c-0.96-0.967-2.992-0.967-2.992-0.967
			c-0.748,0-5.665,0.967-5.875,9.829c-2.028,2.778-5.663,3.316-7.159,1.925c1.496-3.525,2.14-5.875,2.14-8.229
			c0-2.349-0.644-4.803-3.1-4.912c-2.454-0.105-6.304,5.021-4.698,12.498c-1.817,1.496-3.631,1.605-4.808,1.391
			c-1.177-0.214-2.244-1.496-2.673-4.273c-0.427-2.778,0.109-5.766-2.242-6.304c-2.352-0.534-6.837,7.052-7.8,8.333
			c0.107-5.875,0.748-26.813,0.748-26.813c0.109-2.135,0-4.164-0.96-4.164c-1.067,0-1.175,1.92-1.389,3.952
			c-0.215,2.027-1.175,22.218-1.282,31.514c0,1.067,0.107,2.135,0.963,2.988c0.853,0.857,1.172,1.391,2.239-0.425
			c1.072-1.815,3.312-5.879,4.169-7.266c0.855-1.387,2.671-3.846,2.563-0.958c-0.107,2.883,1.604,7.795,5.553,8.114
			c3.955,0.324,5.666-2.029,6.624-2.563c1.389,0.753,4.169,2.673,6.194,2.563c2.031-0.104,5.024-2.349,5.984-3.202
			c1.284,1.706,4.06,4.165,6.623,1.602c0.319,2.135,0.536,9.72,0.429,12.069c-0.109,2.354,0.107,3.525,0.958,3.525
			c0.857,0,1.822-0.104,1.822-3.525c0-3.417-0.109-11.002-0.109-11.002c3.421-1.277,4.917-2.669,5.875-4.488
			c0.96,1.715,2.244,3.959,3.74,3.85c1.387-0.109,3.414-1.392,4.162-2.883c0.854,1.491,3.421,2.883,4.705,2.883
			c1.279,0,4.379-1.815,5.229-2.883c1.178,1.92,3.313,3.735,5.132,3.841c1.815,0.109,4.808-0.854,5.661-2.454
			C343.89,259.286,343.779,258.219,343.034,258.009L343.034,258.009z M289.192,252.134c-0.319,0.639-0.851,1.815-1.604,2.668
			c0-0.748,0.109-2.458,0.324-2.992c0.212-0.533,0.641-2.029,1.496-2.029C290.157,249.78,289.512,251.49,289.192,252.134
			L289.192,252.134z M303.134,257.737c-1.122,0-2.618,0.271-2.511-2.511c0.109-2.773,2.992-4.165,3.421-4.165
			c0.427,0,1.706,0.639,1.706,2.778C305.75,256.513,304.254,257.737,303.134,257.737L303.134,257.737z M336.519,250.1
			c0.854,1.072-0.642,2.244-2.139,2.782C334.273,251.596,335.979,249.994,336.519,250.1L336.519,250.1z"/>
		<path fill-rule="evenodd" clip-rule="evenodd" fill="#322B80" d="M347.946,251.915c-1.175,0-2.775,0.429-2.454,1.496
			c0.319,1.067,0.855,3.53,1.708,3.53c0.855,0,4.809,0.743,4.061-2.354C350.51,251.49,347.946,251.915,347.946,251.915
			L347.946,251.915z"/>
		<path fill-rule="evenodd" clip-rule="evenodd" fill="#322B80" d="M376.79,228.736c-0.746-1.067-1.602-1.177-2.242,0.427
			c-3.312,7.8-13.354,29.27-13.354,29.27c-3.421-8.009-10.895-24.677-10.895-24.677c-0.535-1.067-1.284-2.027-1.925-1.708
			c-1.067,0-1.303,1.291-0.429,3.204c2.885,6.302,10.471,24.677,12.069,28.203c0.646,1.387,1.605,1.92,2.673-0.215
			c1.066-2.135,8.548-17.948,14.211-30.658C377.967,230.338,377.54,229.804,376.79,228.736L376.79,228.736z"/>
		<path fill-rule="evenodd" clip-rule="evenodd" fill="#322B80" d="M385.869,258.433c-0.748,0.319-2.563-0.319-2.775-2.244
			c0.531-3.525,0.641-5.127-0.536-6.728c-0.639-1.496-1.175-2.135-2.244-1.925c-1.067,0.214-5.875,1.605-7.69,6.842
			c-0.641,2.025-1.708,3.631-0.748,5.656c0.965,2.029,2.563,3.102,3.952,3.102c1.392,0,3.848-2.459,4.806-3.955
			c0.646,2.244,2.461,3.74,4.062,3.74c1.604,0,3.212-1.048,3.526-3.102C388.433,258.433,386.617,258.113,385.869,258.433
			L385.869,258.433z M377.967,256.617c-0.536,0.43-1.923,2.135-2.778,1.602c-1.417-0.887,0.746-2.773,1.39-3.417
			c0.641-0.643,2.241-1.496,2.241-1.496C379.887,254.159,378.498,256.188,377.967,256.617L377.967,256.617z"/>
		<path fill-rule="evenodd" clip-rule="evenodd" fill="#322B80" d="M397.836,258.219c-1.175,0.748-6.092,0.643-6.092-1.815
			c0-1.496,1.284-2.35,1.925-2.992c0.639-0.639,1.815-0.854,2.242-0.854c0.429,0,0.538,0.854,1.284,0.963
			c0.743,0.109,1.496,0.214,1.496-1.711c0-2.239-1.175-3.312-1.175-3.312c-0.75-0.748-1.713-0.533-2.461-0.424
			c-0.748,0.104-3.202-0.748-5.658,4.164c-2.137,4.274,1.17,10.897,5.234,10.897c1.92,0,5.339-0.963,5.231-3.74
			C399.759,256.617,398.584,257.685,397.836,258.219L397.836,258.219z"/>
		<path fill-rule="evenodd" clip-rule="evenodd" fill="#322B80" d="M464.709,257.685c-1.351-4.393-1.922-6.623-2.032-8.862
			c-0.109-2.244-1.708-2.034-1.708-2.034s-0.427,0.538-1.177,1.925c-0.746,1.387-5.554,10.468-9.506,9.72
			c2.027-2.029,2.775-3.95,2.992-7.052c0.212-3.097-0.857-3.845-3.418-3.845c-2.564,0-5.021,5.346-4.273,9.187
			c-1.604,1.815-3.634,1.605-4.913,1.605c-1.287,0-3.848-0.748-3.848-3.207c0-2.458,2.241-2.458,2.989-2.458
			s2.674-0.105,2.674-2.239c0-2.14-1.709-2.674-3.741-2.568c-2.029,0.109-5.017,2.458-4.697,8.657
			c-1.815,1.282-4.811,2.883-4.918-0.538c-0.106-3.417,0.642-5.551,0-7.152c-0.638-1.605-3.312-1.286-4.269-0.967
			c-0.965,0.323-3.103,2.673-3.636,3.312c-0.531-1.815-1.389-3.093-2.563-2.883c-1.172,0.214-1.389,2.354-1.817,3.631
			c-0.422,1.286-2.136,5.88-3.202,5.984c-1.067,0.109-1.067-1.177-1.067-1.177c1.067-2.454,0.748-6.623-2.027-8.119
			c-1.714-0.529-5.024,0.748-7.269,2.992s-3.202,5.66-1.815,8.977c1.387,3.312,5.233,2.773,9.506,0.21
			c1.067,1.496,2.244,1.925,3.312,1.605c1.066-0.324,3.312-3.421,4.169-5.236c0.958,3.312,1.387,5.127,2.032,5.127
			c0.639,0,1.174-1.921,1.387-5.661c1.386-1.71,2.456-2.883,4.379-3.845c-0.215,2.777,0.429,9.72,4.059,9.72
			c1.709,0,3.741-1.391,4.701-2.883c2.032,2.14,3.848,3.207,6.194,3.207c2.351,0,4.276-0.538,5.45-2.034
			c1.921,1.925,4.698,3.845,8.65,0.214c1.604,1.711,2.883,2.244,4.596,2.244C462.996,263.24,465.56,260.463,464.709,257.685
			L464.709,257.685z M408.409,256.941c-0.958,0.854-3.521,1.491-4.058,0.854c-0.538-0.644,0.639-2.14,2.135-3.316
			c1.493-1.173,2.563-1.597,2.99-0.958C410.334,254.802,409.374,256.084,408.409,256.941L408.409,256.941z M448.364,254.378
			c-0.213-0.538-0.11-1.286,0.212-1.82c0.319-0.533,0.962-1.496,1.493-1.067C450.069,252.663,449.219,253.63,448.364,254.378
			L448.364,254.378z M461.5,258.009c-0.748,0.743-2.347,0-3.414-0.109c0.639-0.853,2.666-3.74,2.666-3.74
			C461.291,255.655,462.248,257.256,461.5,258.009L461.5,258.009z"/>
		<path fill-rule="evenodd" clip-rule="evenodd" fill="#322B80" d="M291.362,241.845c1.684,0.399,2.275-0.986,2.275-2.078
			c0-1.091-0.198-2.177-1.883-2.277c-1.682-0.1-4.952-1.486-6.734-5.251c-0.197-0.695-0.894-1.188-1.289-0.4
			c-0.593,1.092-0.493,2.879,0.098,4.561C284.425,238.083,287.005,240.825,291.362,241.845L291.362,241.845z"/>
		<path fill-rule="evenodd" clip-rule="evenodd" fill="#322B80" d="M77.308,334.25c-9.934,0-21.794,4.007-26.921,9.777v7.69
			c6.251-5.608,14.904-8.815,25.639-8.815c10.735,0,17.625,3.851,17.625,7.69c0,3.851-5.607,5.613-10.894,6.252
			c-5.289,0.643-25.48,3.044-32.852,4.97c-7.371,1.925-13.779,6.408-13.779,13.136c0,6.733,9.293,17.787,30.125,17.787
			c4.004,0,13.139-0.801,13.139-0.801l11.217-8.972c-5.928,1.92-13.62,1.758-15.383,1.758c-6.25,0-19.229-1.434-19.229-10.249
			c0-3.525,3.045-6.251,12.178-8.171c9.135-1.926,25.641-4.488,25.641-4.488v12.659c0,6.247-0.324,11.217,5.607,14.419
			c5.928,3.201,19.869,3.525,19.869,3.525l8.49-7.533c-7.049-0.957-16.183,0.162-16.183-13.455v-16.506
			C111.598,344.509,104.067,334.25,77.308,334.25L77.308,334.25z"/>
		<path fill-rule="evenodd" clip-rule="evenodd" fill="#322B80" d="M172.808,334.093c-4.965,1.92-23.873,1.763-23.873,1.763
			l-0.322,0.801c2.244,0.801,6.73,2.401,6.73,9.615v31.886c0,3.364,0.481,10.259-6.89,12.341h24.354l0.322-34.135
			c0-7.209,4.166-13.618,19.391-13.618c15.221,0,23.873,3.364,23.873,17.949v18.744c0,5.771-1.922,9.454-7.049,11.06h24.674v-34.135
			c0-7.528-1.923-22.271-35.09-22.271c-7.69,0-18.269,2.401-25.959,9.291L172.808,334.093L172.808,334.093z"/>
		<path fill-rule="evenodd" clip-rule="evenodd" fill="#322B80" d="M341.7,335.531c-4.968-1.281-16.984-1.763-16.984-1.763
			c-21.473,0-58.006,6.57-58.006,31.247c0,16.348,24.834,27.078,51.595,27.078c15.702,0,25.958-2.401,25.958-2.401l9.936-11.535
			c-6.09,2.726-17.304,6.089-27.725,6.089c-17.784,0-40.217-6.732-40.217-24.357c0-12.975,22.914-17.306,30.602-17.306
			c7.697,0,16.029,1.444,16.029,1.444L341.7,335.531L341.7,335.531z"/>
		<path fill-rule="evenodd" clip-rule="evenodd" fill="#322B80" d="M386.405,334.093c-2.885,1.601-25.64,1.601-25.64,1.601
			l-0.159,0.644c7.211,2.721,11.057,4.965,15.226,10.896c4.162,5.928,33.005,45.027,33.005,45.027h11.86l44.063-56.887h-26.919
			l0.159,0.801c4.329,1.92,8.336,3.845,3.688,9.772l-24.518,32.372l-29.16-40.539C387.365,336.656,386.405,334.093,386.405,334.093
			L386.405,334.093z"/>
		<path fill-rule="evenodd" clip-rule="evenodd" fill="#C10E1A" d="M260.299,292.911c70.183,0,121.139,8.014,170.492,28.521
			c-46.148-29.165-105.115-38.137-170.492-38.137c-65.378,0-124.665,8.972-170.813,38.137
			C138.837,300.925,190.114,292.911,260.299,292.911L260.299,292.911z"/>
	</g>
</g>
<g id="Calque_7">
</g>
<g id="Calque_5">
	<path fill="#FD003A" d="M450.682,69.823L270.508,249.999L69.823,450.684c-5.566,5.859-14.939,5.859-20.507,0
		c-5.859-5.566-5.859-14.941,0-20.508l380.859-380.86c5.566-5.858,14.939-5.858,20.506,0
		C456.543,54.881,456.543,64.256,450.682,69.823z"/>
</g>
</svg>
