<?xml version="1.0" encoding="utf-8"?>
<!-- Generator: Adobe Illustrator 16.0.0, SVG Export Plug-In . SVG Version: 6.00 Build 0)  -->
<!DOCTYPE svg PUBLIC "-//W3C//DTD SVG 1.1//EN" "http://www.w3.org/Graphics/SVG/1.1/DTD/svg11.dtd">
<svg version="1.1" id="Calque_1" xmlns="http://www.w3.org/2000/svg" xmlns:xlink="http://www.w3.org/1999/xlink" x="0px" y="0px"
	 width="500px" height="500px" viewBox="0 0 500 500" enable-background="new 0 0 500 500" xml:space="preserve">
<g id="Calque_2" display="none">
</g>
<g id="Calque_1_1_">
</g>
<g id="Calque_3">
	<g>
		<g>
			<path d="M257.142,453.355c-19.607,3.535-38.747-1.937-53.2-13.439c-8.354,10.158-20.211,17.524-34.168,20.039
				c-24.146,4.354-47.473-7.066-59.43-26.898c-5.762,5.109-12.958,8.754-21.092,10.22c-23.62,4.258-46.219-11.438-50.477-35.059
				c-4.256-23.618,11.439-46.217,35.06-50.476c7.111-1.281,14.126-0.743,20.581,1.266c0.063-35.037,25.104-66.114,60.813-72.551
				c31.718-5.716,62.34,9.726,77.404,36.24c0.311-0.061,0.614-0.135,0.926-0.19c36.134-6.513,70.704,17.498,77.216,53.635
				C317.288,412.272,293.275,446.844,257.142,453.355z"/>
			<path d="M257.142,453.355c-19.607,3.535-38.747-1.937-53.2-13.439c-8.354,10.158-20.211,17.524-34.168,20.039
				c-24.146,4.354-47.473-7.066-59.43-26.898c-5.762,5.109-12.958,8.754-21.092,10.22c-23.62,4.258-46.219-11.438-50.477-35.059
				c-4.256-23.618,11.439-46.217,35.06-50.476c7.111-1.281,14.126-0.743,20.581,1.266c0.063-35.037,25.104-66.114,60.813-72.551
				c31.718-5.716,62.34,9.726,77.404,36.24c0.311-0.061,0.614-0.135,0.926-0.19c36.134-6.513,70.704,17.498,77.216,53.635
				C317.288,412.272,293.275,446.844,257.142,453.355z"/>
			<path d="M309.446,276.19c-32.821-56.845-30.484-124.206,0.074-177.264c-30.175-0.045-60.75,7.44-88.779,23.638
				c-55.72,32.187-87.179,89.982-88.476,149.918c6.146-2.55,12.638-4.487,19.414-5.708c5.529-0.997,11.162-1.502,16.742-1.502
				c29.094,0,56.395,13.603,74.027,36.22c0.993-0.034,1.987-0.052,2.979-0.052c41.84,0,77.601,29.924,85.028,71.151
				c4.1,22.731-0.9,45.7-14.078,64.673c-4.179,6.015-9.023,11.395-14.412,16.074c32.55,1.454,65.867-5.985,96.187-23.479
				c28.03-16.182,49.79-38.916,64.849-65.084C401.775,364.659,342.27,333.02,309.446,276.19z"/>
		</g>
	</g>
</g>
<g id="Calque_4">
</g>
<g id="Calque_6">
</g>
<g id="Calque_7">
</g>
<g id="Calque_5" display="none">
	<path display="inline" fill="#FD003A" d="M450.682,69.823L270.508,249.999L69.823,450.684c-5.565,5.859-14.938,5.859-20.507,0
		c-5.858-5.566-5.858-14.941,0-20.508l380.859-380.86c5.565-5.858,14.938-5.858,20.506,0
		C456.543,54.881,456.543,64.256,450.682,69.823z"/>
</g>
</svg>
