<?xml version="1.0" encoding="utf-8"?>
<!-- Generator: Adobe Illustrator 16.0.0, SVG Export Plug-In . SVG Version: 6.00 Build 0)  -->
<!DOCTYPE svg PUBLIC "-//W3C//DTD SVG 1.1//EN" "http://www.w3.org/Graphics/SVG/1.1/DTD/svg11.dtd">
<svg version="1.1" xmlns="http://www.w3.org/2000/svg" xmlns:xlink="http://www.w3.org/1999/xlink" x="0px" y="0px" width="500px"
	 height="500px" viewBox="0 0 500 500" enable-background="new 0 0 500 500" xml:space="preserve">
<g id="Calque_2" display="none">
</g>
<g id="Calque_1">
</g>
<g id="Calque_3">
	<g>
		<path fill="#FFFFFF" d="M383,120c0,6.627-5.373,12-12,12h-24c-6.627,0-12-5.373-12-12V86c0-6.627,5.373-12,12-12h24
			c6.627,0,12,5.373,12,12V120z"/>
		<path d="M332.143,39.356c36.494,0,66.1,29.787,66.1,66.554s-29.606,66.59-66.1,66.59c-24.974,0-46.676-13.961-57.907-34.557
			h-27.237l-21.285-21.286l-15.687,15.686l-15.685-15.686l-15.686,15.686l-15.687-15.686l-16.805,16.805l-30.25-30.249v-5.602
			l24.639-24.647h134.183c11.392-20.087,32.807-33.616,57.396-33.616L332.143,39.356z M360.083,87.916
			c-9.229,0-16.701,7.79-16.701,17.399c0,9.612,7.471,17.436,16.701,17.436c9.228,0,16.734-7.824,16.734-17.436
			C376.817,95.704,369.311,87.916,360.083,87.916z"/>
		<path fill="#FFFFFF" d="M394,359c0,6.627-5.373,12-12,12H123c-6.627,0-12-5.373-12-12v-41c0-6.627,5.373-12,12-12h259
			c6.627,0,12,5.373,12,12V359z"/>
		<path d="M250.096,201.147c-15.371,0.007-30.688,0.026-30.688,0.026l-37.763,0.549c-14.271-0.503-26.562,4.118-34.146,20.704
			l-27.412,68.527c-19.952,5.502-28.626,20.001-29.087,31.894v89.778h26.311v30.214c-1.276,28.795,45.932,29.944,46.984-0.263
			l0.551-29.663h170.702l0.546,29.653c1.056,30.21,48.262,29.058,46.985,0.263v-30.214h26.285v-89.778
			c-0.46-11.893-9.136-26.392-29.088-31.893l-27.412-68.528c-7.585-16.585-19.847-21.209-34.119-20.704l-37.761-0.548
			c-0.122-0.034-15.528-0.036-30.897-0.026L250.096,201.147z M184.786,225.517c1.193-0.004,2.419,0.026,3.694,0.079l123.83,0.393
			c11.332-0.265,16.146-0.021,20.964,10.692l19.733,53.171l-205.377-0.288l19.495-51.702c3.04-10.356,9.307-12.297,17.662-12.345
			H184.786z M141.652,316.422c12.279,0,22.248,9.944,22.248,22.223c0,12.279-9.969,22.249-22.248,22.249s-22.223-9.97-22.223-22.249
			C119.43,326.366,129.372,316.422,141.652,316.422L141.652,316.422z M359.946,316.422c12.279,0,22.248,9.944,22.248,22.223
			c0,12.279-9.968,22.249-22.248,22.249c-12.279,0-22.223-9.97-22.223-22.249C337.724,326.366,347.667,316.422,359.946,316.422
			L359.946,316.422z"/>
	</g>
</g>
<g id="Calque_4">
</g>
<g id="Calque_6">
</g>
<g id="Calque_7">
</g>
<g id="Calque_5" display="none">
	<path display="inline" fill="#FD003A" d="M450.682,69.823L270.508,249.999L69.823,450.684c-5.566,5.859-14.939,5.859-20.507,0
		c-5.859-5.566-5.859-14.941,0-20.508l380.859-380.86c5.566-5.858,14.939-5.858,20.506,0
		C456.543,54.881,456.543,64.256,450.682,69.823z"/>
</g>
</svg>
