<?xml version="1.0" encoding="utf-8"?>
<!-- Generator: Adobe Illustrator 16.0.0, SVG Export Plug-In . SVG Version: 6.00 Build 0)  -->
<!DOCTYPE svg PUBLIC "-//W3C//DTD SVG 1.1//EN" "http://www.w3.org/Graphics/SVG/1.1/DTD/svg11.dtd">
<svg version="1.1" id="Calque_1" xmlns="http://www.w3.org/2000/svg" xmlns:xlink="http://www.w3.org/1999/xlink" x="0px" y="0px"
	 width="500px" height="500px" viewBox="0 0 500 500" enable-background="new 0 0 500 500" xml:space="preserve">
<g id="Calque_2" display="none">
</g>
<g id="Calque_1_1_">
</g>
<g id="Calque_4">
</g>
<g id="Calque_6">
</g>
<g id="Calque_7">
</g>
<g id="Calque_5" display="none">
	<path display="inline" fill="#FD003A" d="M450.682,69.823L270.508,249.999L69.823,450.684c-5.564,5.859-14.938,5.859-20.507,0
		c-5.857-5.566-5.857-14.941,0-20.508l380.859-380.86c5.564-5.858,14.938-5.858,20.506,0
		C456.543,54.881,456.543,64.256,450.682,69.823z"/>
</g>
<g>
	<path d="M149.492,65.809c-4.733,4.729-7.098,10.335-7.098,16.813v334.757c0,6.48,2.364,12.081,7.098,16.814
		c4.738,4.733,10.34,7.098,16.816,7.098c6.475,0,12.077-2.364,16.812-7.098l167.379-167.379c4.733-4.739,7.104-10.34,7.104-16.815
		c0-6.476-2.37-12.083-7.104-16.812L183.118,65.809c-4.732-4.729-10.335-7.102-16.812-7.102
		C159.832,58.707,154.231,61.08,149.492,65.809z"/>
</g>
</svg>
