<?xml version="1.0" encoding="utf-8"?>
<!-- Generator: Adobe Illustrator 16.0.0, SVG Export Plug-In . SVG Version: 6.00 Build 0)  -->
<!DOCTYPE svg PUBLIC "-//W3C//DTD SVG 1.1//EN" "http://www.w3.org/Graphics/SVG/1.1/DTD/svg11.dtd">
<svg version="1.1" xmlns="http://www.w3.org/2000/svg" xmlns:xlink="http://www.w3.org/1999/xlink" x="0px" y="0px" width="500px"
	 height="500px" viewBox="0 0 500 500" enable-background="new 0 0 500 500" xml:space="preserve">
<g id="Calque_2" display="none">
</g>
<g id="Calque_1">
</g>
<g id="Calque_3">
	<path d="M445.96,408.689c-6.098,14.265-22.365,23.584-35.434,30.864c-17.134,9.315-34.563,14.847-54.022,14.847
		c-27.009,0-51.403-11.069-76.089-20.091c-17.719-6.406-34.854-14.265-50.83-24.169c-49.371-30.566-108.909-90.259-139.406-139.756
		c-9.875-16.011-17.715-33.195-24.107-50.955c-9.002-24.747-20.034-49.205-20.034-76.282c0-19.509,5.517-36.978,14.813-54.157
		c7.262-13.104,16.549-29.406,30.779-35.522c9.585-4.367,29.919-9.027,40.373-9.027c2.031,0,4.064,0,6.101,0.875
		c6.099,2.04,12.49,16.309,15.392,22.13c9.291,16.594,18.301,33.482,27.883,49.791c4.643,7.567,13.358,16.883,13.358,25.91
		c0,17.761-52.567,43.675-52.567,59.396c0,7.865,7.258,18.054,11.326,25.039c29.333,52.991,65.927,89.68,118.786,119.086
		c6.971,4.076,17.132,11.353,24.976,11.353c15.687,0,41.535-52.695,59.247-52.695c9.007,0,18.301,8.733,25.85,13.392
		c16.264,9.607,33.11,18.636,49.666,27.951c5.803,2.913,20.038,9.313,22.067,15.433c0.876,2.039,0.876,4.076,0.876,6.116
		C454.963,378.697,450.312,399.082,445.96,408.689"/>
</g>
<g id="Calque_4">
</g>
<g id="Calque_6">
</g>
<g id="Calque_7">
</g>
<g id="Calque_5" display="none">
	<path display="inline" fill="#FD003A" d="M450.682,69.823L270.508,249.999L69.823,450.684c-5.566,5.859-14.939,5.859-20.507,0
		c-5.859-5.566-5.859-14.941,0-20.508l380.859-380.86c5.566-5.858,14.939-5.858,20.506,0
		C456.543,54.881,456.543,64.256,450.682,69.823z"/>
</g>
</svg>
