<?xml version="1.0" encoding="utf-8"?>
<!-- Generator: Adobe Illustrator 16.0.0, SVG Export Plug-In . SVG Version: 6.00 Build 0)  -->
<!DOCTYPE svg PUBLIC "-//W3C//DTD SVG 1.1//EN" "http://www.w3.org/Graphics/SVG/1.1/DTD/svg11.dtd">
<svg version="1.1" id="Calque_1" xmlns="http://www.w3.org/2000/svg" xmlns:xlink="http://www.w3.org/1999/xlink" x="0px" y="0px"
	 width="500px" height="500px" viewBox="0 0 500 500" enable-background="new 0 0 500 500" xml:space="preserve">
<g id="Calque_2" display="none">
</g>
<g id="Calque_1_1_">
</g>
<g id="Calque_3">
	<g>
		<g transform="translate(0 1447.6)">
			<path d="M321.049-1395.397c-2.643-0.014-5.737,1.342-8.272,3.877l-85.274,85.275l-55.876-55.876
				c-2.767-2.766-7.219-2.766-9.984,0c-2.765,2.765-2.765,7.218,0,9.983l52.42,52.419H65.868c-16.547,0-29.868,13.322-29.868,29.869
				v202.018c0,16.546,13.321,29.866,29.868,29.866H435.14c16.546,0,29.868-13.32,29.868-29.866v-202.018
				c0-16.547-13.322-29.869-29.868-29.869H240.934l81.818-81.818c4.057-4.057,5.096-9.548,2.329-12.313
				c-1.036-1.038-2.456-1.539-4.04-1.547H321.049z M99.273-1270.003h232.965c18.808,0,33.948,15.14,33.948,33.947v134.43
				c0,18.808-15.142,33.948-33.948,33.948H99.273c-18.807,0-33.947-15.141-33.947-33.948v-134.43
				C65.325-1254.862,80.467-1270.003,99.273-1270.003z M411.802-1212.713c10.797,0,19.55,8.752,19.55,19.55
				c0,10.796-8.753,19.549-19.55,19.55c-10.798,0-19.55-8.754-19.55-19.55l0,0C392.252-1203.961,401.004-1212.713,411.802-1212.713
				L411.802-1212.713L411.802-1212.713z M411.802-1164.064c10.797,0,19.55,8.753,19.55,19.55c0,10.798-8.753,19.55-19.55,19.552
				c-10.798,0-19.55-8.754-19.55-19.552l0,0C392.252-1155.311,401.004-1164.064,411.802-1164.064L411.802-1164.064L411.802-1164.064
				z"/>
		</g>
	</g>
</g>
<g id="Calque_4">
</g>
<g id="Calque_6">
</g>
<g id="Calque_7">
</g>
<g id="Calque_5" display="none">
	<path display="inline" fill="#FD003A" d="M450.682,69.823L270.508,249.999L69.823,450.684c-5.565,5.859-14.938,5.859-20.507,0
		c-5.858-5.566-5.858-14.941,0-20.508l380.859-380.86c5.565-5.858,14.938-5.858,20.506,0
		C456.543,54.881,456.543,64.256,450.682,69.823z"/>
</g>
</svg>
