<?xml version="1.0" encoding="utf-8"?>
<!-- Generator: Adobe Illustrator 16.0.0, SVG Export Plug-In . SVG Version: 6.00 Build 0)  -->
<!DOCTYPE svg PUBLIC "-//W3C//DTD SVG 1.1//EN" "http://www.w3.org/Graphics/SVG/1.1/DTD/svg11.dtd">
<svg version="1.1" xmlns="http://www.w3.org/2000/svg" xmlns:xlink="http://www.w3.org/1999/xlink" x="0px" y="0px" width="500px"
	 height="500px" viewBox="0 0 500 500" enable-background="new 0 0 500 500" xml:space="preserve">
<g id="Calque_2" display="none">
</g>
<g id="Calque_1">
	<g>
		<path fill-rule="evenodd" clip-rule="evenodd" d="M77.857,237h346.312c0,0,23.796,114.733-125.548,114.733
			c0,0-67.031,9.173-25.903,56.798C313.841,456.156,302,439.373,302,439.373V464H134V325.742C134,325.742,77.857,317,77.857,237z"/>
		<path fill-rule="evenodd" clip-rule="evenodd" d="M75,228h106.752c0,0,53.029-75,0-178H75V228z"/>
		<rect x="218" y="203" fill-rule="evenodd" clip-rule="evenodd" width="207" height="25"/>
		<rect x="85" y="36" fill-rule="evenodd" clip-rule="evenodd" width="84" height="9"/>
	</g>
</g>
<g id="Calque_3">
</g>
<g id="Calque_4">
</g>
<g id="Calque_6">
</g>
<g id="Calque_7">
</g>
<g id="Calque_5" display="none">
	<path display="inline" fill="#FD003A" d="M450.682,69.823L270.508,249.999L69.823,450.684c-5.566,5.859-14.939,5.859-20.507,0
		c-5.859-5.566-5.859-14.941,0-20.508l380.859-380.86c5.566-5.858,14.939-5.858,20.506,0
		C456.543,54.881,456.543,64.256,450.682,69.823z"/>
</g>
</svg>
