<?xml version="1.0" encoding="utf-8"?>
<!-- Generator: Adobe Illustrator 16.0.0, SVG Export Plug-In . SVG Version: 6.00 Build 0)  -->
<!DOCTYPE svg PUBLIC "-//W3C//DTD SVG 1.1//EN" "http://www.w3.org/Graphics/SVG/1.1/DTD/svg11.dtd">
<svg version="1.1" xmlns="http://www.w3.org/2000/svg" xmlns:xlink="http://www.w3.org/1999/xlink" x="0px" y="0px" width="500px"
	 height="500px" viewBox="0 0 500 500" enable-background="new 0 0 500 500" xml:space="preserve">
<g id="Calque_2" display="none">
</g>
<g id="Calque_1">
</g>
<g id="Calque_3">
	<g>
		<path d="M457.592,170.62C403.65,116.68,331.729,83.987,250,83.987S94.715,116.68,42.408,170.62
			c-3.27,3.27-4.904,6.539-4.904,11.442c0,4.904,1.635,8.173,4.904,11.443l22.885,22.883c6.538,6.539,16.346,6.539,22.883,0
			c40.865-40.864,98.076-67.018,161.824-67.018c63.75,0,120.959,26.154,161.824,67.018c6.537,6.539,16.346,6.539,22.885,0
			l22.883-22.883c3.27-3.27,4.904-6.539,4.904-11.443C462.496,177.159,460.861,172.255,457.592,170.62z"/>
		<path d="M250,214.755c-45.769,0-84.998,17.979-114.42,47.402c-6.539,6.538-6.539,16.347,0,22.885l22.884,22.884
			c6.538,6.539,16.345,6.539,22.884,0c17.98-17.98,42.499-27.788,68.652-27.788c26.152,0,50.672,11.442,68.652,27.788
			c6.539,6.539,16.346,6.539,22.885,0l22.885-22.884c6.537-6.538,6.537-16.347,0-22.885
			C334.998,232.734,295.768,214.755,250,214.755z"/>
		<circle cx="250" cy="378.213" r="32.692"/>
	</g>
</g>
<g id="Calque_4">
</g>
<g id="Calque_6">
</g>
<g id="Calque_7">
</g>
<g id="Calque_5" display="none">
	<path display="inline" fill="#FD003A" d="M450.682,69.823L270.508,249.999L69.823,450.684c-5.566,5.859-14.939,5.859-20.507,0
		c-5.859-5.566-5.859-14.941,0-20.508l380.859-380.86c5.566-5.858,14.939-5.858,20.506,0
		C456.543,54.881,456.543,64.256,450.682,69.823z"/>
</g>
</svg>
